<?xml version="1.0" encoding="UTF-8"?><svg id="Layer_1" xmlns="http://www.w3.org/2000/svg" viewBox="0 0 425.20136 79.88576"><defs><style>.cls-1{fill:#fff;}.cls-1,.cls-2{fill-rule:evenodd;}.cls-2{fill:#eb4869;}</style></defs><path class="cls-1" d="M124.11021,51.60049c-1.97,1.03-4.68,1.56-8.12,1.56-2.03,0-3.52-.16-4.47-.47-2.43-.82-4.02-2.22-4.77-4.2-.53-1.38-.84-2.87-.92-4.45-.09-1.59-.13-2.94-.13-4.03s.03-2.16.09-3.21c.06-1.04.2-2.05.42-3.01.22-.97.55-1.87,1.01-2.7.45-.83,1.07-1.56,1.86-2.18,1.69-1.31,4.12-1.96,7.29-1.96,2.33,0,4.47.34,6.44,1.03.52.17.92.33,1.19.49l-1.07,3.16c-2.73-1.06-4.96-1.58-6.7-1.58s-3.02.2-3.84.6c-.81.4-1.45,1-1.91,1.81-.76,1.39-1.15,3.95-1.15,7.67,0,1.49.05,2.85.15,4.08.09,1.23.34,2.28.74,3.16.84,1.82,2.57,2.73,5.19,2.73s5.17-.46,7.65-1.37l1.06,2.88h0l-.01001-.01001ZM143.96022,30.25049c-2.83,0-5.64.81-8.42,2.45v20.03h-3.53999V16.46049l3.46001-.34v13.87c1.46001-1.25,3.37-2.15,5.71001-2.7.94-.23,2.03999-.34,3.32001-.34s2.39999.15,3.37.44,1.73.76,2.3,1.4c1.03,1.15,1.53,3.24,1.53,6.28v17.67h-3.58v-17.03c0-2.04-.2-3.36-.60001-3.95-.39999-.59-.87-.99-1.42-1.19-.55-.21-1.25999-.31-2.14-.31h0l.00998-.01ZM180.91021,51.38049c-2.94,1.19-6.19,1.78-9.74001,1.78-2.06,0-3.81-.22-5.24001-.64-2.28-.65-3.8-2.01-4.56-4.05-.69-1.92-1.03999-4.76-1.03999-8.52v-1.08c0-4.5.94-7.67,2.81-9.48,1.7-1.62,4.52-2.43,8.47-2.43s6.47.95,7.88,2.86c.67999.92,1.13,2.04,1.35001,3.35.22,1.32.33,2.57.33,3.76,0,1.86-.03999,3.3-.13,4.33-2,.09-3.8.12-5.39.12h-3.42999c-3.58,0-6.34-.15-8.27-.46,0,3.27.41,5.55,1.24001,6.84,1,1.58,3.02,2.37,6.03,2.37s5.89-.59,8.64999-1.77l1.05,3.05h0l-.01001-.02999ZM177.56021,38.41049v-2.04c0-2.23-.44-3.82-1.3-4.77-.97-1.07-2.63-1.6-5.00999-1.6-2.84,0-4.78999.62-5.82001,1.86-1,1.18-1.49001,3.37-1.49001,6.56h13.62l.00002-.01ZM199.21022,30.46049c-1.82001,0-3.67.91-5.56,2.73v19.54h-3.53999v-25.36h3.11l.34,3.37c.67-1.04,1.39-1.85,2.16-2.43.78-.59,1.41-.94,1.91-1.07.71001-.2,1.38-.3,2.02-.3s1.44.13,2.41.39l-.32001,3.39c-.73-.18-1.57001-.26-2.53999-.26h.00998ZM217.41021,30.46049c-1.82001,0-3.67.91-5.56,2.73v19.54h-3.53999v-25.36h3.11l.34,3.37c.67-1.04,1.39-1.85,2.16-2.43.78-.59,1.41-.94,1.91-1.07.71001-.2,1.38-.3,2.02-.3s1.44.13,2.41.39l-.32001,3.39c-.73-.18-1.57001-.26-2.53999-.26h.00998ZM225.95021,58.87049c1.03999.36,1.88.55,2.55.55s1.10001-.02,1.3-.05c.2-.04.41-.12.63-.23.5-.27.87-.71,1.11-1.32.60001-1.45,1.11-3.04,1.56-4.77l-9.78-25.68h3.94l6.60001,18.69,1,3.28.92-3.3,5.83-18.66h3.71001l-10.69,31.36c-.78999,2.44-2.59,3.67-5.42,3.67-1.78999,0-3.19-.26-4.22-.76l.96001-2.77h0l-.00003-.01ZM262.8402,47.70049c2.92999,1.63,5.87,2.45,8.82001,2.45,2.45999,0,3.89999-.88,4.32999-2.63.14001-.6.20999-1.32.20999-2.18s-.10001-1.53-.29999-2.01c-.20001-.47-.53-.83-1-1.06s-1.07999-.41-1.85999-.52c-.76999-.11-1.76001-.27-2.95001-.48-1.19-.2-2.28-.44-3.28-.69s-1.84-.63-2.54001-1.11c-1.48001-1.04-2.17999-2.79-2.12-5.24v-.53c0-2.59.85001-4.43,2.54999-5.52,1.64999-1.08,4.37-1.45,8.16-1.11,2.59.24,4.64999.68,6.17999,1.34l-1,3.22c-1.70001-.73-3.75-1.25-6.14001-1.58-.73999-.1-1.42999-.15-2.07001-.15s-1.23999.05-1.76001.15c-.51999.09-.97.28-1.32001.55-.67999.55-1.03,1.59-1.06,3.09-.04001,1.78.45001,2.9,1.48999,3.39,1,.46,2.17999.79,3.53.97,1.37.17,2.48001.33,3.35001.47s1.66.32,2.35999.54c.70999.23,1.32001.59,1.82999,1.08,1.07001,1.01,1.59,2.76,1.56,5.27-.07001,4.36-1.89001,6.85-5.45001,7.46-1.07999.18-2.16.28-3.23999.28s-2.07001-.07-2.97-.2c-.89999-.14-1.76001-.33-2.59-.57-1.56-.44-2.97-1.03-4.23999-1.75l1.54001-2.94h0l-.01993.00999ZM308.10021,51.38049c-2.94,1.19-6.19,1.78-9.73999,1.78-2.06,0-3.81-.22-5.23999-.64-2.28-.65-3.79999-2.01-4.56-4.05-.69-1.92-1.04001-4.76-1.04001-8.52v-1.08c0-4.5.94-7.67,2.81-9.48,1.70001-1.62,4.51999-2.43,8.47-2.43s6.47.95,7.88,2.86c.67999.92,1.13,2.04,1.35001,3.35.22,1.32.32999,2.57.32999,3.76,0,1.86-.04001,3.3-.13,4.33-2,.09-3.79999.12-5.39001.12h-3.42999c-3.59,0-6.34-.15-8.26999-.46,0,3.27.41,5.55,1.23999,6.84,1,1.58,3.01999,2.37,6.03,2.37s5.89001-.59,8.64999-1.77l1.04999,3.05h0l-.00998-.02999ZM304.76022,38.41049v-2.04c0-2.23-.44-3.82-1.29999-4.77-.97-1.07-2.63-1.6-5.01001-1.6-2.84,0-4.79001.62-5.82001,1.86-1,1.18-1.48999,3.37-1.48999,6.56h13.62v-.01ZM326.4002,30.46049c-1.82001,0-3.67001.91-5.56,2.73v19.54h-3.54001v-25.36h3.10999l.34,3.37c.67001-1.04,1.39001-1.85,2.16-2.43.78-.59,1.41-.94,1.91-1.07.70999-.2,1.38-.3,2.01999-.3s1.44.13,2.41.39l-.32001,3.39c-.73001-.18-1.57001-.26-2.54001-.26h.01004ZM332.50021,27.37049h3.82001l6.64999,20.69.64001,2.11.60001-2.11,6.35001-20.69h3.85999l-8.57001,25.36h-4.64001l-8.70001-25.36h-.00998ZM380.79022,51.38049c-2.94,1.19-6.19,1.78-9.73999,1.78-2.06,0-3.81-.22-5.25-.64-2.28-.65-3.79999-2.01-4.56-4.05-.69-1.92-1.04001-4.76-1.04001-8.52v-1.08c0-4.5.94-7.67,2.81-9.48,1.70001-1.62,4.51999-2.43,8.47-2.43s6.47.95,7.89001,2.86c.67999.92,1.13,2.04,1.35001,3.35.22,1.32.32999,2.57.32999,3.76,0,1.86-.04001,3.3-.13,4.33-2,.09-3.79999.12-5.39001.12h-3.42999c-3.57999,0-6.34-.15-8.26999-.46,0,3.27.41,5.55,1.23999,6.84,1,1.58,3.01999,2.37,6.03,2.37s5.89001-.59,8.64999-1.77l1.04999,3.05h0l-.00998-.02999ZM377.44021,38.41049v-2.04c0-2.23-.44-3.82-1.29999-4.77-.97-1.07-2.63-1.6-5.01001-1.6-2.84,0-4.78.62-5.82001,1.86-1,1.18-1.48999,3.37-1.48999,6.56h13.62v-.01ZM399.0902,30.46049c-1.82001,0-3.67001.91-5.56,2.73v19.54h-3.54001v-25.36h3.10999l.34,3.37c.67001-1.04,1.39001-1.85,2.16-2.43.78-.59,1.41-.94,1.91-1.07.70999-.2,1.38-.3,2.01999-.3s1.44.13,2.41.39l-.32001,3.39c-.73001-.18-1.57001-.26-2.54001-.26h.01004ZM408.23022,47.70049c2.92999,1.63,5.87,2.45,8.82001,2.45,2.45999,0,3.89999-.88,4.32999-2.63.14001-.6.20999-1.32.20999-2.18s-.10001-1.53-.29999-2.01c-.20001-.47-.53-.83-1-1.06s-1.07999-.41-1.85999-.52c-.76999-.11-1.76001-.27-2.95001-.48-1.19-.2-2.28-.44-3.28-.69s-1.84-.63-2.54001-1.11c-1.48001-1.04-2.17999-2.79-2.12-5.24v-.53c0-2.59.85001-4.43,2.54999-5.52,1.64999-1.08,4.37-1.45,8.16-1.11,2.59.24,4.64999.68,6.17999,1.34l-1,3.22c-1.70001-.73-3.75-1.25-6.14001-1.58-.73001-.1-1.42999-.15-2.07001-.15s-1.23999.05-1.76001.15c-.51999.09-.97.28-1.32001.55-.67999.55-1.03,1.59-1.06,3.09-.04001,1.78.45001,2.9,1.48999,3.39,1,.46,2.17001.79,3.53.97,1.37.17,2.48001.33,3.35001.47s1.66.32,2.35999.54c.70999.23,1.32001.59,1.82999,1.08,1.07001,1.01,1.59,2.76,1.56,5.27-.07001,4.36-1.89001,6.85-5.45999,7.46-1.07999.18-2.16.28-3.23999.28s-2.07001-.07-2.98001-.2c-.89999-.14-1.76001-.33-2.59-.57-1.56-.44-2.97-1.03-4.23999-1.75l1.53-2.94.01007.00999Z"/><path class="cls-2" d="M17.03021,7.22049C34.43021-4.95951,58.17021-1.32951,71.20021,15.09049c-2.35,2.94-4.93,5.44-7.76,7.45-2.03,1.44-4.2,2.64-6.53,3.58-.08.03-.15.06-.23.09-1.28.48-3.07.51-3.88-.81-5.61-9.18-15.82-8.88-23.98-1.35-7.87,7.26-10.91,18.24-4.76,27.02,6.14,8.77,17.44,9.56,27.01,4.76,9.67-4.84,12.94-13.95,7.21-22.23-.68-.99.01-1.84.95-2.28.05-.03.11-.05.17-.07,2.59-1.09,5.03-2.45,7.32-4.07,2.86-2.02,5.46-4.43,7.82-7.18,10.26,17.74,5.41,40.69-11.69,52.66-18.07,12.65-42.97,8.26-55.62-9.81C-5.42979,44.78049-1.02979,19.88049,17.03021,7.22049Z"/></svg>