<?xml version="1.0" encoding="UTF-8"?><svg id="Layer_1" xmlns="http://www.w3.org/2000/svg" viewBox="0 0 367.29999 82"><defs><style>.cls-1{fill:#e31937;}</style></defs><rect class="cls-1" width="10" height="82"/><rect class="cls-1" x="73" width="10" height="82"/><rect class="cls-1" x="20" y="27" width="43" height="10"/><rect class="cls-1" x="20" y="46" width="43" height="10"/><polygon points="134.12 56.08 134.12 43.2 121.87 43.2 121.87 56.08 117.3 56.08 117.3 26.58 121.87 26.58 121.87 39.18 134.12 39.18 134.12 26.58 138.7 26.58 138.7 56.08 134.12 56.08"/><rect x="148.78" y="26.58" width="4.58" height="29.5"/><polygon points="174.21001 56.08 170.64999 56.08 160.73 26.58 165.48 26.58 172.42999 48.04 179.38 26.58 184.21001 26.58 174.21001 56.08"/><polygon points="191.63 56.08 191.63 26.58 210.91 26.58 210.91 30.6 196.21001 30.6 196.21001 39.22 208.75 39.22 208.75 43.2 196.21001 43.2 196.21001 52.06 210.91 52.06 210.91 56.08 191.63 56.08"/><polygon points="219.32001 56.08 219.32001 26.58 223.89999 26.58 223.89999 52.06 238.42999 52.06 238.42999 56.08 219.32001 56.08"/><path d="M260.31,32.16999c-2.50433-2.43883-6.49565-2.43883-9,0-1.44,1.57-1.76001,3.2-1.76001,9.2s.28999,7.58,1.78,9.16c2.50435,2.43883,6.49567,2.43883,9,0,1.48001-1.57,1.78-3.23,1.78-9.16s-.29999-7.58-1.78-9.16M263.79999,53.21c-4.46515,4.19728-11.42485,4.19728-15.89,0-3-2.9-2.92-6.17-2.92-11.85s0-9,2.92-11.85c4.46515-4.19728,11.42485-4.19728,15.89,0,3,2.9,2.88,6.17,2.88,11.85s.09,9-2.88,11.85"/><path d="M285.74,56.37c-2.95502.05141-5.8075-1.0831-7.92001-3.15-2.94998-2.94-2.94998-6.22-2.94998-11.85s0-9,2.92999-11.85c2.11804-2.07093,4.9783-3.20567,7.94-3.15,5.54999,0,9.70999,3.19,10.76999,9.07h-4.63998c-.72-3-2.76001-5.06-6.10001-5.06-1.66406-.03866-3.27167.60438-4.45001,1.78-1.48001,1.57-1.82001,3.27-1.82001,9.2s.34,7.62,1.82001,9.2c1.17902,1.17463,2.78616,1.81749,4.45001,1.78,3.35001,0,5.42999-2.07,6.14999-5.05h4.62c-.65948,5.39179-5.37506,9.35635-10.79999,9.08"/><rect x="304.85999" y="26.58" width="4.57999" height="29.5"/><polygon points="330.17999 30.6 330.17999 56.08 325.60999 56.08 325.60999 30.6 317.29999 30.6 317.29999 26.58 338.48999 26.58 338.48999 30.6 330.17999 30.6"/><polygon points="358.26999 43.94 358.26999 56.08 353.69 56.08 353.69 43.94 344.66 26.58 349.66 26.58 355.98001 39.55 362.29001 26.58 367.29999 26.58 358.26999 43.94"/></svg>