<?xml version="1.0" encoding="UTF-8"?>
<svg id="Layer_1" xmlns="http://www.w3.org/2000/svg" viewBox="0 0 425.2 79.88">
  <defs>
    <style>
      .cls-1 {
        fill: #eb4869;
      }

      .cls-1, .cls-2 {
        fill-rule: evenodd;
      }

      .cls-2 {
        fill: #322e2e;
      }
    </style>
  </defs>
  <path class="cls-2" d="M124.11,51.6c-1.97,1.03-4.68,1.56-8.12,1.56-2.03,0-3.52-.16-4.47-.47-2.43-.82-4.02-2.22-4.77-4.2-.53-1.38-.84-2.87-.92-4.45-.09-1.59-.13-2.94-.13-4.03s.03-2.16.09-3.21c.06-1.04.2-2.05.42-3.01.22-.97.55-1.87,1.01-2.7.45-.83,1.07-1.56,1.86-2.18,1.69-1.31,4.12-1.96,7.29-1.96,2.33,0,4.47.34,6.44,1.03.52.17.92.33,1.19.49l-1.07,3.16c-2.73-1.06-4.96-1.58-6.7-1.58s-3.02.2-3.84.6c-.81.4-1.45,1-1.91,1.81-.76,1.39-1.15,3.95-1.15,7.67,0,1.49.05,2.85.15,4.08.09,1.23.34,2.28.74,3.16.84,1.82,2.57,2.73,5.19,2.73s5.17-.46,7.65-1.37l1.06,2.88h0ZM143.96,30.25c-2.83,0-5.64.81-8.42,2.45v20.03h-3.54V16.46l3.46-.34v13.87c1.46-1.25,3.37-2.15,5.71-2.7.94-.23,2.04-.34,3.32-.34s2.4.15,3.37.44c.97.29,1.73.76,2.3,1.4,1.03,1.15,1.53,3.24,1.53,6.28v17.67h-3.58v-17.03c0-2.04-.2-3.36-.6-3.95-.4-.59-.87-.99-1.42-1.19-.55-.21-1.26-.31-2.14-.31h0ZM180.91,51.38c-2.94,1.19-6.19,1.78-9.74,1.78-2.06,0-3.81-.22-5.24-.64-2.28-.65-3.8-2.01-4.56-4.05-.69-1.92-1.04-4.76-1.04-8.52v-1.08c0-4.5.94-7.67,2.81-9.48,1.7-1.62,4.52-2.43,8.47-2.43s6.47.95,7.88,2.86c.68.92,1.13,2.04,1.35,3.35.22,1.32.33,2.57.33,3.76,0,1.86-.04,3.3-.13,4.33-2,.09-3.8.12-5.39.12h-3.43c-3.58,0-6.34-.15-8.27-.46,0,3.27.41,5.55,1.24,6.84,1,1.58,3.02,2.37,6.03,2.37s5.89-.59,8.65-1.77l1.05,3.05h0ZM177.56,38.41v-2.04c0-2.23-.44-3.82-1.3-4.77-.97-1.07-2.63-1.6-5.01-1.6-2.84,0-4.79.62-5.82,1.86-1,1.18-1.49,3.37-1.49,6.56h13.62ZM199.21,30.46c-1.82,0-3.67.91-5.56,2.73v19.54h-3.54v-25.36h3.11l.34,3.37c.67-1.04,1.39-1.85,2.16-2.43.78-.59,1.41-.94,1.91-1.07.71-.2,1.38-.3,2.02-.3s1.44.13,2.41.39l-.32,3.39c-.73-.18-1.57-.26-2.54-.26h0ZM217.41,30.46c-1.82,0-3.67.91-5.56,2.73v19.54h-3.54v-25.36h3.11l.34,3.37c.67-1.04,1.39-1.85,2.16-2.43.78-.59,1.41-.94,1.91-1.07.71-.2,1.38-.3,2.02-.3s1.44.13,2.41.39l-.32,3.39c-.73-.18-1.57-.26-2.54-.26h0ZM225.95,58.87c1.04.36,1.88.55,2.55.55s1.1-.02,1.3-.05c.2-.04.41-.12.63-.23.5-.27.87-.71,1.11-1.32.6-1.45,1.11-3.04,1.56-4.77l-9.78-25.68h3.94l6.6,18.69,1,3.28.92-3.3,5.83-18.66h3.71l-10.69,31.36c-.79,2.44-2.59,3.67-5.42,3.67-1.79,0-3.19-.26-4.22-.76l.96-2.77h0ZM262.84,47.7c2.93,1.63,5.87,2.45,8.82,2.45,2.46,0,3.9-.88,4.33-2.63.14-.6.21-1.32.21-2.18s-.1-1.53-.3-2.01c-.2-.47-.53-.83-1-1.06-.47-.23-1.08-.41-1.86-.52-.77-.11-1.76-.27-2.95-.48-1.19-.2-2.28-.44-3.28-.69-1-.25-1.84-.63-2.54-1.11-1.48-1.04-2.18-2.79-2.12-5.24v-.53c0-2.59.85-4.43,2.55-5.52,1.65-1.08,4.37-1.45,8.16-1.11,2.59.24,4.65.68,6.18,1.34l-1,3.22c-1.7-.73-3.75-1.25-6.14-1.58-.74-.1-1.43-.15-2.07-.15s-1.24.05-1.76.15c-.52.09-.97.28-1.32.55-.68.55-1.03,1.59-1.06,3.09-.04,1.78.45,2.9,1.49,3.39,1,.46,2.18.79,3.53.97,1.37.17,2.48.33,3.35.47.87.14,1.66.32,2.36.54.71.23,1.32.59,1.83,1.08,1.07,1.01,1.59,2.76,1.56,5.27-.07,4.36-1.89,6.85-5.45,7.46-1.08.18-2.16.28-3.24.28s-2.07-.07-2.97-.2c-.9-.14-1.76-.33-2.59-.57-1.56-.44-2.97-1.03-4.24-1.75l1.54-2.94h0ZM308.1,51.38c-2.94,1.19-6.19,1.78-9.74,1.78-2.06,0-3.81-.22-5.24-.64-2.28-.65-3.8-2.01-4.56-4.05-.69-1.92-1.04-4.76-1.04-8.52v-1.08c0-4.5.94-7.67,2.81-9.48,1.7-1.62,4.52-2.43,8.47-2.43s6.47.95,7.88,2.86c.68.92,1.13,2.04,1.35,3.35.22,1.32.33,2.57.33,3.76,0,1.86-.04,3.3-.13,4.33-2,.09-3.8.12-5.39.12h-3.43c-3.59,0-6.34-.15-8.27-.46,0,3.27.41,5.55,1.24,6.84,1,1.58,3.02,2.37,6.03,2.37s5.89-.59,8.65-1.77l1.05,3.05h0ZM304.76,38.41v-2.04c0-2.23-.44-3.82-1.3-4.77-.97-1.07-2.63-1.6-5.01-1.6-2.84,0-4.79.62-5.82,1.86-1,1.18-1.49,3.37-1.49,6.56h13.62ZM326.4,30.46c-1.82,0-3.67.91-5.56,2.73v19.54h-3.54v-25.36h3.11l.34,3.37c.67-1.04,1.39-1.85,2.16-2.43.78-.59,1.41-.94,1.91-1.07.71-.2,1.38-.3,2.02-.3s1.44.13,2.41.39l-.32,3.39c-.73-.18-1.57-.26-2.54-.26h0ZM332.5,27.37h3.82l6.65,20.69.64,2.11.6-2.11,6.35-20.69h3.86l-8.57,25.36h-4.64l-8.7-25.36h0ZM380.79,51.38c-2.94,1.19-6.19,1.78-9.74,1.78-2.06,0-3.81-.22-5.25-.64-2.28-.65-3.8-2.01-4.56-4.05-.69-1.92-1.04-4.76-1.04-8.52v-1.08c0-4.5.94-7.67,2.81-9.48,1.7-1.62,4.52-2.43,8.47-2.43s6.47.95,7.89,2.86c.68.92,1.13,2.04,1.35,3.35.22,1.32.33,2.57.33,3.76,0,1.86-.04,3.3-.13,4.33-2,.09-3.8.12-5.39.12h-3.43c-3.58,0-6.34-.15-8.27-.46,0,3.27.41,5.55,1.24,6.84,1,1.58,3.02,2.37,6.03,2.37s5.89-.59,8.65-1.77l1.05,3.05h0ZM377.44,38.41v-2.04c0-2.23-.44-3.82-1.3-4.77-.97-1.07-2.63-1.6-5.01-1.6-2.84,0-4.78.62-5.82,1.86-1,1.18-1.49,3.37-1.49,6.56h13.62ZM399.09,30.46c-1.82,0-3.67.91-5.56,2.73v19.54h-3.54v-25.36h3.11l.34,3.37c.67-1.04,1.39-1.85,2.16-2.43.78-.59,1.41-.94,1.91-1.07.71-.2,1.38-.3,2.02-.3s1.44.13,2.41.39l-.32,3.39c-.73-.18-1.57-.26-2.54-.26h0ZM408.23,47.7c2.93,1.63,5.87,2.45,8.82,2.45,2.46,0,3.9-.88,4.33-2.63.14-.6.21-1.32.21-2.18s-.1-1.53-.3-2.01c-.2-.47-.53-.83-1-1.06-.47-.23-1.08-.41-1.86-.52-.77-.11-1.76-.27-2.95-.48-1.19-.2-2.28-.44-3.28-.69-1-.25-1.84-.63-2.54-1.11-1.48-1.04-2.18-2.79-2.12-5.24v-.53c0-2.59.85-4.43,2.55-5.52,1.65-1.08,4.37-1.45,8.16-1.11,2.59.24,4.65.68,6.18,1.34l-1,3.22c-1.7-.73-3.75-1.25-6.14-1.58-.73-.1-1.43-.15-2.07-.15s-1.24.05-1.76.15c-.52.09-.97.28-1.32.55-.68.55-1.03,1.59-1.06,3.09-.04,1.78.45,2.9,1.49,3.39,1,.46,2.17.79,3.53.97,1.37.17,2.48.33,3.35.47.87.14,1.66.32,2.36.54.71.23,1.32.59,1.83,1.08,1.07,1.01,1.59,2.76,1.56,5.27-.07,4.36-1.89,6.85-5.46,7.46-1.08.18-2.16.28-3.24.28s-2.07-.07-2.98-.2c-.9-.14-1.76-.33-2.59-.57-1.56-.44-2.97-1.03-4.24-1.75l1.53-2.94Z"/>
  <path class="cls-1" d="M17.03,7.22C34.43-4.96,58.17-1.33,71.2,15.09c-2.35,2.94-4.93,5.44-7.76,7.45-2.03,1.44-4.2,2.64-6.53,3.58-.08.03-.15.06-.23.09-1.28.48-3.07.51-3.88-.81-5.61-9.18-15.82-8.88-23.98-1.35-7.87,7.26-10.91,18.24-4.76,27.02,6.14,8.77,17.44,9.56,27.01,4.76,9.67-4.84,12.94-13.95,7.21-22.23-.68-.99.01-1.84.95-2.28.05-.03.11-.05.17-.07,2.59-1.09,5.03-2.45,7.32-4.07,2.86-2.02,5.46-4.43,7.82-7.18,10.26,17.74,5.41,40.69-11.69,52.66-18.07,12.65-42.97,8.26-55.62-9.81C-5.43,44.78-1.03,19.88,17.03,7.22Z"/>
</svg>