<svg version="1.1" id="Layer_1" xmlns:x="ns_extend;" xmlns:i="ns_ai;" xmlns:graph="ns_graphs;" xmlns="http://www.w3.org/2000/svg" xmlns:xlink="http://www.w3.org/1999/xlink" x="0px" y="0px" viewBox="0 0 1244 175" style="enable-background:new 0 0 1244 175;" xml:space="preserve">
 <style type="text/css">
  .st0{fill:#020202;}
	.st1{fill:#E92B2E;}
 </style>
 <metadata>
  <sfw xmlns="ns_sfw;">
   <slices>
   </slices>
   <sliceSourceBounds bottomLeftOrigin="true" height="175" width="1244" x="-1118.1" y="1.4">
   </sliceSourceBounds>
  </sfw>
 </metadata>
 <g>
  <g>
   <g>
    <path class="st0" d="M424.7,90.1l41.1-0.1L465.7,79l-41.1,0.1l-0.1-24.2l61.1-0.1l-0.1-11.1l-73.3,0.1l0.2,84.9l75.9-0.2v-11.1
				l-63.6,0.1L424.7,90.1z">
    </path>
   </g>
   <g>
    <path class="st0" d="M748.2,94.2c0,15.2-10.2,25.1-25,25.1c-14.4,0-23.3-10.1-23.4-24.9l-0.1-50.9h-12.3l0.1,51.3
				c0,23.3,16.5,35.6,35.7,35.6c28,0,37.3-19.1,37.3-35.7l-0.1-51.3h-12.3L748.2,94.2L748.2,94.2z">
    </path>
   </g>
   <g>
    <path class="st0" d="M841,43.1h-12.3L829,128h12.3L841,43.1z">
    </path>
   </g>
   <g>
    <path class="st0" d="M986.2,109l-60.4-66L913.9,43l0.2,84.8h12.3l-0.1-66.9l60.4,66.8h11.9l-0.2-84.9h-12.3L986.2,109z">
    </path>
   </g>
   <g>
    <path class="st0" d="M1084.4,42.6h-12.3l0.2,84.9h12.4L1084.4,42.6z">
    </path>
   </g>
   <g>
    <path class="st0" d="M1202.8,81l35.1-39.1l-14.8,0.1l-27.9,30.6L1167.5,42l-15.7,0.1l34.1,38.9l-42.3,46.3h15.2l35.2-37.8
				l33.2,37.6h16.9L1202.8,81z">
    </path>
   </g>
   <g>
    <path class="st0" d="M580.7,40.2c-25.5,0-44.9,19.2-44.8,45.8v0.4c0,26.7,20,45.3,45,44.8c6.4,0,13.9-1.7,19.9-4.7l6.8,8.1h13.9
				l-12.3-13.9c9.8-7.7,16-20,16-35.3v-0.4C625.7,58.9,605.8,39.7,580.7,40.2 M613,86c0,11.9-3.8,19.9-11,26.3l-6.8-7.7h-13.9
				l11.5,13.1c-3,1.3-8.1,2.6-11.9,2.6c-18.2,0-32.7-14.3-32.7-34.3v-0.4c0-20.3,13.5-34.9,31.8-34.9C598.6,50.9,613,65.2,613,86">
    </path>
   </g>
  </g>
  <g>
   <g>
    <path class="st1" d="M249.8,40.2l0.2,78.3l-17.7,6.3l-0.2-90.7l-53.6-18.6l0.3,128.2l-17.7,6.3L160.7,9.2l-27-9.2l-26.6,9.3
				l0.3,140.6l-18.1-6.2L88.9,15.5L35.5,34.4l0.2,90.7l-17.7-6.2l-0.2-78.3L0,46.9l0.2,84.9l53.6,18.6L53.6,47.2l17.7-6.3l0.2,115.7
				l53.6,18.3l-0.3-152.9l8.9-3l8.9,3l0.3,152.9l53.6-18.5l-0.3-115.6l18.1,6.2l0.2,103.2l53.5-18.8l-0.2-84.8L249.8,40.2z">
    </path>
   </g>
   <g>
    <path class="st1" d="M315.7,125.3c8.9,0,16-7.6,16-16.1c0-8.9-7-16.1-16.1-16c-8.9,0-16,7.6-16,16.1
				C299.6,117.7,306.6,125.3,315.7,125.3z M315.7,123.3c-8.3,0-14.1-6.6-14.1-14.4c0-8,6.2-14.4,14-14.5c8.3,0,14.1,6.6,14.1,14.4
				C329.9,116.6,323.6,123.2,315.7,123.3z M308.9,117h4v-5.3h2.7l3.5,5.3h4.9l-4.3-5.9c2.3-0.7,3.6-2.7,3.6-5.3c0-4-3-5.6-6.9-5.6
				h-7.9v16.8L308.9,117L308.9,117z M313.1,108.6V104h3.6c1.7,0,3,1,3,2.3s-1,2.3-3,2.3C316.7,108.6,313.1,108.6,313.1,108.6z">
    </path>
   </g>
  </g>
 </g>
</svg>