<?xml version="1.0" encoding="UTF-8"?><svg id="Art" xmlns="http://www.w3.org/2000/svg" xmlns:xlink="http://www.w3.org/1999/xlink" viewBox="0 0 975.35999 256"><defs><style>.cls-1{fill:none;}.cls-2{fill:#4285f4;}.cls-3{fill:#fbbc05;}.cls-4{clip-path:url(#clippath-1);}.cls-5{fill:#34a853;}.cls-6{fill:#fff;}.cls-7{fill:#ea4335;}.cls-8{clip-path:url(#clippath);}</style><clipPath id="clippath"><rect class="cls-1" width="975.35999" height="256"/></clipPath><clipPath id="clippath-1"><rect class="cls-1" x="82.18" y="49.87" width="156.13" height="156.13"/></clipPath></defs><g class="cls-8"><g class="cls-4"><path class="cls-7" d="M180.66,99.37l4.78999.09,13-13,.64-5.52c-24.12222-21.48513-61.0943-19.34734-82.57942,4.77488-6.0429,6.78461-10.42216,14.88369-12.79058,23.65512,1.43-1,4.46-.25,4.46-.25l26-4.28s1.35001-2.21,2-2.08c11.58122-12.71088,31.06407-14.18865,44.43001-3.37l.05-.02Z"/><path class="cls-2" d="M216.74999,109.38c-2.98848-11.00732-9.12637-20.90233-17.65999-28.46999l-18.44,18.45c7.66028,6.16483,12.11656,15.46715,12.12,25.3v3.25c8.98291.22278,16.0844,7.68547,15.86162,16.66838-.21501,8.66951-7.19211,15.64661-15.86162,15.86162h-32.53l-3.25,3.27v19.52l3.25,3.23h32.53c23.34508.01132,42.27917-18.90442,42.2905-42.2495.00674-13.91273-6.83313-26.9379-18.2905-34.83051h-.02Z"/><path class="cls-5" d="M127.72,186.46001h32.50001v-26h-32.5c-2.32218.00253-4.61763-.49544-6.73001-1.46001l-4.69,1.42999-13,13-1.14,4.39999c7.34341,5.60117,16.32426,8.63344,25.56001,8.63002Z"/><path class="cls-3" d="M127.72,101.89c-23.34505-.03523-42.29852,18.8611-42.33376,42.20615-.02003,13.27693,6.1992,25.79181,16.79375,33.79385l18.86-18.89c-8.18286-3.68575-11.82851-13.30714-8.14277-21.49001s13.30714-11.82851,21.49001-8.14276c3.61723,1.62927,6.51349,4.52553,8.14276,8.14276l18.86-18.86c-7.97769-10.55324-20.4407-16.75698-33.67001-16.75999Z"/></g><path class="cls-6" d="M321.88999,168.31c-11.31479.13681-22.1973-4.34041-30.13998-12.39999-16.44427-15.86246-16.91592-42.05225-1.05347-58.49653.34479-.35745.69601-.70867,1.05347-1.05347,7.94675-8.04884,18.83017-12.51199,30.13998-12.36,10.79947-.14645,21.20776,4.03846,28.89999,11.62l-8.12,8.13c-5.56595-5.38309-13.0376-8.34226-20.78-8.23-8.09454-.13451-15.87488,3.12996-21.45001,9-11.72153,12.09623-11.72153,31.31378,0,43.41,5.58951,5.84338,13.36493,9.08766,21.45001,8.95,8.5733,0,15.66998-2.81334,21.29001-8.44,3.33334-3.33333,5.42331-8.16667,6.26999-14.5h-27.56v-11.61h38.78c.43649,2.37452.64078,4.78589.60999,7.2-.00003,11.33333-3.33334,20.31667-10,26.95-7.52664,7.88-17.3233,11.82333-29.38998,11.83ZM411.99,160.53999c-10.80798,10.3609-27.862,10.3609-38.66998,0-10.55765-10.77097-10.55765-28.00903,0-38.78,10.82031-10.33018,27.84967-10.33018,38.66998,0,10.55765,10.77097,10.55765,28.00903,0,38.78ZM381.85999,152.92999c5.58871,5.96468,14.95462,6.26944,20.91928.68071.23422-.21945.46127-.44649.68073-.68071,5.99286-6.72914,5.99286-16.88086,0-23.61-5.71738-5.99505-15.21219-6.22014-21.20724-.50275-.17154.16359-.33917.33122-.50275.50275-5.98486,6.74094-5.95905,16.89958.06,23.61h.04999ZM471.44999,160.53999c-10.82162,10.33656-27.85837,10.33656-38.67999,0-10.55765-10.77097-10.55765-28.00903,0-38.78,10.82162-10.33656,27.85837-10.33656,38.67999,0,10.55765,10.77097,10.55765,28.00903,0,38.78ZM441.31001,152.92999c5.58871,5.96468,14.95462,6.26944,20.91928.68071.23422-.21945.46127-.44649.68073-.68071,6.00711-6.71645,6.02863-16.86818.04999-23.61-5.72028-5.99229-15.21518-6.21281-21.20749-.49252-.16797.16034-.33218.32455-.49252.49252-5.99225,6.73666-5.97073,16.89877.04999,23.61h.00003ZM510.53001,192.67999c-6,0-11.07333-1.61-15.22-4.83-3.86465-2.91373-6.91275-6.77466-8.85001-11.21001l10.39001-4.32001c1.13309,2.65187,2.90182,4.98387,5.14999,6.78999,2.40955,1.94536,5.43439,2.96664,8.53,2.88,4.53336,0,8.08334-1.37334,10.64999-4.12,2.56665-2.74667,3.85327-6.70331,3.85999-11.86998v-3.91h-.41998c-3.33331,4.12-8.09668,6.17999-14.29001,6.17999-6.92667,0-12.99664-2.64333-18.20999-7.92999-5.11578-5.03714-7.94229-11.95164-7.82001-19.13-.10803-7.19917,2.71463-14.13309,7.82001-19.20999,5.20667-5.33334,11.27664-8,18.20999-8,2.88705-.04112,5.74789.55289,8.37997,1.74,2.26031.99372,4.2771,2.4679,5.90997,4.32h.41998v-4.42h11.31v48.75999c0,9.45999-2.41663,16.54001-7.25,21.24001-4.83331,4.70001-11.02332,7.04666-18.56992,7.03999ZM511.35999,157.60999c3.9704.06544,7.76111-1.65195,10.33002-4.67999,2.81909-3.2247,4.30939-7.39905,4.16998-11.67999.14374-4.32689-1.34473-8.54965-4.16998-11.83-2.55573-3.05134-6.35016-4.78879-10.32999-4.73-4.08279-.04453-7.98499,1.68045-10.70001,4.73-2.96875,3.21048-4.55627,7.45941-4.42001,11.83-.13235,4.32518,1.45737,8.52606,4.42001,11.67999,2.72885,3.02452,6.62665,4.72937,10.69998,4.68001v-.00002ZM556.51002,86.83999v79.82h-11.92999v-79.81999h11.92999ZM589.22004,168.31c-7.21954.18613-14.18933-2.64818-19.23004-7.81999-5.11151-5.11856-7.90173-12.10851-7.71997-19.34,0-7.95334,2.48663-14.46667,7.46002-19.54,4.71472-4.97023,11.30035-7.73149,18.14996-7.61001,3.14392-.02851,6.26062.58395,9.15997,1.8,2.61389,1.06577,4.99243,2.6356,7,4.62,1.67383,1.66644,3.15631,3.51455,4.41998,5.51,1.05737,1.69634,1.95453,3.4874,2.67999,5.35001l1.22998,3.08-36.31,15c2.81329,5.49333,7.20331,8.23666,13.16998,8.23,5.47998,0,9.93665-2.50333,13.37-7.50999l9.26001,6.17c-2.32019,3.339-5.29346,6.17279-8.73999,8.33-4.164,2.58716-9.00018,3.88492-13.89996,3.72998h.00006ZM574.10004,140.31l24.27002-10.08c-.74664-1.78741-2.08942-3.26097-3.79999-4.17-1.91583-1.07622-4.08289-1.62488-6.28003-1.59-3.49335,0-6.76666,1.44-9.82001,4.32001s-4.51001,6.72667-4.37006,11.53999l.00006-.02Z"/><path class="cls-6" d="M674.99,168.31c-10.83331,0-19.91669-3.66667-27.25-11s-11-16.49001-11-27.47c0-10.96,3.66669-20.11333,11-27.46s16.41669-11.01333,27.25-11c11.10663,0,20.12665,4,27.06,12l-6.59003,6.38c-5-6.24-11.8233-9.36-20.46997-9.36-7.59283-.16938-14.92676,2.76276-20.31,8.12-5.52002,5.42-8.28003,12.51666-8.28003,21.29s2.76001,15.87334,8.28003,21.3c5.37732,5.36853,12.71344,8.30876,20.31,8.14,8.85333,0,16.39667-3.56334,22.63-10.69l6.59003,6.58c-3.4472,4.11337-7.77344,7.40079-12.65997,9.62-5.19086,2.3896-10.84583,3.60188-16.56006,3.55Z"/><path class="cls-6" d="M722.10999,166.66h-9.46002v-73.66h9.46002v73.66Z"/><path class="cls-6" d="M737.53999,122.28c4.87335-5.10667,11.07996-7.66334,18.62-7.67,7.53998-.00667,13.7467,2.55,18.62,7.67,4.87335,5.10667,7.3067,11.5,7.29999,19.17999-.00665,7.67999-2.44,14.07332-7.29999,19.17999-4.87329,5.11333-11.08002,7.67-18.62,7.67s-13.74664-2.55667-18.62-7.67c-4.87329-5.10667-7.30664-11.5-7.29999-19.17999s2.44-14.07333,7.29999-19.17999ZM744.58997,154.67999c6.04742,6.38994,16.12994,6.66759,22.5199.62013.21234-.20099.41913-.40778.62012-.62013,3.26001-3.33333,4.89008-7.74001,4.89001-13.22.00006-5.48-1.63-9.88667-4.89001-13.22-6.03137-6.38994-16.10083-6.68062-22.49078-.64925-.2226.21012-.43909.42664-.64923.64925-3.25995,3.33333-4.89001,7.74001-4.89001,13.22s1.63007,9.88667,4.89001,13.22Z"/><path class="cls-6" d="M834.44001,166.66h-9.06v-7h-.39001c-1.61926,2.58125-3.88837,4.69171-6.58002,6.12-2.84216,1.65424-6.07141,2.5271-9.35999,2.53-6.30664,0-11.09003-1.92334-14.34998-5.77-3.26001-3.84668-4.8866-8.98666-4.88-15.42v-30.85999h9.46002v29.31001c0,9.40001,4.14667,14.09666,12.44,14.09,3.76947.07372,7.33917-1.69064,9.57001-4.73,2.4566-3.10779,3.76367-6.96906,3.69995-10.93001v-27.74h9.46997l-.01996,50.4Z"/><path class="cls-6" d="M866.52998,168.31c-6.52002,0-12.14331-2.57333-16.87-7.72-4.72662-5.14667-7.09332-11.52333-7.09998-19.13,0-7.61333,2.3667-13.99,7.09998-19.13,4.73334-5.14,10.35663-7.71333,16.87-7.72,3.59955-.05907,7.15582.79044,10.34003,2.47,2.78986,1.40932,5.15155,3.53971,6.84003,6.17h.40997l-.40997-7v-23.24999h9.46002v73.64999h-9v-7h-.40997c-1.68787,2.63333-4.0495,4.76711-6.84003,6.17999-3.20001,1.68634-6.77338,2.53926-10.39008,2.48001ZM868.06995,159.66c4.32135.06186,8.46155-1.73332,11.37-4.92999,3.12006-3.28667,4.67999-7.70999,4.67999-13.27s-1.55994-9.98334-4.67999-13.27c-5.79272-6.25017-15.55542-6.62099-21.8056-.82826-.3031.28093-.59479.57392-.87439.87827-3.16003,3.33334-4.73669,7.73999-4.72998,13.22.00665,5.48,1.58331,9.88667,4.72998,13.22,2.87933,3.20801,6.99963,5.02223,11.31006,4.98h-.00006Z"/></g></svg>