<?xml version="1.0" encoding="UTF-8"?><svg id="Layer_1" xmlns="http://www.w3.org/2000/svg" viewBox="0 0 441.39448 100"><defs><style>.cls-1{fill:#c51023;}.cls-2{fill:#333;}</style></defs><rect class="cls-1" width="12" height="100"/><rect class="cls-1" x="88" width="12" height="100"/><rect class="cls-1" x="24" y="56" width="52" height="12"/><rect class="cls-1" x="24" y="32" width="52" height="12"/><path class="cls-2" d="M160.85158,68v-15.8594h-14.7383v15.8594h-5.5069V31.6914h5.5069v15.5029h14.7383v-15.5029h5.5078v36.3086h-5.5078Z"/><path class="cls-2" d="M178.49408,68V31.6914h5.50792v36.3086h-5.50792Z"/><path class="cls-2" d="M209.082,68h-4.28322l-11.9336-36.3086h5.7119l8.3633,26.416,8.3633-26.416h5.8135l-12.03518,36.3086Z"/><path class="cls-2" d="M230.03908,68V31.6914h23.2031v4.9473h-17.6953v10.6064h15.0937v4.8955h-15.0937v10.9131h17.6953v4.9463h-23.2031Z"/><path class="cls-2" d="M263.35738,68V31.6914h5.5078v31.3623h17.4903v4.9463h-22.9981Z"/><path class="cls-2" d="M316.86328,64.4297c-2.4981,2.5-5.711,3.8769-9.5869,3.8769s-7.0371-1.3769-9.5362-3.8769c-3.5693-3.5684-3.5185-7.5977-3.5185-14.584s-.0508-11.0146,3.5185-14.584c2.4991-2.499,5.6602-3.876,9.5362-3.876s7.0888,1.377,9.5869,3.876c3.5703,3.5694,3.4678,7.5977,3.4678,14.584s.1025,11.0156-3.4678,14.584ZM312.68158,38.5762c-1.2744-1.377-3.26358-2.2442-5.4052-2.2442s-4.1299.8672-5.4053,2.2442c-1.7852,1.9375-2.1416,3.9775-2.1416,11.2695,0,7.293.3564,9.332,2.1416,11.2695,1.2754,1.377,3.2637,2.2442,5.4053,2.2442s4.1308-.8672,5.4052-2.2442c1.7852-1.9375,2.1426-3.9765,2.1426-11.2695,0-7.292-.3574-9.332-2.1426-11.2695Z"/><path class="cls-2" d="M343.27728,68.3066c-3.7734,0-7.0371-1.3769-9.5351-3.8769-3.5703-3.5684-3.5195-7.5977-3.5195-14.584s-.0508-11.0146,3.5195-14.584c2.498-2.499,5.7617-3.876,9.5351-3.876,6.68072,0,11.6778,3.9268,12.9532,11.168h-5.6094c-.8672-3.6719-3.3145-6.2217-7.3438-6.2217-2.1416,0-4.08.8164-5.3544,2.1934-1.7842,1.9375-2.1924,4.0283-2.1924,11.3203,0,7.293.4082,9.3828,2.1924,11.3203,1.2744,1.377,3.2128,2.1934,5.3544,2.1934,4.0293,0,6.5274-2.5498,7.3946-6.2207h5.5586c-1.2246,7.2402-6.375,11.1679-12.9532,11.1679Z"/><path class="cls-2" d="M366.27338,68V31.6914h5.5079v36.3086h-5.5079Z"/><path class="cls-2" d="M396.74408,36.6387v31.3613h-5.5068v-31.3613h-9.9951v-4.9473h25.498v4.9473h-9.9961Z"/><path class="cls-2" d="M430.53218,53.0586v14.9414h-5.5078v-14.9414l-10.8623-21.3672h6.0176l7.5986,15.9609,7.59872-15.9609h6.01748l-10.8623,21.3672Z"/></svg>