<?xml version="1.0" encoding="UTF-8"?><svg id="Layer_1" xmlns="http://www.w3.org/2000/svg" viewBox="0 0 317.24002 85.65"><defs><style>.cls-1{fill:#ec1d23;}.cls-2{fill:#fff;}.cls-3{fill:#9b1e2d;}</style></defs><path class="cls-2" d="M310.95999,45.96v-.58h2.56v.58h-.94v2.54h-.69v-2.54h-.92999Z"/><path class="cls-2" d="M314.84,45.38l.73001,2.15h.01001l.69-2.15h.97v3.12h-.64001v-2.21h-.01001l-.76001,2.21h-.53l-.76001-2.19h-.01001v2.19h-.64001v-3.12h.95004Z"/><polygon class="cls-2" points="51.98 16.5 53.3 19.47 55.86 21.08 60.93 22.15 57.76 18.6 51.98 16.5"/><polygon class="cls-2" points="74.26 24.99 74.78 28.39 76.14 28.79 77.68 27.55 78.01 25.94 74.26 24.99"/><path class="cls-1" d="M80.97,42.66v41.75999h-12.28v-41.75999c0-.38-.28-.66-.76-.66h-20.6c-.38,0-.57.28-.57.66l.03,41.75999h-12.5v-41.77c0-.38-.28-.66-.57-.66H13.04c-.38,0-.66.28-.66.66v41.76H0V29.60999h67.93c7.18999.01001,13.04,5.86001,13.04,13.05001Z"/><path class="cls-1" d="M120.96,58.1v26.32h-26.86c-4.53,0-8.22-3.69-8.22-8.22v-12.98h27.28v-5.12c0-.24-.18-.42-.42-.42h-26.86v-7.8h26.86c4.53,0,8.22,3.69,8.22,8.22ZM113.16,71.08h-19.48v5.12c0,.24.18.42.42.42h19.06v-5.54Z"/><path class="cls-1" d="M160.74001,76.62v7.8h-26.86c-4.53,0-8.22-3.69-8.22-8.22v-18.1c0-4.53,3.69-8.22,8.22-8.22h26.74001v7.8h-26.74001c-.24001,0-.42.18-.42.42v18.1c0,.24.17999.42.42.42h26.86Z"/><path class="cls-1" d="M201.3,58.1v26.32h-26.86c-4.53,0-8.22-3.69-8.22-8.22v-12.98h27.28v-5.12c0-.24-.17999-.42-.42-.42h-26.86v-7.8h26.86c4.53,0,8.22,3.69,8.22,8.22ZM193.5,71.08h-19.47v5.12c0,.24.17999.42.42.42h19.06v-5.54h-.00999Z"/><path class="cls-1" d="M233.92999,49.88v7.8h-19.17999c-.24001,0-.42.18-.42.42v26.32h-7.8v-26.32c0-4.53,3.69-8.22,8.22-8.22,0,0,19.17999,0,19.17999,0Z"/><path class="cls-1" d="M273.17999,58.1v26.32h-7.79999v-26.32c0-.24-.17999-.42-.42001-.42h-18.64c-.24001,0-.42.18-.42.42v26.32h-7.8v-34.53999h26.86c4.53,0,8.22,3.69,8.22,8.22Z"/><path class="cls-1" d="M312.95999,58.1v12.98h-27.28v5.12c0,.24.17999.42.42001.42h26.85999v7.8h-26.85999c-4.53,0-8.22-3.69-8.22-8.22v-18.1c0-4.53,3.69-8.22,8.22-8.22h18.64001c4.52997,0,8.21997,3.69,8.21997,8.22ZM305.16,63.22v-5.12c0-.24-.17999-.42-.42001-.42h-18.63998c-.23999,0-.42001.18-.42001.42v5.12h19.48001Z"/><path class="cls-2" d="M80.97,41.46v41.76h-12.28v-41.76c0-.38-.28-.66-.76-.66h-20.6c-.38,0-.57.28-.57.66l.03,41.76h-12.5v-41.77c0-.38-.28-.66-.57-.66H13.04c-.38,0-.66.28-.66.66v41.76H0V28.41h67.93c7.18999.01,13.04,5.86,13.04,13.05Z"/><path class="cls-2" d="M120.96,56.9v26.32h-26.86c-4.53,0-8.22-3.69-8.22-8.22v-12.98h27.28v-5.12c0-.24-.18-.42-.42-.42h-26.86v-7.8h26.86c4.53,0,8.22,3.68999,8.22,8.22ZM113.16,69.88h-19.48v5.12c0,.24.18.42.42.42h19.06v-5.54Z"/><path class="cls-2" d="M160.74001,75.42v7.8h-26.86c-4.53,0-8.22-3.69-8.22-8.22v-18.1c0-4.53,3.69-8.22,8.22-8.22h26.74001v7.8h-26.74001c-.24001,0-.42.18-.42.42v18.1c0,.24.17999.42.42.42h26.86Z"/><path class="cls-2" d="M201.3,56.9v26.32h-26.86c-4.53,0-8.22-3.69-8.22-8.22v-12.98h27.28v-5.12c0-.24-.17999-.42-.42-.42h-26.86v-7.8h26.86c4.53,0,8.22,3.68999,8.22,8.22ZM193.5,69.88h-19.47v5.12c0,.24.17999.42.42.42h19.06v-5.54h-.00999Z"/><path class="cls-2" d="M233.92999,48.68v7.8h-19.17999c-.24001,0-.42.18-.42.42v26.32h-7.8v-26.32c0-4.53,3.69-8.22,8.22-8.22h19.17999Z"/><path class="cls-2" d="M273.17999,56.9v26.32h-7.79999v-26.32c0-.24-.17999-.42-.42001-.42h-18.64c-.24001,0-.42.18-.42.42v26.32h-7.8v-34.54h26.86c4.53,0,8.22,3.69,8.22,8.22Z"/><path class="cls-2" d="M312.95999,56.9v12.98h-27.28v5.12c0,.24.17999.42.42001.42h26.85999v7.8h-26.85999c-4.53,0-8.22-3.69-8.22-8.22v-18.1c0-4.53,3.69-8.22,8.22-8.22h18.64001c4.52997,0,8.21997,3.68999,8.21997,8.22ZM305.16,62.02v-5.12c0-.24-.17999-.42-.42001-.42h-18.63998c-.23999,0-.42001.18-.42001.42v5.12h19.48001Z"/><path class="cls-1" d="M46.78,60.21l.01,12.04s7.66,3.04,10.28,13.4c0,.01,3.33-15.7-10.29-25.44Z"/><path class="cls-2" d="M67.93,28.42H14.11c.84,1.49-.69,4.32-5.32,7.2C.62,40.7.41,50.02.41,50.02c6.48-9.33,8.54,2.72,11.97,9v-17.56c0-.38.28-.66.66-.66h19.22c.17,0-.01,0-.01,0,1.47-6.69,9.31-6.8,9.31-6.8.63-3.35,4.19-3.35,4.19-3.35-2.09.31-2.93,3.67-2.83,5.66.08,1.43,1.67,2.59,4.19,4.53l.22-.04h6.55c-1.85-2.95-1.12-6.59-1.12-6.59,1.36.1,6.28-.73,7.96-1.26,1.68-.52,3.35-.94,5.45.31,2.09,1.26.23,5.45.23,5.45l4.69-3.14c5.34-3.87,4.93,3.77,4.93,3.77,1.53-1.3,2.75-2.57,3.54-3.77-2.16-4.24001-6.56001-7.15-11.63-7.15Z"/><path class="cls-1" d="M.6,48.38c6.91-9.95,8.8,4.4,12.67,10.16,3.87,5.76,9.01,6.6,11,7.33,1.99.73,10.03,2.1,10.03,2.1v-20.11c-3.69-2.13-4.87-6.74-2.34-10.56,3.15-4.76,9.8-4.94,9.8-4.94.63-3.35,4.19-3.35,4.19-3.35-2.09.31-2.93,3.67-2.83,5.66s3.14,3.46,7.54,7.23,4.5,14.35,4.5,14.35c1.89-1.89,2.93-1.26,7.44-2.93,4.5-1.68,4.19-8.17,4.19-8.17-4.5,5.45-6.49,1.57-6.49,1.57,0,0-3.35-3.87-5.76-6.91-2.41-3.04-1.57-7.23-1.57-7.23,1.36.1,6.28-.73,7.96-1.26s3.35-.94,5.45.31c2.09,1.26.52,5.45.52,5.45l4.4-3.14c5.34-3.87,5.03,3.77,5.03,3.77,10.47-8.9,1.57-15.92,1.57-15.92-2.83.94-4.82-.94-4.82-.94-5.76-3.04-6.91-2.62-6.91-2.62-4.4-.42-4.82-1.78-4.82-1.78-3.25-3.87-7.65-3.98-7.65-3.98C39.34,8.9,32.64,0,32.64,0c-2.41,9.11,4.08,13.3,4.08,13.3-22.72,3.87-28.16,12.98-28.16,12.98,7.12-2.3,8.59,2.62.42,7.7S.6,48.38.6,48.38ZM74.85,25.44s4.4.73,1.89,2.51c-2.52,1.79-1.89-2.51-1.89-2.51ZM52.44,16.86s4.4,1.47,5.13,2.09c.73.63,2.72,2.72,2.72,2.72,0,0-3.87-.73-4.71-1.26-.84-.52-2.94-1.67-3.14-3.55Z"/><path class="cls-3" d="M31.92,67.56c.8.14,2.38.41,2.38.41v-20.11s-2.64-2.68-3.15-3.55c0,0,1.87,3.99,1.79,12.69-.09,10.7-1.02,10.56-1.02,10.56Z"/><path class="cls-3" d="M47.36,60.63s.4-.06.24,5.6c-.15,5.07-.8,6.02-.8,6.02l-.01-12.04.57.42001Z"/></svg>