<svg xmlns="http://www.w3.org/2000/svg" width="445" height="70" viewBox="0 0 445 70" fill="none">
    <path d="M58.4127 1.19058L57.1491 1.92337V3.4395V4.94718L57.9494 5.41886C58.3875 5.67999 58.9601 6.00846 59.2127 6.15166L59.6845 6.42118L60.9395 5.6884L62.2029 4.9556V3.4395V1.9318L61.4028 1.46012C60.9648 1.19901 60.3921 0.870514 60.1393 0.727326L59.6677 0.457794L58.4127 1.19058Z" fill="#336EFF"/>
    <path d="M14.6306 10.4978L0 18.9376V35.8254V52.7132L14.5884 61.1278C22.6154 65.7602 29.219 69.5422 29.2694 69.5422C29.3201 69.5422 35.9237 65.7602 43.9506 61.1278L58.539 52.7132V47.4658V42.2268L58.3538 42.3446C57.9157 42.6227 43.4704 50.9444 43.083 51.1381C42.8556 51.2562 39.655 53.0924 35.9741 55.2149C32.2933 57.3374 29.2359 59.064 29.1853 59.0557C29.1264 59.0388 24.5863 56.4363 19.0947 53.2606L9.09671 47.491V35.8254V24.1597L19.061 18.4153C24.5359 15.2567 29.3031 12.5277 29.6486 12.3424C30.9456 11.6518 38.2566 7.38977 38.2566 7.31399C38.2566 7.26344 33.8516 4.68604 29.7327 2.32764L29.2694 2.05811L14.6306 10.4978Z" fill="#336EFF"/>
    <path d="M43.5885 4.3491L41.6512 5.46089L41.626 7.74349L41.609 10.0177L43.4789 11.1042C44.5148 11.7107 45.4329 12.1992 45.5258 12.1992C45.6184 12.1992 46.5365 11.7023 47.5724 11.1042L49.4423 10.0177L49.4256 7.75193L49.4003 5.48618L47.9094 4.61861C47.0839 4.13852 46.2165 3.63314 45.9721 3.49837L45.5258 3.23727L43.5885 4.3491Z" fill="#336EFF"/>
    <path d="M55.3384 9.81566C54.2938 10.4221 53.0726 11.1296 52.6261 11.3907L51.8006 11.8624V14.2208L51.7924 16.5792L47.4041 19.1061C44.995 20.4958 42.9651 21.6414 42.8977 21.6582C42.8388 21.6751 41.7101 21.0686 40.4046 20.3106C39.0991 19.5609 37.9536 18.9376 37.861 18.9376C37.7681 18.9376 36.2774 19.7547 34.559 20.7485L31.4173 22.5595V26.2655V29.9715L34.559 31.7825C36.2774 32.7765 37.7681 33.5935 37.861 33.5935C37.9536 33.5935 39.4443 32.7765 41.1626 31.7825L44.3043 29.9715V26.8973L44.3128 23.8229L46.9408 22.3152C48.3896 21.4813 50.3521 20.3527 51.3039 19.7968L53.0472 18.7944L55.094 19.9905C56.2565 20.6559 57.2083 21.1613 57.2924 21.136C57.3683 21.1191 58.6149 20.4285 60.0467 19.603L62.6662 18.0953V14.9705V11.8456L60.2067 10.4221C58.8508 9.64719 57.6209 8.93968 57.4861 8.85545L57.2335 8.71225L55.3384 9.81566Z" fill="#336EFF"/>
    <path d="M61.5544 22.2561L59.7183 23.3174V25.423V27.5288L61.546 28.5817C62.5569 29.1628 63.4076 29.6261 63.4495 29.6094C63.4917 29.6009 64.3172 29.1291 65.2857 28.565L67.0463 27.5458V25.423V23.3006L65.4712 22.3825C64.595 21.8855 63.778 21.4138 63.635 21.3296L63.3821 21.1949L61.5544 22.2561Z" fill="#336EFF"/>
    <path d="M50.8911 31.4623L48.4316 32.8944L48.4486 35.8001L48.4738 38.6977L50.8743 40.0958C52.1966 40.8624 53.3338 41.5109 53.4095 41.5279C53.4938 41.5531 54.6141 40.9465 56.0207 40.138L58.4969 38.6977L58.5221 35.8001L58.5391 32.8944L56.0544 31.4541C54.6897 30.6623 53.519 30.0138 53.4601 30.0138C53.4095 30.022 52.2472 30.6708 50.8911 31.4623Z" fill="#336EFF"/>
    <path d="M106.501 63.1662C102.694 63.1662 99.7884 62.2917 97.7823 60.5426C95.7764 58.742 94.7732 56.1439 94.7732 52.7486V29.6753H86.4408V23.1933H94.7732V13.1615L102.412 11.3094V23.1933H113.985V29.6753H102.412V50.9738C102.412 52.9801 102.849 54.4204 103.723 55.2951C104.649 56.1182 106.141 56.5298 108.198 56.5298C109.278 56.5298 110.23 56.4527 111.053 56.2983C111.927 56.1439 112.853 55.9124 113.83 55.6037V62.0859C112.801 62.4459 111.593 62.7032 110.204 62.8576C108.867 63.0634 107.632 63.1662 106.501 63.1662Z" fill="#022762"/>
    <path d="M137.891 63.1662C134.034 63.1662 130.536 62.266 127.399 60.4652C124.312 58.6647 121.844 56.2212 119.992 53.1343C118.192 50.0477 117.291 46.6007 117.291 42.7938C117.291 39.0383 118.166 35.643 119.915 32.6078C121.663 29.5211 124.03 27.0774 127.013 25.2768C129.996 23.4248 133.314 22.4988 136.966 22.4988C140.618 22.4988 143.858 23.4248 146.687 25.2768C149.516 27.0774 151.753 29.5468 153.399 32.6849C155.097 35.7718 155.945 39.2698 155.945 43.1798V45.3403H125.007C125.418 47.5011 126.216 49.4304 127.399 51.1279C128.633 52.8257 130.176 54.1632 132.028 55.1407C133.931 56.1182 135.988 56.6069 138.2 56.6069C140.103 56.6069 141.929 56.324 143.678 55.7582C145.478 55.1407 146.97 54.2662 148.153 53.1343L153.091 57.9961C150.776 59.7452 148.384 61.057 145.915 61.9315C143.498 62.7548 140.823 63.1662 137.891 63.1662ZM125.084 39.553H148.307C147.999 37.495 147.278 35.6944 146.147 34.1511C145.067 32.5564 143.704 31.3217 142.058 30.447C140.463 29.5211 138.714 29.0581 136.811 29.0581C134.857 29.0581 133.057 29.4954 131.41 30.3699C129.765 31.2446 128.376 32.479 127.244 34.074C126.164 35.6173 125.444 37.4436 125.084 39.553Z" fill="#022762"/>
    <path d="M163.294 62.4716V23.1933H171.009V28.2093C172.244 26.3571 173.761 24.9166 175.561 23.8878C177.413 22.8075 179.496 22.2673 181.811 22.2673C183.405 22.3187 184.717 22.5502 185.745 22.9618V29.9068C185.025 29.5982 184.279 29.3924 183.508 29.2896C182.736 29.1352 181.965 29.0581 181.193 29.0581C178.93 29.0581 176.924 29.6753 175.175 30.91C173.426 32.0933 172.038 33.8425 171.009 36.1575V62.4716H163.294Z" fill="#022762"/>
    <path d="M202.765 63.1662C199.936 63.1662 197.441 62.6775 195.281 61.7C193.12 60.6711 191.423 59.2565 190.189 57.4559C188.954 55.6551 188.337 53.5717 188.337 51.2053C188.337 47.5012 189.751 44.5944 192.58 42.4852C195.409 40.3247 199.293 39.2441 204.231 39.2441C208.088 39.2441 211.663 39.9901 214.955 41.482V37.3151C214.955 34.4854 214.132 32.3763 212.486 30.9874C210.891 29.5982 208.525 28.9037 205.388 28.9037C203.588 28.9037 201.71 29.1866 199.755 29.7527C197.801 30.2671 195.615 31.0902 193.197 32.2218L190.343 26.4342C193.326 25.0453 196.104 24.0421 198.675 23.4248C201.247 22.756 203.845 22.4216 206.468 22.4216C211.56 22.4216 215.495 23.6306 218.272 26.0485C221.101 28.4665 222.516 31.9132 222.516 36.389V62.4716H214.955V59.0764C213.206 60.4653 211.329 61.4941 209.323 62.163C207.317 62.8319 205.131 63.1662 202.765 63.1662ZM195.744 51.0509C195.744 52.9544 196.541 54.4978 198.135 55.6808C199.781 56.8642 201.916 57.4559 204.539 57.4559C206.596 57.4559 208.474 57.1471 210.171 56.5298C211.92 55.9124 213.515 54.9608 214.955 53.6747V47.0381C213.463 46.1637 211.894 45.5462 210.248 45.1862C208.654 44.7745 206.854 44.5687 204.848 44.5687C202.019 44.5687 199.781 45.1605 198.135 46.3435C196.541 47.4755 195.744 49.0445 195.744 51.0509Z" fill="#022762"/>
    <path d="M244.908 63.2433C241.513 63.2433 238.324 62.7548 235.341 61.7773C232.409 60.7484 229.863 59.3079 227.703 57.4559L231.946 52.3627C233.952 53.9576 236.01 55.1923 238.118 56.0668C240.279 56.8899 242.464 57.3015 244.675 57.3015C247.454 57.3015 249.718 56.7614 251.466 55.6808C253.214 54.6006 254.089 53.186 254.089 51.4368C254.089 49.9963 253.575 48.8644 252.547 48.0413C251.517 47.2182 249.924 46.6524 247.761 46.3435L240.664 45.3404C236.755 44.7745 233.824 43.5655 231.869 41.7136C229.914 39.8616 228.937 37.3922 228.937 34.3055C228.937 31.9389 229.58 29.8811 230.866 28.132C232.152 26.3314 233.952 24.9425 236.267 23.965C238.581 22.9361 241.282 22.4216 244.367 22.4216C247.197 22.4216 249.924 22.8332 252.547 23.6563C255.17 24.4794 257.689 25.7656 260.106 27.5148L256.171 32.6078C254.011 31.1672 251.902 30.1127 249.846 29.4438C247.839 28.7752 245.807 28.4406 243.752 28.4406C241.385 28.4406 239.481 28.955 238.041 29.9842C236.601 30.9614 235.881 32.2478 235.881 33.8425C235.881 35.283 236.37 36.4147 237.347 37.2378C238.376 38.0094 240.047 38.5498 242.362 38.8584L249.461 39.8616C253.369 40.4275 256.327 41.6365 258.332 43.4884C260.339 45.289 261.343 47.7327 261.343 50.8193C261.343 53.186 260.623 55.3208 259.182 57.2244C257.74 59.0764 255.786 60.5426 253.318 61.6229C250.848 62.7032 248.045 63.2433 244.908 63.2433Z" fill="#022762"/>
    <path d="M274.601 62.4716L263.643 23.1933H271.127L278.766 52.054L287.717 23.1933H294.352L303.3 52.054L310.939 23.1933H318.193L307.16 62.4716H299.751L290.956 33.688L282.085 62.4716H274.601Z" fill="#022762"/>
    <path d="M323.704 62.4716V23.1933H331.42V62.4716H323.704ZM327.563 16.8655C326.276 16.8655 325.17 16.4025 324.244 15.4765C323.318 14.4991 322.855 13.3673 322.855 12.0811C322.855 10.7436 323.318 9.6375 324.244 8.76292C325.17 7.8369 326.276 7.3739 327.563 7.3739C328.899 7.3739 330.031 7.8369 330.957 8.76292C331.883 9.6375 332.346 10.7436 332.346 12.0811C332.346 13.3673 331.883 14.4991 330.957 15.4765C330.031 16.4025 328.899 16.8655 327.563 16.8655Z" fill="#022762"/>
    <path d="M357.327 63.1662C353.52 63.1662 350.614 62.2917 348.606 60.5426C346.601 58.742 345.598 56.1439 345.598 52.7486V29.6753H337.265V23.1933H345.598V13.1615L353.237 11.3094V23.1933H364.81V29.6753H353.237V50.9738C353.237 52.9801 353.673 54.4204 354.548 55.2951C355.474 56.1182 356.965 56.5298 359.024 56.5298C360.102 56.5298 361.055 56.4527 361.877 56.2983C362.752 56.1439 363.678 55.9124 364.655 55.6037V62.0859C363.627 62.4459 362.418 62.7032 361.028 62.8576C359.693 63.0634 358.456 63.1662 357.327 63.1662Z" fill="#022762"/>
    <path d="M388.331 63.1662C384.576 63.1662 381.155 62.2661 378.069 60.4653C374.983 58.6647 372.539 56.2212 370.741 53.1343C368.99 50.0477 368.117 46.6008 368.117 42.7938C368.117 38.9869 369.017 35.566 370.818 32.5307C372.617 29.4438 375.034 27.0003 378.069 25.1998C381.155 23.3476 384.576 22.4216 388.331 22.4216C391.313 22.4216 394.169 22.9875 396.894 24.1193C399.672 25.2512 402.065 26.8459 404.07 28.9037L399.287 34.2282C397.796 32.5821 396.123 31.3474 394.271 30.5243C392.419 29.701 390.491 29.2896 388.484 29.2896C386.118 29.2896 383.958 29.8811 382.004 31.0645C380.101 32.2478 378.583 33.8682 377.451 35.926C376.321 37.9837 375.754 40.273 375.754 42.7938C375.754 45.3147 376.321 47.604 377.451 49.662C378.583 51.7197 380.128 53.3659 382.082 54.6006C384.036 55.7839 386.222 56.3754 388.639 56.3754C390.644 56.3754 392.523 55.9897 394.271 55.218C396.021 54.3947 397.668 53.2117 399.209 51.6683L403.915 56.6069C401.859 58.7161 399.466 60.3368 396.741 61.4684C394.065 62.6004 391.262 63.1662 388.331 63.1662Z" fill="#022762"/>
    <path d="M410.126 62.4716V8.45427L417.84 6.75656V27.2062C420.876 24.0164 424.81 22.4216 429.644 22.4216C432.68 22.4216 435.329 23.0647 437.591 24.3508C439.906 25.6369 441.708 27.4374 442.993 29.7527C444.331 32.0677 445 34.7427 445 37.7779V62.4716H437.283V39.09C437.283 36.0031 436.408 33.5853 434.66 31.8361C432.912 30.0356 430.52 29.1352 427.484 29.1352C425.428 29.1352 423.576 29.5725 421.93 30.447C420.284 31.3217 418.922 32.5821 417.84 34.2282V62.4716H410.126Z" fill="#022762"/>
</svg>