<?xml version="1.0" encoding="UTF-8"?><svg id="Layer_1" xmlns="http://www.w3.org/2000/svg" viewBox="0 0 445 69.0844"><defs><style>.cls-1{fill:#336eff;}.cls-2{fill:#fff;}</style></defs><path class="cls-1" d="M58.4127.73279l-1.2636.73279v3.02381l.8003.47168c.4381.26113,1.0107.5896,1.2633.7328l.4718.26952,1.255-.73278,1.2634-.7328V1.47401l-.8001-.47168c-.438-.26111-1.0107-.58961-1.2635-.73279l-.4716-.26953-1.255.73279Z"/><path class="cls-1" d="M14.6306,10.04001L0,18.47981v33.7756l14.5884,8.4146c8.027,4.6324,14.6306,8.4144,14.681,8.4144.0507,0,6.6543-3.782,14.6812-8.4144l14.5884-8.4146v-10.4864l-.1852.1178c-.4381.2781-14.8834,8.5998-15.2708,8.7935-.2274.1181-3.428,1.9543-7.1089,4.0768-3.6808,2.1225-6.7382,3.8491-6.7888,3.8408-.0589-.0169-4.599-2.6194-10.0906-5.7951l-9.99799-5.7696v-23.3313l9.96429-5.7444c5.4749-3.1586,10.2421-5.8876,10.5876-6.0729,1.297-.6906,8.608-4.95263,8.608-5.02841,0-.05055-4.405-2.62795-8.5239-4.98635l-.4633-.26953-14.6388,8.43969Z"/><path class="cls-1" d="M43.5885,3.89131l-1.9373,1.11179-.0252,2.2826-.017,2.27421,1.8699,1.0865c1.0359.6065,1.954,1.095,2.0469,1.095.0926,0,1.0107-.4969,2.0466-1.095l1.8699-1.0865-.0167-2.26577-.0253-2.26575-1.4909-.86757c-.8255-.48009-1.6929-.98547-1.9373-1.12024l-.4463-.2611-1.9373,1.11183Z"/><path class="cls-1" d="M55.3384,9.35787c-1.0446.60644-2.2658,1.31394-2.7123,1.57504l-.8255.4717v2.3584l-.0082,2.3584-4.3883,2.5269c-2.4091,1.3897-4.439,2.5353-4.5064,2.5521-.0589.0169-1.1876-.5896-2.4931-1.3476-1.3055-.7497-2.451-1.373-2.5436-1.373-.0929,0-1.5836.8171-3.302,1.8109l-3.1417,1.811v7.412l3.1417,1.811c1.7184.994,3.2091,1.811,3.302,1.811.0926,0,1.5833-.817,3.3016-1.811l3.1417-1.811v-3.0742l.0085-3.0744,2.628-1.5077c1.4488-.8339,3.4113-1.9625,4.3631-2.5184l1.7433-1.0024,2.0468,1.1961c1.1625.6654,2.1143,1.1708,2.1984,1.1455.0759-.0169,1.3225-.7075,2.7543-1.533l2.6195-1.5077v-6.2497l-2.4595-1.4235c-1.3559-.77491-2.5858-1.48242-2.7206-1.56665l-.2526-.1432-1.8951,1.10341Z"/><path class="cls-1" d="M61.5544,21.79831l-1.8361,1.0613v4.2114l1.8277,1.0529c1.0109.5811,1.8616,1.0444,1.9035,1.0277.0422-.0085.8677-.4803,1.8362-1.0444l1.7606-1.0192v-4.2452l-1.5751-.9181c-.8762-.497-1.6932-.9687-1.8362-1.0529l-.2529-.1347-1.8277,1.0612Z"/><path class="cls-1" d="M50.8911,31.00451l-2.4595,1.4321.017,2.9057.0252,2.8976,2.4005,1.3981c1.3223.7666,2.4595,1.4151,2.5352,1.4321.0843.0252,1.2046-.5814,2.6112-1.3899l2.4762-1.4403.0252-2.8976.017-2.9057-2.4847-1.4403c-1.3647-.7918-2.5354-1.4403-2.5943-1.4403-.0506.0082-1.2129.657-2.569,1.4485Z"/><path class="cls-2" d="M106.501,62.7084c-3.807,0-6.7126-.8745-8.7187-2.6236-2.00591-1.8006-3.0091-4.3987-3.0091-7.794v-23.0733h-8.3324v-6.482h8.3324v-10.0318l7.6388-1.8521v11.8839h11.573v6.482h-11.573v21.2985c0,2.0063.437,3.4466,1.311,4.3213.926.8231,2.418,1.2347,4.475,1.2347,1.08,0,2.03201-.0771,2.855-.2315.874-.1544,1.8-.3859,2.777-.6946v6.4822c-1.029.36-2.237.6173-3.626.7717-1.33701.2058-2.572.3086-3.703.3086Z"/><path class="cls-2" d="M137.89101,62.7084c-3.85701,0-7.35501-.9002-10.492-2.701-3.08701-1.8005-5.555-4.244-7.40701-7.3309-1.8-3.0866-2.701-6.5336-2.701-10.3405,0-3.7555.875-7.1508,2.624-10.186,1.748-3.0867,4.115-5.5304,7.098-7.331,2.983-1.852,6.30099-2.778,9.953-2.778s6.892.926,9.72099,2.778c2.82901,1.8006,5.06601,4.27,6.71201,7.4081,1.698,3.0869,2.54601,6.5849,2.54601,10.4949v2.1605h-30.938c.411,2.1608,1.209,4.0901,2.392,5.7876,1.23399,1.6978,2.77699,3.0353,4.629,4.0128,1.903.9775,3.96001,1.4662,6.172,1.4662,1.903,0,3.729-.2829,5.478-.8487,1.8-.6175,3.29201-1.492,4.47501-2.6239l4.938,4.8618c-2.315,1.7491-4.707,3.0609-7.17601,3.9354-2.41699.8233-5.092,1.2347-8.02399,1.2347ZM125.084,39.09521h23.22301c-.30801-2.058-1.02901-3.8586-2.16-5.4019-1.08-1.5947-2.44301-2.8294-4.089-3.7041-1.595-.9259-3.34399-1.3889-5.24699-1.3889-1.95401,0-3.754.4373-5.401,1.3118-1.645.8747-3.034,2.1091-4.166,3.7041-1.08,1.5433-1.8,3.3696-2.16,5.479Z"/><path class="cls-2" d="M163.29401,62.01381V22.73551h7.715v5.016c1.235-1.8522,2.752-3.2927,4.552-4.3215,1.85199-1.0803,3.935-1.6205,6.25-1.6205,1.59399.0514,2.90599.2829,3.93399.6945v6.945c-.72-.3086-1.46599-.5144-2.237-.6172-.772-.1544-1.543-.2315-2.315-.2315-2.263,0-4.269.6172-6.01799,1.8519-1.74901,1.1833-3.13701,2.9325-4.166,5.2475v26.3141h-7.715Z"/><path class="cls-2" d="M202.765,62.7084c-2.82899,0-5.32401-.4887-7.48399-1.4662-2.16101-1.0289-3.858-2.4435-5.09201-4.2441-1.235-1.8008-1.85199-3.8842-1.85199-6.2506,0-3.7041,1.414-6.6109,4.243-8.7201,2.82899-2.1605,6.713-3.2411,11.651-3.2411,3.85699,0,7.43199.746,10.724,2.2379v-4.1669c0-2.8297-.823-4.9388-2.46901-6.3277-1.59499-1.3892-3.961-2.0837-7.09799-2.0837-1.8,0-3.67799.2829-5.633.849-1.95401.5144-4.14,1.3375-6.558,2.4691l-2.854-5.7876c2.983-1.3889,5.761-2.3921,8.332-3.0094,2.57199-.6688,5.17-1.0032,7.793-1.0032,5.092,0,9.02699,1.209,11.804,3.6269,2.82899,2.418,4.244,5.8647,4.244,10.3405v26.0826h-7.561v-3.3952c-1.74901,1.3889-3.62601,2.4177-5.632,3.0866-2.006.6689-4.192,1.0032-6.558,1.0032ZM195.744,50.59311c0,1.9035.797,3.4469,2.39099,4.6299,1.64601,1.1834,3.78101,1.7751,6.40401,1.7751,2.05699,0,3.935-.3088,5.632-.9261,1.74899-.6174,3.34399-1.569,4.784-2.8551v-6.6366c-1.492-.8744-3.061-1.4919-4.707-1.8519-1.59399-.4117-3.394-.6175-5.39999-.6175-2.82901,0-5.067.5918-6.71301,1.7748-1.59399,1.132-2.39099,2.701-2.39099,4.7074Z"/><path class="cls-2" d="M244.908,62.78551c-3.395,0-6.584-.4885-9.567-1.466-2.93201-1.0289-5.478-2.4694-7.638-4.3214l4.243-5.0932c2.006,1.5949,4.064,2.8296,6.172,3.7041,2.16101.8231,4.34601,1.2347,6.55701,1.2347,2.77899,0,5.043-.5401,6.791-1.6207,1.748-1.0802,2.623-2.4948,2.623-4.244,0-1.4405-.51401-2.5724-1.54201-3.3955-1.03-.8231-2.623-1.3889-4.786-1.6978l-7.097-1.0031c-3.909-.5659-6.84-1.7749-8.795-3.6268-1.955-1.852-2.93201-4.3214-2.93201-7.4081,0-2.3666.64301-4.4244,1.929-6.1735,1.286-1.8006,3.086-3.1895,5.401-4.167,2.314-1.0289,5.015-1.5434,8.10001-1.5434,2.83,0,5.55699.4116,8.17999,1.2347,2.623.8231,5.142,2.1093,7.55899,3.8585l-3.935,5.093c-2.15999-1.4406-4.269-2.4951-6.325-3.164-2.00699-.6686-4.03899-1.0032-6.09399-1.0032-2.367,0-4.271.5144-5.711,1.5436-1.44.9772-2.16,2.2636-2.16,3.8583,0,1.4405.489,2.5722,1.466,3.3953,1.02901.7716,2.7,1.312,5.015,1.6206l7.099,1.0032c3.908.5659,6.866,1.7749,8.871,3.6268,2.00699,1.8006,3.01099,4.2443,3.01099,7.3309,0,2.3667-.72,4.5015-2.16098,6.4051-1.44202,1.852-3.39601,3.3182-5.86401,4.3985-2.46999,1.0803-5.27299,1.6204-8.40999,1.6204Z"/><path class="cls-2" d="M274.60101,62.01381l-10.95801-39.2783h7.48401l7.63898,28.8607,8.95102-28.8607h6.63498l8.948,28.8607,7.63901-28.8607h7.254l-11.03299,39.2783h-7.409l-8.79501-28.7836-8.871,28.7836h-7.48398Z"/><path class="cls-2" d="M323.70401,62.01381V22.73551h7.716v39.2783h-7.716ZM327.56299,16.40771c-1.28699,0-2.39297-.463-3.319-1.389-.92599-.9774-1.38898-2.1092-1.38898-3.3954,0-1.3375.46298-2.4436,1.38898-3.31818.92603-.92602,2.03201-1.38902,3.319-1.38902,1.336,0,2.46802.463,3.39401,1.38902.92599.87458,1.38901,1.98068,1.38901,3.31818,0,1.2862-.46301,2.418-1.38901,3.3954-.92599.926-2.05801,1.389-3.39401,1.389Z"/><path class="cls-2" d="M357.327,62.7084c-3.80701,0-6.71298-.8745-8.72101-2.6236-2.00497-1.8006-3.008-4.3987-3.008-7.794v-23.0733h-8.33298v-6.482h8.33298v-10.0318l7.63901-1.8521v11.8839h11.573v6.482h-11.573v21.2985c0,2.0063.436,3.4466,1.311,4.3213.92599.8231,2.41699,1.2347,4.47598,1.2347,1.078,0,2.03101-.0771,2.85303-.2315.875-.1544,1.80099-.3859,2.77798-.6946v6.4822c-1.02798.36-2.237.6173-3.62698.7717-1.33502.2058-2.57202.3086-3.70102.3086Z"/><path class="cls-2" d="M388.33099,62.7084c-3.755,0-7.17599-.9001-10.26199-2.7009-3.086-1.8006-5.53-4.2441-7.328-7.331-1.75101-3.0866-2.62399-6.5335-2.62399-10.3405s.89999-7.2278,2.70099-10.2631c1.79901-3.0869,4.216-5.5304,7.25101-7.3309,3.086-1.8522,6.50699-2.7782,10.26199-2.7782,2.98199,0,5.83801.5659,8.56302,1.6977,2.77798,1.1319,5.17099,2.7266,7.17599,4.7844l-4.78302,5.3245c-1.491-1.6461-3.164-2.8808-5.01599-3.7039-1.85199-.8233-3.78-1.2347-5.78699-1.2347-2.366,0-4.526.5915-6.48001,1.7749-1.90298,1.1833-3.42099,2.8037-4.55301,4.8615-1.12997,2.0577-1.69699,4.347-1.69699,6.8678s.56702,4.8102,1.69699,6.8682c1.13202,2.0577,2.677,3.7039,4.63101,4.9386,1.95401,1.1833,4.13998,1.7748,6.55701,1.7748,2.005,0,3.884-.3857,5.63199-1.1574,1.75-.8233,3.397-2.0063,4.93802-3.5497l4.70599,4.9386c-2.056,2.1092-4.44901,3.7299-7.17401,4.8615-2.67599,1.132-5.479,1.6978-8.41,1.6978Z"/><path class="cls-2" d="M410.12601,62.01381V7.99648l7.71399-1.69771v20.44964c3.03601-3.1898,6.97-4.7846,11.80402-4.7846,3.03598,0,5.685.6431,7.94699,1.9292,2.315,1.2861,4.117,3.0866,5.40201,5.4019,1.33798,2.315,2.00699,4.99,2.00699,8.0252v24.6937h-7.71701v-23.3816c0-3.0869-.875-5.5047-2.62299-7.2539-1.74802-1.8005-4.14001-2.7009-7.17599-2.7009-2.056,0-3.90802.4373-5.55402,1.3118-1.646.8747-3.008,2.1351-4.09,3.7812v28.2434h-7.71399Z"/></svg>