<svg width="249" height="100" viewBox="0 0 249 100" fill="none" xmlns="http://www.w3.org/2000/svg">
<path d="M0.0300293 0H50.03V100H0.0300293V0Z" fill="#154273"/>
<path d="M25.9401 77.36H25.0701V74.95H25.9401V77.36ZM29.8601 66.72H28.9901V64.31H29.8601V66.72ZM13.7501 62.56C13.6801 62.56 13.2301 62.56 13.2301 62.65C13.2301 62.74 13.4401 62.7 13.7501 62.75C14.4501 62.87 14.7201 63.22 15.2101 63.22C15.6501 63.22 16.1101 62.92 15.9301 62.28C15.9001 62.17 15.8401 62.2 15.8201 62.27C15.7501 62.56 15.4001 62.72 15.0301 62.72C14.5701 62.72 14.4701 62.56 13.7501 62.56V62.56ZM8.95006 64.97C9.03006 65.08 9.85006 66.14 8.59006 66.55C8.53006 66.57 8.52007 66.62 8.60007 66.66C9.53007 67.05 9.98006 66.33 9.98006 66.33C10.4501 67.4 9.73006 68 9.73006 68C9.83006 68.19 10.2801 68.52 10.9501 68.67C11.2101 68.53 11.5701 68.27 11.7201 67.87C11.7201 67.87 11.9001 68.34 11.7401 68.79C13.6401 68.96 14.3101 67.44 15.7801 67.72C15.8201 67.73 15.8401 67.7 15.8401 67.66C15.8401 66.72 15.2701 65.01 13.4501 64.66C11.6401 64.31 12.1301 63.57 12.1301 63.57C12.8901 63.54 13.3301 63.87 13.3301 63.87C13.4701 63.64 13.2701 63.4 13.2701 63.4C13.3401 63.31 13.3801 63 13.3801 63C12.5201 63 12.3001 62.81 12.3001 62.81C12.1701 62.3 12.5201 61.58 13.8001 62.35C14.1201 62.07 14.0901 61.63 14.0901 61.63C14.1901 61.58 14.2501 61.43 14.2501 61.37C14.2501 61.16 13.2301 60.59 12.9701 60.52C12.9101 60.21 12.5101 59.77 11.3101 59.93C10.7401 60 10.3301 59.85 10.5201 59.52C10.5501 59.46 10.4501 59.45 10.4001 59.51C10.2701 59.64 10.0901 60.01 10.5801 60.26C11.1301 60.54 11.1601 61.09 11.1701 61.17C11.1801 61.29 11.0401 61.3 11.0101 61.18C10.7601 60.25 9.48006 60.05 8.73006 60.54C8.77006 61.04 9.31007 61.37 9.60007 61.37C9.77007 61.37 10.0001 61.2 10.0001 60.97C10.0001 60.86 10.0601 60.87 10.0901 60.96C10.2101 61.29 9.72006 61.98 9.00006 61.56C8.26006 62.3 8.56007 63.22 8.63007 63.55C8.76007 64.15 8.47006 64.74 7.92006 64.47C7.89006 64.46 7.86006 64.45 7.86006 64.51C7.87006 64.87 8.37006 65.3 8.95006 64.97V64.97ZM13.0401 61.24C12.6901 61.63 12.1301 61.54 11.9901 60.9C12.7001 60.86 13.0101 60.93 13.0401 61.24ZM35.1101 62.72C34.7401 62.72 34.3901 62.56 34.3201 62.27C34.3001 62.2 34.2401 62.17 34.2101 62.28C34.0301 62.92 34.4901 63.22 34.9301 63.22C35.4201 63.22 35.6901 62.87 36.3901 62.75C36.7001 62.7 36.9101 62.75 36.9101 62.65C36.9101 62.56 36.4601 62.56 36.3901 62.56C35.6601 62.56 35.5701 62.72 35.1101 62.72V62.72ZM42.2601 64.49C42.2601 64.43 42.2301 64.44 42.2001 64.45C41.6501 64.72 41.3601 64.14 41.4901 63.53C41.5601 63.19 41.8601 62.28 41.1201 61.54C40.3901 61.96 39.9001 61.27 40.0301 60.94C40.0601 60.85 40.1201 60.84 40.1201 60.95C40.1201 61.18 40.3501 61.35 40.5201 61.35C40.8101 61.35 41.3501 61.02 41.3901 60.52C40.6401 60.03 39.3601 60.23 39.1101 61.16C39.0801 61.28 38.9401 61.27 38.9501 61.15C38.9501 61.07 38.9901 60.52 39.5401 60.24C40.0401 59.99 39.8601 59.62 39.7201 59.49C39.6701 59.44 39.5601 59.45 39.6001 59.5C39.7901 59.83 39.3801 59.98 38.8201 59.91C37.6201 59.75 37.2301 60.2 37.1601 60.5C36.9001 60.57 35.8801 61.14 35.8801 61.35C35.8801 61.41 35.9401 61.57 36.0401 61.61C36.0401 61.61 36.0201 62.04 36.3301 62.33C37.6001 61.56 37.9601 62.28 37.8301 62.79C37.8301 62.79 37.6001 62.97 36.7401 62.98C36.7401 62.98 36.7801 63.29 36.8501 63.38C36.8501 63.38 36.6501 63.63 36.7901 63.85C36.7901 63.85 37.2301 63.52 37.9901 63.55C37.9901 63.55 38.4801 64.29 36.6701 64.64C34.8601 64.99 34.2801 66.7 34.2801 67.64C34.2801 67.69 34.3001 67.71 34.3401 67.7C35.8101 67.43 36.4801 68.95 38.3801 68.77C38.2101 68.32 38.4001 67.85 38.4001 67.85C38.5501 68.25 38.9101 68.52 39.1701 68.65C39.8501 68.5 40.2901 68.18 40.3901 67.98C40.3901 67.98 39.6701 67.39 40.1401 66.31C40.1401 66.31 40.5901 67.03 41.5201 66.64C41.6001 66.6 41.5801 66.55 41.5301 66.53C40.2701 66.12 41.0901 65.06 41.1701 64.95C41.7701 65.3 42.2601 64.87 42.2601 64.49V64.49ZM38.1401 60.9C38.0001 61.54 37.4401 61.63 37.0901 61.24C37.1301 60.93 37.4301 60.86 38.1401 60.9ZM24.7301 50.21C24.7301 50.37 24.8001 50.51 24.8501 50.59C24.9601 50.75 24.9401 50.84 24.8901 50.89C24.8401 50.94 24.7501 50.96 24.5901 50.85C24.4788 50.7717 24.3461 50.7298 24.2101 50.73C23.9401 50.73 23.8001 50.91 23.8001 51.06C23.8001 51.21 23.9401 51.39 24.2101 51.39C24.3701 51.39 24.5101 51.32 24.5901 51.27C24.7501 51.16 24.8401 51.18 24.8901 51.23C24.9401 51.28 24.8701 51.83 24.8001 52.27C24.3501 52.37 24.1301 52.73 24.1301 52.94C24.1301 53.49 24.7101 53.8 25.0601 53.99C25.4001 53.81 25.9901 53.49 25.9901 52.94C25.9901 52.73 25.7701 52.36 25.3201 52.27C25.2601 51.84 25.1801 51.28 25.2301 51.23C25.2801 51.18 25.3701 51.16 25.5301 51.27C25.6101 51.33 25.7501 51.39 25.9101 51.39C26.1801 51.39 26.3201 51.21 26.3201 51.06C26.3201 50.91 26.1801 50.73 25.9101 50.73C25.7501 50.73 25.6101 50.8 25.5301 50.85C25.3701 50.96 25.2801 50.94 25.2301 50.89C25.1801 50.84 25.1601 50.75 25.2701 50.59C25.3301 50.51 25.3901 50.37 25.3901 50.21C25.3901 49.94 25.2101 49.8 25.0601 49.8C24.9101 49.8 24.7301 49.94 24.7301 50.21ZM25.0701 54.27C24.9376 54.27 24.808 54.3093 24.6978 54.3829C24.5876 54.4565 24.5018 54.5612 24.4511 54.6836C24.4004 54.806 24.3871 54.9407 24.4129 55.0707C24.4388 55.2007 24.5026 55.3201 24.5963 55.4138C24.69 55.5075 24.8094 55.5713 24.9393 55.5971C25.0693 55.623 25.204 55.6097 25.3265 55.559C25.4489 55.5083 25.5535 55.4224 25.6272 55.3122C25.7008 55.2021 25.7401 55.0725 25.7401 54.94C25.7382 54.7629 25.6671 54.5935 25.5418 54.4683C25.4166 54.343 25.2472 54.2718 25.0701 54.27V54.27ZM25.0701 60.68C27.7401 60.68 29.2401 61.19 29.2401 61.19C29.2501 59.84 29.2501 59.09 30.0201 59.2C29.6001 58.07 31.4201 57.62 31.4201 56.15C31.4201 55.18 30.7301 55.07 30.5301 55.07C29.9301 55.07 30.0201 55.46 29.5101 55.46C29.4501 55.46 29.3801 55.44 29.3801 55.49C29.3801 55.66 29.5201 55.95 29.7601 55.95C30.0801 55.95 30.0801 55.63 30.3201 55.63C30.4201 55.63 30.5701 55.71 30.5701 56.04C30.5701 56.67 30.1601 57.36 29.6701 57.9C29.5601 57.75 29.4101 57.65 29.2201 57.65C28.9301 57.65 28.6801 57.95 28.6801 58.32C28.6801 58.46 28.7001 58.56 28.7501 58.67C28.5901 58.76 28.4401 58.81 28.3401 58.81C28.1201 58.81 27.7901 58.72 27.7901 58.24C27.7901 57.17 29.2201 56.23 29.2201 54.87C29.2201 54.22 28.7901 53.58 27.8801 53.58C26.9101 53.58 27.0901 54.46 26.2501 54.46C26.2101 54.46 26.1801 54.47 26.1801 54.51C26.1801 54.57 26.3301 55.06 26.7601 55.06C27.2201 55.06 27.3501 54.26 27.7701 54.26C27.9201 54.26 28.1501 54.35 28.1501 54.89C28.1501 55.31 27.9401 56 27.6401 56.65C27.5304 56.5341 27.3795 56.4659 27.2201 56.46C26.8601 56.46 26.6001 56.81 26.6001 57.22C26.6001 57.48 26.7001 57.74 26.8801 57.9C26.6701 58.17 26.4501 58.39 26.1601 58.39C25.5801 58.39 25.3301 58.06 25.3301 57.7C25.3301 57.31 26.0401 57.17 26.0401 56.57C26.0401 56.16 25.7701 55.93 25.5201 55.93C25.2401 55.93 25.1001 56.11 25.0701 56.11C25.0401 56.11 24.9001 55.93 24.6201 55.93C24.3601 55.93 24.1001 56.16 24.1001 56.57C24.1001 57.17 24.8101 57.32 24.8101 57.7C24.8101 58.06 24.5501 58.39 23.9801 58.39C23.6901 58.39 23.4701 58.17 23.2601 57.9C23.4401 57.73 23.5401 57.48 23.5401 57.22C23.5401 56.8 23.2801 56.46 22.9201 56.46C22.8409 56.4619 22.7629 56.4796 22.6907 56.5123C22.6186 56.5449 22.5537 56.5918 22.5001 56.65C22.2001 55.99 21.9901 55.31 21.9901 54.89C21.9901 54.35 22.2201 54.26 22.3701 54.26C22.7801 54.26 22.9101 55.06 23.3801 55.06C23.8101 55.06 23.9601 54.57 23.9601 54.51C23.9601 54.48 23.9301 54.46 23.8901 54.46C23.0501 54.46 23.2301 53.58 22.2601 53.58C21.3601 53.58 20.9201 54.22 20.9201 54.87C20.9201 56.23 22.3501 57.17 22.3501 58.24C22.3501 58.72 22.0201 58.81 21.8001 58.81C21.6901 58.81 21.5501 58.76 21.3901 58.67C21.4401 58.55 21.4601 58.46 21.4601 58.32C21.4601 57.95 21.2101 57.65 20.9201 57.65C20.7401 57.65 20.5901 57.75 20.4801 57.9C19.9901 57.36 19.5801 56.67 19.5801 56.04C19.5801 55.72 19.7301 55.63 19.8301 55.63C20.0601 55.63 20.0701 55.95 20.3901 55.95C20.6301 55.95 20.7701 55.66 20.7701 55.49C20.7701 55.44 20.7001 55.46 20.6401 55.46C20.1301 55.46 20.2201 55.07 19.6201 55.07C19.4201 55.07 18.7301 55.18 18.7301 56.15C18.7301 57.63 20.5501 58.07 20.1301 59.2C20.9001 59.09 20.8901 59.84 20.9101 61.19C20.8901 61.19 22.4001 60.68 25.0701 60.68V60.68ZM20.1801 62.67C19.4501 62.83 18.9301 62.98 18.7001 63.05C18.7101 62.73 18.8301 62.43 19.1201 62.37C19.1601 62.36 19.1701 62.31 19.1301 62.29C18.4801 61.86 18.1401 62.68 18.1301 62.71C17.9001 62.69 17.5501 62.76 17.5501 63.07C17.5501 64 15.4301 64.51 14.9401 64.59C15.8101 64.92 16.1701 66.02 16.1701 66.02C16.8001 65.39 17.5301 64.84 17.7001 64.84C17.8701 64.84 17.9301 65.05 17.9401 65.17C17.9401 65.21 17.9801 65.22 18.0101 65.19C18.3401 64.7 18.1801 64.59 18.1501 64.44C18.1301 64.33 18.1601 63.9 18.6401 63.95V70.14L18.3901 70.19C18.2801 70.21 17.3701 69.44 16.3401 68.72C15.3001 68 14.7501 68.43 13.5701 69.07C12.0201 69.91 10.4601 69.15 10.4601 69.15C9.13007 70.1 8.67006 72.86 8.67006 72.86C8.40006 72.97 7.96006 73.09 7.55006 73.09C6.53006 73.09 6.35007 72.47 6.35007 72.11C6.35007 70.54 8.32007 69.87 8.32007 68.32C8.32007 67.94 8.15006 66.42 6.26006 66.42H4.57007C3.86007 66.42 3.69006 65.91 3.59006 65.72C3.55006 65.64 3.48006 65.69 3.51006 65.75C3.56006 65.88 3.43005 66.08 3.43005 66.47C3.43005 67.1 3.80007 67.48 4.49007 67.48C4.80007 67.48 5.10006 67.39 5.19006 67.33C5.25006 67.29 5.29006 67.35 5.26006 67.39C4.96006 67.74 4.94006 68.4 5.06006 68.55C5.09006 68.59 5.13007 68.58 5.13007 68.55C5.30007 67.89 5.92006 67.26 6.76006 67.26C7.79006 67.26 7.78006 68.13 7.78006 68.34C7.78006 69.6 5.57007 70.52 5.57007 72.26C5.57007 74.02 7.43006 74.39 8.50006 74.12C8.44006 75.88 6.42006 76.48 6.36006 75.22C6.36006 75.16 6.31006 75.15 6.28006 75.23C6.03006 75.85 6.13006 76.4 6.91006 76.57C6.96006 76.58 6.94006 76.61 6.89006 76.65C6.11006 77.14 6.53007 79.08 6.57007 79.65C6.63007 80.47 5.81007 80.37 5.74007 80.35C5.71007 80.34 5.67006 80.35 5.73006 80.42C6.31006 81.13 7.03006 80.48 7.03006 80.48C7.57006 80.65 7.24006 81.11 6.87006 81.35C6.81006 81.39 6.82007 81.43 6.88007 81.43C6.96007 81.44 7.80006 81.51 7.95006 80.84C8.32006 81.28 8.87006 81.12 8.98006 81.06C9.14006 80.98 9.93006 80.69 10.0001 81.57C10.0001 81.63 10.0401 81.59 10.0701 81.56C10.6601 80.81 10.0301 80.35 9.67006 80.3C9.70006 80.26 10.1701 79.86 10.6001 80.41C10.6301 80.45 10.6601 80.46 10.6601 80.38C10.7101 79.43 9.94006 79.35 9.44006 79.76C9.42006 79.66 9.25006 79.13 10.0001 79.15C10.0201 79.15 10.0501 79.12 10.0201 79.09C9.44007 78.47 8.96006 79.03 8.84006 79.17C8.58006 79.48 7.93006 79.35 7.87006 79.35C8.07006 76.06 10.9701 77.23 11.3701 75.63C11.3901 75.55 11.4301 75.58 11.4301 75.61C11.5401 76 12.5201 76.05 12.7001 75.29C12.7101 75.24 12.7001 75.21 12.6701 75.24C11.8301 76.08 9.94007 73.46 12.5201 71.33C14.7201 69.52 16.6901 70.53 17.4401 71.12C17.4801 71.38 17.3201 71.47 17.2201 71.5C17.1801 71.51 17.1701 71.54 17.2301 71.57C17.4401 71.65 17.7301 71.62 17.8701 71.43C18.3401 71.76 17.9401 72.18 17.7501 72.29C17.7001 72.32 17.7201 72.35 17.7601 72.36C18.1901 72.44 18.5501 72 18.5701 71.74L18.6401 71.78V73.65C18.6401 76.31 21.7101 76.68 25.0801 78.93C28.4501 76.67 31.5101 76.31 31.5101 73.65V71.78L31.5801 71.74C31.6001 71.99 31.9501 72.44 32.3901 72.36C32.4301 72.35 32.4501 72.32 32.4001 72.29C32.2101 72.17 31.8001 71.76 32.2801 71.43C32.4201 71.63 32.7101 71.65 32.9201 71.57C32.9801 71.55 32.9701 71.51 32.9301 71.5C32.8301 71.47 32.6701 71.38 32.7101 71.12C33.4601 70.52 35.4301 69.51 37.6301 71.33C40.2101 73.46 38.3201 76.07 37.4801 75.24C37.4401 75.2 37.4401 75.24 37.4501 75.29C37.6301 76.06 38.6101 76 38.7201 75.61C38.7301 75.58 38.7701 75.55 38.7801 75.63C39.1801 77.23 42.0701 76.06 42.2801 79.35C42.2201 79.36 41.5701 79.48 41.3101 79.17C41.2001 79.04 40.7201 78.47 40.1301 79.09C40.0901 79.13 40.1301 79.15 40.1501 79.15C40.9001 79.13 40.7401 79.66 40.7101 79.76C40.2101 79.35 39.4401 79.43 39.4901 80.38C39.4901 80.45 39.5201 80.45 39.5501 80.41C39.9801 79.86 40.4501 80.26 40.4801 80.3C40.1301 80.35 39.4901 80.81 40.0801 81.56C40.1101 81.59 40.1401 81.63 40.1501 81.57C40.2301 80.69 41.0101 80.97 41.1701 81.06C41.2801 81.12 41.8301 81.28 42.2001 80.84C42.3501 81.51 43.1901 81.44 43.2701 81.43C43.3301 81.43 43.3301 81.39 43.2801 81.35C42.9201 81.11 42.5801 80.65 43.1201 80.48C43.1201 80.48 43.8401 81.13 44.4201 80.42C44.4701 80.36 44.4401 80.34 44.4101 80.35C44.3401 80.37 43.5201 80.47 43.5801 79.65C43.6201 79.08 44.0401 77.14 43.2601 76.65C43.2101 76.62 43.1901 76.59 43.2401 76.57C44.0201 76.4 44.1201 75.85 43.8701 75.23C43.8401 75.15 43.7901 75.17 43.7901 75.22C43.7301 76.48 41.7201 75.88 41.6501 74.12C42.7301 74.4 44.5801 74.02 44.5801 72.26C44.5801 70.53 42.3701 69.6 42.3701 68.34C42.3701 68.13 42.3601 67.26 43.3901 67.26C44.2301 67.26 44.8501 67.89 45.0201 68.55C45.0301 68.58 45.0601 68.59 45.0901 68.55C45.2101 68.39 45.1901 67.74 44.8901 67.39C44.8601 67.36 44.8901 67.29 44.9601 67.33C45.0501 67.39 45.3501 67.48 45.6601 67.48C46.3501 67.48 46.7201 67.1 46.7201 66.47C46.7201 66.08 46.5801 65.88 46.6401 65.75C46.6701 65.69 46.5901 65.65 46.5601 65.72C46.4601 65.92 46.28 66.42 45.58 66.42H43.8901C42.0001 66.42 41.8301 67.95 41.8301 68.32C41.8301 69.87 43.8001 70.54 43.8001 72.11C43.8001 72.48 43.6101 73.09 42.6001 73.09C42.1801 73.09 41.7401 72.97 41.4801 72.86C41.4801 72.86 41.0301 70.11 39.6901 69.15C39.6901 69.15 38.1301 69.91 36.5801 69.07C35.4001 68.43 34.8401 68 33.8001 68.72C32.7601 69.44 31.8601 70.21 31.7501 70.19L31.5001 70.14V63.95C31.9801 63.9 32.0101 64.33 31.9901 64.44C31.9601 64.58 31.8101 64.7 32.1301 65.19C32.1601 65.23 32.1901 65.21 32.2001 65.17C32.2101 65.05 32.2801 64.84 32.4401 64.84C32.6001 64.84 33.3401 65.39 33.9701 66.02C33.9701 66.02 34.3301 64.93 35.2001 64.59C34.7101 64.51 32.5901 64 32.5901 63.07C32.5901 62.76 32.2401 62.69 32.0101 62.71C32.0001 62.68 31.6501 61.86 31.0101 62.29C30.9801 62.31 30.9801 62.36 31.0201 62.37C31.3101 62.44 31.4301 62.73 31.4401 63.05C30.8201 62.86 28.1901 62.12 25.0701 62.12C23.5501 62.12 22.1601 62.3 21.0501 62.5V64.64H20.1801V62.67V62.67ZM14.4101 84.65C14.1801 84.56 14.0301 84.41 14.0301 84.1V82.77C13.6501 82.64 12.6101 82.24 10.5201 82.24C8.79007 82.24 8.25006 82.63 8.22006 82.77L7.76006 85.31C7.76006 85.31 8.46006 84.67 10.9701 84.83C13.9901 85.02 17.1201 86.81 17.1201 84.9V83.78C14.7601 83.78 14.4101 84.54 14.4101 84.65ZM33.0101 83.78V84.9C33.0101 86.8 36.1401 85.02 39.1601 84.83C41.6701 84.67 42.3701 85.31 42.3701 85.31L41.9101 82.77C41.8901 82.63 41.3401 82.24 39.6101 82.24C37.5301 82.24 36.4901 82.64 36.1001 82.77V84.1C36.1001 84.4 35.9501 84.55 35.7201 84.65C35.7201 84.54 35.3701 83.78 33.0101 83.78ZM25.0701 82.63C29.9401 82.63 34.8801 82.88 35.5201 83.62C35.5701 83.68 35.5901 83.62 35.5901 83.57V80.99C35.5901 80.24 30.4901 79.8 25.0601 79.8C19.6301 79.8 14.5301 80.24 14.5301 80.99V83.57C14.5301 83.61 14.5501 83.67 14.6001 83.62C15.2601 82.89 20.2001 82.63 25.0701 82.63V82.63ZM20.7301 70.47L20.2401 70.34L20.2001 70.4L19.6301 70.15H20.1401C20.1901 70.15 20.1901 70.12 20.1701 70.1C19.9401 69.87 19.7301 69.67 19.7301 69.67C19.7301 69.67 19.9601 69.76 20.2901 69.88C20.3301 69.89 20.3401 69.87 20.3201 69.84L19.9401 69.29L20.4901 69.66C20.5201 69.68 20.5401 69.66 20.5301 69.63L20.2701 68.98L20.7701 69.46C20.7901 69.48 20.8201 69.47 20.8101 69.44L20.6701 68.79L21.0401 69.33C21.0601 69.36 21.0901 69.35 21.0901 69.32C21.0901 69.21 21.1001 68.73 21.1001 68.73C21.1001 68.73 21.2601 69.09 21.3301 69.27C21.3501 69.31 21.3701 69.31 21.3901 69.26C21.4101 69.2 21.5801 68.8 21.5801 68.8L21.6001 69.42L21.5201 69.44L21.4201 70.18C22.1501 70.01 23.0701 68.75 23.7701 68.75C24.6101 68.75 24.9101 69.73 26.4501 69.23C26.8401 69.81 26.9801 70.31 27.1301 71C27.7301 71.56 28.5601 71.37 28.5601 70.78C28.5601 69.98 27.6901 69.83 27.6901 68.99C27.6901 68.62 27.9501 68.08 28.6601 68.08C29.0401 68.08 29.5901 68.24 29.9101 68.24C30.2901 68.24 30.3701 67.97 30.4101 67.85C30.4401 67.77 30.5501 67.79 30.5401 67.86C30.5301 67.94 30.5801 68.05 30.5801 68.23C30.5801 68.76 29.8101 68.83 29.7201 68.76C29.6801 68.73 29.6501 68.77 29.6801 68.8C29.8001 68.89 29.7701 69.21 29.6301 69.41C29.6101 69.43 29.5901 69.43 29.5901 69.41C29.5101 69.03 29.0601 68.56 28.6701 68.56C28.5301 68.56 28.2401 68.64 28.2401 68.98C28.2401 69.45 29.1901 69.89 29.1901 70.87C29.1901 71.89 28.1801 72.14 27.1601 71.88C27.1901 72.85 28.6401 73.42 28.6701 72.73C28.6701 72.68 28.7001 72.71 28.7101 72.73C28.9201 73.03 28.8301 73.25 28.5501 73.37C28.8001 73.48 28.8501 73.99 28.9201 74.3C29.0301 74.76 29.5101 74.5 29.5401 74.49C29.5701 74.47 29.5801 74.49 29.5601 74.52C29.3801 74.99 28.8901 74.81 28.8901 74.81C28.6401 74.99 28.9401 75.15 29.1701 75.22C29.2001 75.23 29.2001 75.25 29.1801 75.27C29.0101 75.33 28.6501 75.45 28.4701 75.14C28.3401 75.46 28.0701 75.45 27.9701 75.45C27.7801 75.45 27.6601 75.64 27.7001 75.9C27.7001 75.92 27.6901 75.93 27.6701 75.92C27.2301 75.63 27.4801 75.28 27.6601 75.19C27.6301 75.17 27.3201 75.04 27.1901 75.4C27.1801 75.43 27.1601 75.43 27.1501 75.4C26.9601 74.88 27.3801 74.73 27.6801 74.86C27.6601 74.79 27.5001 74.53 27.1001 74.62C27.0801 74.63 27.0701 74.62 27.0801 74.59C27.1501 74.43 27.3401 74.2 27.7101 74.43C27.9001 74.55 28.2201 74.38 28.2501 74.36C27.6001 73.07 26.3501 74.15 26.0601 73.14C26.0501 73.12 26.0301 73.1 26.0101 73.16C25.9401 73.37 25.3901 73.39 25.2901 72.97C25.2801 72.94 25.2901 72.93 25.3201 72.95C25.4001 73.03 25.5701 73.1 25.8001 72.78C25.9501 72.56 25.9701 72.27 25.9701 72.08C25.9701 71.3 25.1901 69.98 23.9701 69.98C23.2001 69.98 22.3701 70.28 21.7501 70.73L22.3201 70.86C22.2701 71.44 21.7101 71.78 21.2001 71.63L21.2901 70.97C21.2001 71 20.9801 71.08 20.8601 71.25C20.8501 71.26 20.8301 71.26 20.8301 71.24C20.7301 70.86 21.0401 70.67 21.1301 70.63C21.1401 70.62 21.1401 70.62 21.1201 70.62C20.8401 70.61 20.6901 70.81 20.6401 70.88C20.6301 70.89 20.6201 70.89 20.6201 70.88C20.6501 70.8 20.6001 70.61 20.7301 70.47V70.47ZM22.4301 74.95C22.2101 75.22 22.0201 74.96 21.7301 74.96C21.4601 74.96 21.4101 75.19 21.4101 75.28C21.4101 75.3 21.4001 75.3 21.3901 75.29C21.0801 74.87 21.4301 74.64 21.6301 74.61C21.6001 74.58 21.3001 74.38 21.1101 74.66C21.1001 74.68 21.0801 74.67 21.0801 74.65C21.0701 74.13 21.4801 74.09 21.7601 74.32C21.8101 74.12 21.6801 73.99 21.4601 73.98C21.4301 73.98 21.4301 73.96 21.4401 73.95C21.5301 73.85 21.6201 73.81 21.7101 73.81C22.0001 73.81 22.0401 74.18 22.2301 74.18C22.5101 74.18 22.9201 73.8 22.9501 73.76C22.9401 73.74 22.6701 73 22.7201 72.56C22.7201 72.54 22.7101 72.54 22.7001 72.55C22.5601 72.63 22.2201 72.62 22.2201 72.2C22.2201 72.17 22.2301 72.16 22.2501 72.19C22.4001 72.4 22.6501 72.16 22.7701 72.02C22.9001 71.87 23.6201 70.83 24.5701 70.83C24.7801 70.83 25.0501 70.95 25.2701 71.1C24.9401 71.5 25.2701 71.88 25.5101 71.83C25.5401 71.82 25.5401 71.85 25.5201 71.86C24.2601 72.33 23.7001 72.52 23.7001 73.58C23.7001 74.13 23.8901 74.44 24.2101 74.36C24.2301 74.35 24.2401 74.36 24.2201 74.38C24.1001 74.52 23.9701 74.57 23.8601 74.57C23.6001 74.57 23.5501 74.43 23.4101 74.43C23.2701 74.43 22.8001 74.71 22.8001 74.94C22.8001 75.03 22.8601 75.15 23.0201 75.25C23.0301 75.26 23.0201 75.27 23.0201 75.27C22.8901 75.27 22.5201 75.3 22.4301 74.95V74.95ZM25.7501 64.7C25.3601 64.68 25.1001 64.76 25.1201 64.89C25.3001 65.09 25.5601 65.07 25.7501 64.7ZM24.2901 65.67C24.5701 65.6 24.8701 65.63 24.9101 65.64C24.9501 65.65 24.9501 65.72 24.9001 65.73C24.3201 65.8 24.2901 66.07 23.9201 66.07C23.6801 66.07 23.4101 65.82 23.5101 65.46C23.5201 65.41 23.5601 65.41 23.5701 65.46C23.6101 65.62 23.8401 65.79 24.2901 65.67V65.67ZM16.7601 78.53C17.1401 79.02 17.5101 78.56 18.0201 78.56C18.2701 78.56 18.5701 78.64 18.6201 79.14C18.6201 79.17 18.6401 79.17 18.6701 79.14C19.2201 78.39 18.5901 77.97 18.2301 77.91C18.3101 77.84 18.8401 77.51 19.1901 78C19.2101 78.03 19.2501 78.02 19.2501 77.98C19.2501 77.03 18.5401 76.96 18.0201 77.37C17.9201 77 18.2001 76.76 18.5601 76.76C18.6001 76.76 18.6201 76.73 18.6001 76.71C17.9601 76.03 17.4901 76.89 17.3801 77.02C17.1301 77.36 16.2201 76.72 15.8501 76.34C15.8501 76.34 16.6501 75.5 16.6501 74.73C16.6501 74.68 16.6401 74.62 16.6401 74.59C16.6401 74.57 16.6501 74.56 16.6701 74.57C16.7501 74.62 16.8601 74.65 16.9701 74.65C17.1501 74.65 17.5001 74.59 17.5001 73.94C17.5001 73.89 17.4801 73.89 17.4601 73.92C17.3601 74.06 17.2601 74.09 17.1801 74.09C16.5301 74.09 15.1801 71.93 13.5801 71.93C13.1601 71.93 12.3701 72.23 11.9801 72.66C12.1701 72.77 12.2101 73.01 12.1901 73.18C12.1601 73.45 11.9401 73.59 11.7201 73.65C11.6801 73.66 11.6801 73.69 11.7201 73.71C12.5301 74.02 13.9901 74.57 14.3301 74.86C14.7201 75.2 14.6501 75.84 14.4201 76.73C14.2001 77.58 13.7301 77.47 13.5501 77.44C13.5201 77.44 13.5201 77.45 13.5301 77.47C13.7401 77.73 13.9901 77.82 14.2101 77.82C14.6301 77.82 14.7901 77.56 15.0001 77.56C15.3601 77.56 16.1301 78.08 16.1301 78.48C16.1301 78.7 15.9601 78.91 15.7301 79.05C15.7201 79.06 15.7201 79.08 15.7401 79.08C15.9101 79.11 16.6301 79.17 16.7601 78.53V78.53ZM34.4001 79.08C34.4201 79.08 34.4301 79.06 34.4101 79.05C34.1901 78.9 34.0101 78.7 34.0101 78.48C34.0101 78.08 34.7701 77.56 35.1401 77.56C35.3601 77.56 35.5101 77.82 35.9301 77.82C36.1501 77.82 36.4001 77.73 36.6101 77.47C36.6301 77.45 36.6201 77.43 36.5901 77.44C36.4201 77.47 35.9401 77.58 35.7201 76.73C35.4901 75.84 35.4101 75.2 35.8101 74.86C36.1401 74.57 37.6101 74.02 38.4201 73.71C38.4601 73.69 38.4601 73.66 38.4201 73.65C38.2001 73.59 37.9801 73.45 37.9501 73.18C37.9301 73.01 37.9701 72.78 38.1601 72.66C37.7601 72.23 36.9701 71.93 36.5501 71.93C34.9501 71.93 33.6001 74.09 32.9501 74.09C32.8701 74.09 32.7601 74.06 32.6701 73.92C32.6501 73.89 32.6301 73.89 32.6301 73.94C32.6301 74.59 32.9801 74.65 33.1601 74.65C33.2601 74.65 33.3801 74.62 33.4601 74.57C33.4801 74.56 33.4901 74.57 33.4901 74.59C33.4901 74.62 33.4801 74.68 33.4801 74.73C33.4801 75.5 34.2801 76.34 34.2801 76.34C33.9201 76.72 33.0101 77.35 32.7501 77.02C32.6401 76.88 32.1701 76.03 31.5301 76.71C31.5101 76.74 31.5201 76.76 31.5701 76.76C31.9301 76.76 32.2101 77 32.1101 77.37C31.5901 76.96 30.8801 77.03 30.8801 77.98C30.8801 78.02 30.9201 78.03 30.9401 78C31.2801 77.51 31.8201 77.84 31.8901 77.91C31.5301 77.96 30.9101 78.39 31.4501 79.14C31.4701 79.17 31.4901 79.17 31.5001 79.14C31.5601 78.65 31.8601 78.56 32.1001 78.56C32.6001 78.56 32.9701 79.02 33.3601 78.53C33.5101 79.17 34.2201 79.11 34.4001 79.08V79.08ZM21.4801 66.61C21.4301 66.68 21.2601 66.61 21.2001 66.58C21.1901 66.57 21.1801 66.58 21.1901 66.59C21.2301 66.68 21.3901 66.95 21.6301 66.95C21.7401 66.95 21.9001 66.89 21.9401 66.81C21.9401 66.81 22.8801 67.12 23.3401 67.24C23.1601 67.48 23.0501 67.77 23.0201 68.08C22.6501 67.85 21.1501 67.05 21.1501 67.05L20.6901 67.69C20.6101 67.79 20.2401 67.52 20.3201 67.42L20.6701 66.93C20.5501 66.81 20.2701 66.88 20.1901 66.91C20.1801 66.91 20.1701 66.91 20.1801 66.89C20.2301 66.79 20.4001 66.5 20.8401 66.63C20.8401 66.36 20.4401 66.45 20.3301 66.48C20.3201 66.48 20.3101 66.48 20.3201 66.47C20.4301 66.35 20.7601 66.09 21.1201 66.31L21.2801 66.09L20.9601 65.75L21.1601 65.47L21.3901 65.77L23.1201 63.4C23.1601 63.34 23.5101 63.24 23.6301 63.21C23.6401 63.34 23.6601 63.7 23.6201 63.76L21.9201 66.15L22.2801 66.27L22.0801 66.55L21.6601 66.35L21.4801 66.61V66.61ZM27.5501 66.22C27.5501 66.44 27.6801 66.76 27.9701 66.66C27.9801 66.65 28.0001 66.66 27.9901 66.67C27.9501 66.91 27.5101 67.13 27.3201 66.85C27.1401 67.22 27.1901 67.57 27.5601 67.77C27.5801 67.78 27.5801 67.81 27.5601 67.83C27.3301 67.99 26.9801 67.96 26.8201 67.64C26.5101 67.87 26.5501 68.37 26.7401 68.54C26.7401 68.54 25.8801 69.05 25.1001 68.69C24.5801 68.44 24.1601 68.12 23.4901 68.18C23.5801 67.24 24.0501 67 24.9101 66.86C25.6001 66.75 25.6801 66.43 25.5901 66.19C25.3601 66.13 24.9301 66.34 24.9301 66.34C24.8501 66.21 24.9601 66.08 24.9601 66.08C24.9201 66.03 24.9001 65.86 24.9001 65.86C25.3801 65.86 25.4701 65.75 25.4701 65.75C25.5601 65.25 25.0501 65.2 24.6601 65.47C24.4801 65.31 24.5101 65.1 24.5101 65.1C24.4856 65.0825 24.465 65.0601 24.4495 65.0343C24.434 65.0085 24.424 64.9798 24.4201 64.95C24.4201 64.83 24.9901 64.51 25.1401 64.47C25.1801 64.3 25.3801 64.07 25.9901 64.13C26.0601 63.97 25.9401 63.38 25.8701 63.23C25.8501 63.18 25.8801 63.16 25.9301 63.19C26.1401 63.32 26.3501 63.82 26.5001 63.83C26.5001 63.83 27.1801 63.47 27.2101 63.49C27.2401 63.51 27.3401 64.27 27.3401 64.27C27.4301 64.38 27.9601 64.27 28.1901 64.37C28.2501 64.4 28.2501 64.44 28.1901 64.45C28.0201 64.48 27.4701 64.72 27.3801 64.87C27.7001 65.34 27.5501 66.03 27.5501 66.22V66.22Z" fill="white"/>
<path d="M61.91 64.46C62.51 64.29 62.81 63.98 62.81 63.28V55.67L61.83 55.36V55.02C62.81 54.85 63.69 54.79 64.92 54.79C67.26 54.79 68.38 55.7 68.38 57.41C68.38 58.94 67.53 59.95 66.15 60.37L68.34 63.3C68.71 63.8 69.22 64.17 69.78 64.35V64.64C69.49 64.84 69.1 64.98 68.6 64.98C67.93 64.98 67.5 64.72 66.94 63.88L64.89 60.78H64.16V64.05L65.14 64.3V64.64C64.63 64.8 64.06 64.9 63.37 64.9C62.83 64.9 62.36 64.85 61.91 64.74V64.46V64.46ZM64.76 60.05C65.97 60.05 66.96 59.26 66.96 57.65C66.96 56.38 66.15 55.65 64.82 55.65C64.62 55.65 64.35 55.68 64.15 55.71V60.05H64.76ZM70.55 64.5C70.97 64.35 71.37 64.04 71.37 63.66V58.42L70.38 58V57.67C71.08 57.47 71.79 57.38 72.22 57.38H72.72L72.64 58.22V64.11L73.51 64.34V64.63C72.98 64.82 72.5 64.89 71.71 64.89C71.35 64.89 70.9 64.86 70.55 64.75V64.5V64.5ZM71.2 55.07C71.2 54.59 71.54 54.16 72.08 54.16C72.51 54.16 72.89 54.49 72.89 55C72.89 55.54 72.52 55.96 72.02 55.96C71.56 55.95 71.2 55.58 71.2 55.07V55.07ZM75.08 58.42L74.09 58V57.67C74.8 57.47 75.5 57.38 75.95 57.38H76.45L76.36 58.25V65.21C76.36 67.75 75.6 68.54 74.61 68.54C74.27 68.54 73.93 68.42 73.74 68.17V67.92C74.42 67.92 75.09 67.14 75.09 65.56V58.42H75.08ZM74.91 55.07C74.91 54.59 75.25 54.16 75.79 54.16C76.22 54.16 76.6 54.49 76.6 55C76.6 55.54 76.23 55.96 75.73 55.96C75.27 55.95 74.91 55.58 74.91 55.07V55.07ZM77.88 64.5C78.3 64.35 78.72 64.04 78.72 63.66V54.67L77.7 54.25V53.91C78.41 53.71 79.13 53.63 79.56 53.63H80.09L80 54.5V60.7L80.85 59.96C81.69 59.25 82.45 58.18 82.45 57.48C82.73 57.39 82.96 57.36 83.27 57.36C83.5 57.36 83.69 57.41 83.89 57.5C83.86 58.17 83.19 59.22 81.78 60.23L81.24 60.62L83.63 63.52C84.06 64.05 84.45 64.26 84.78 64.26V64.59C84.44 64.82 84.08 64.92 83.63 64.92C83.2 64.92 82.82 64.73 82.53 64.33L80 61V64.13L80.81 64.38V64.67C80.24 64.86 79.79 64.92 79.06 64.92C78.7 64.92 78.25 64.89 77.9 64.78V64.5H77.88ZM85.44 63.08C86.14 63.73 86.8 64.06 87.63 64.06C88.5 64.06 88.95 63.64 88.95 63.1C88.95 62.56 88.64 62.22 87.62 61.78L86.85 61.45C85.95 61.06 85.45 60.41 85.45 59.53C85.45 58.31 86.53 57.25 88.15 57.25C89.39 57.25 89.89 57.62 89.89 58.21C89.89 58.44 89.86 58.64 89.81 58.86C89.31 58.52 88.63 58.27 88.04 58.27C87.05 58.27 86.58 58.7 86.58 59.23C86.58 59.79 86.86 60.1 87.79 60.45L88.63 60.78C89.75 61.21 90.17 61.79 90.17 62.7C90.17 63.89 89.02 64.98 87.29 64.98C85.93 64.98 85.32 64.55 85.32 63.71C85.3 63.5 85.35 63.25 85.44 63.08V63.08ZM94.77 57.29C95.14 57.29 95.59 57.34 95.84 57.4V54.67L94.79 54.25V53.91C95.5 53.71 96.26 53.63 96.71 53.63H97.21L97.12 54.5V63.38C97.23 63.69 97.41 64.02 97.71 64.28C97.4 64.56 97.06 64.78 96.62 65.01C96.31 64.76 96.03 64.41 95.88 64.08C95.38 64.59 94.53 64.96 93.9 64.96C92.33 64.96 91.08 63.66 91.08 61.6C91.06 58.81 92.75 57.29 94.77 57.29V57.29ZM95.85 63.46V58.33C95.59 58.24 95.14 58.16 94.72 58.16C93.4 58.16 92.41 59.2 92.41 61.35C92.41 63.04 93.29 63.95 94.27 63.95C94.86 63.95 95.5 63.75 95.85 63.46V63.46ZM98.83 64.5C99.25 64.35 99.65 64.04 99.65 63.66V58.42L98.66 58V57.67C99.36 57.47 100.07 57.38 100.51 57.38H101.01L100.93 58.22V64.11L101.8 64.34V64.63C101.27 64.82 100.79 64.89 100 64.89C99.64 64.89 99.19 64.86 98.84 64.75V64.5H98.83ZM99.48 55.07C99.48 54.59 99.82 54.16 100.36 54.16C100.79 54.16 101.17 54.49 101.17 55C101.17 55.54 100.8 55.96 100.3 55.96C99.84 55.95 99.48 55.58 99.48 55.07V55.07ZM105.82 57.27C107.49 57.27 108.5 58.39 108.5 60.17C108.5 60.46 108.5 60.77 108.48 61.16H103.91C103.91 62.9 104.92 63.9 106.2 63.9C106.96 63.9 107.8 63.64 108.39 63.23C108.42 63.31 108.45 63.48 108.45 63.63C108.45 64.33 107.43 64.98 105.78 64.98C104.01 64.98 102.57 63.6 102.57 61.43C102.58 58.74 104.21 57.27 105.82 57.27V57.27ZM107.26 60.36C107.26 58.84 106.61 58.11 105.69 58.11C104.84 58.11 103.94 59.13 103.94 60.36H107.26ZM109.5 64.5C109.9 64.35 110.32 64.04 110.32 63.66V58.42L109.32 58V57.66C110.03 57.46 110.73 57.38 111.18 57.38H111.55V58.22C112.08 57.69 112.94 57.35 113.84 57.35C115.13 57.35 116.01 58.17 116.01 59.77V64.11L116.82 64.34V64.63C116.4 64.8 115.86 64.89 115.19 64.89C114.86 64.89 114.49 64.86 114.18 64.75V64.5C114.57 64.33 114.74 64.04 114.74 63.48V60.52C114.74 59 114.1 58.43 113.19 58.43C112.55 58.43 111.94 58.65 111.59 58.91V64.12L112.46 64.35V64.64C111.93 64.83 111.44 64.9 110.66 64.9C110.29 64.9 109.85 64.87 109.5 64.76V64.5V64.5ZM117.86 63.08C118.56 63.73 119.22 64.06 120.05 64.06C120.92 64.06 121.37 63.64 121.37 63.1C121.37 62.56 121.06 62.22 120.04 61.78L119.27 61.45C118.37 61.06 117.87 60.41 117.87 59.53C117.87 58.31 118.95 57.25 120.57 57.25C121.81 57.25 122.31 57.62 122.31 58.21C122.31 58.44 122.28 58.64 122.23 58.86C121.73 58.52 121.05 58.27 120.46 58.27C119.47 58.27 119 58.7 119 59.23C119 59.79 119.28 60.1 120.21 60.45L121.05 60.78C122.17 61.21 122.59 61.79 122.59 62.7C122.59 63.89 121.44 64.98 119.71 64.98C118.35 64.98 117.74 64.55 117.74 63.71C117.72 63.5 117.77 63.25 117.86 63.08V63.08ZM124.17 60.53L124.22 58.47H123.37V57.96L125.04 56.3L125.55 56.24L125.49 57.64H127.54L127.43 58.48H125.45L125.42 60.43C125.4 61.08 125.4 61.67 125.4 62.24C125.4 63.5 125.77 63.93 126.35 63.93C126.8 63.93 127.19 63.77 127.5 63.53L127.66 63.59C127.6 64.5 127.06 64.97 125.99 64.97C124.75 64.97 124.15 64.32 124.15 62.81C124.12 62.06 124.16 61.24 124.17 60.53V60.53ZM130.63 58.2L130 57.75V57.38H132.96V57.75L132.08 58.12L133.75 63.03H133.77L135.49 58.16L134.61 57.74V57.37H137V57.74L136.57 58.1L133.81 64.94L133.28 64.97L130.63 58.2V58.2ZM140.66 57.26C142.57 57.26 144.04 58.69 144.04 60.84C144.04 63.4 142.26 65.01 140.41 65.01C138.53 65.01 137.01 63.69 137.01 61.43C137.02 58.88 138.76 57.26 140.66 57.26V57.26ZM140.51 64.11C141.55 64.11 142.63 63.1 142.63 60.98C142.63 59.17 141.65 58.16 140.55 58.16C139.48 58.16 138.43 59.23 138.43 61.28C138.43 63.15 139.41 64.11 140.51 64.11ZM148.75 57.26C150.66 57.26 152.13 58.69 152.13 60.84C152.13 63.4 150.35 65.01 148.5 65.01C146.62 65.01 145.1 63.69 145.1 61.43C145.11 58.88 146.85 57.26 148.75 57.26V57.26ZM148.6 64.11C149.64 64.11 150.72 63.1 150.72 60.98C150.72 59.17 149.74 58.16 148.64 58.16C147.57 58.16 146.52 59.23 146.52 61.28C146.52 63.15 147.5 64.11 148.6 64.11ZM153.1 64.5C153.5 64.35 153.92 64.04 153.92 63.66V58.42L152.92 58V57.66C153.63 57.46 154.33 57.38 154.78 57.38H155.15V58.46H155.17L155.6 57.98C156.02 57.53 156.44 57.3 156.96 57.3C157.5 57.3 157.77 57.53 157.77 57.97C157.77 58.26 157.68 58.61 157.52 58.9C157.23 58.67 156.89 58.54 156.56 58.54C156.08 58.54 155.63 58.76 155.2 59.18V64.11L156.27 64.34V64.63C155.74 64.82 155.23 64.89 154.35 64.89C153.9 64.89 153.47 64.86 153.11 64.75V64.5H153.1ZM165.66 54.71C167.94 54.71 169.77 56.51 169.77 59.38C169.77 62.95 167.58 65.02 165.1 65.02C162.82 65.02 160.98 63.16 160.98 60.09C160.98 56.85 163.24 54.71 165.66 54.71V54.71ZM168.25 59.66C168.25 56.95 166.93 55.71 165.49 55.71C164 55.71 162.51 57.2 162.51 59.91C162.51 62.64 163.84 64.03 165.25 64.03C166.74 64.03 168.25 62.67 168.25 59.66ZM170.98 64.5C171.38 64.35 171.8 64.04 171.8 63.66V58.42L170.8 58V57.66C171.51 57.46 172.21 57.38 172.66 57.38H173.03V58.22C173.56 57.69 174.42 57.35 175.32 57.35C176.61 57.35 177.49 58.17 177.49 59.77V64.11L178.3 64.34V64.63C177.88 64.8 177.34 64.89 176.67 64.89C176.34 64.89 175.97 64.86 175.66 64.75V64.5C176.05 64.33 176.22 64.04 176.22 63.48V60.52C176.22 59 175.58 58.43 174.67 58.43C174.04 58.43 173.41 58.65 173.07 58.91V64.12L173.94 64.35V64.64C173.41 64.83 172.92 64.9 172.14 64.9C171.77 64.9 171.33 64.87 170.98 64.76V64.5V64.5ZM182.79 57.29C183.16 57.29 183.61 57.34 183.86 57.4V54.67L182.81 54.25V53.91C183.52 53.71 184.28 53.63 184.73 53.63H185.23L185.14 54.5V63.38C185.25 63.69 185.43 64.02 185.73 64.28C185.42 64.56 185.08 64.78 184.65 65.01C184.34 64.76 184.06 64.41 183.91 64.08C183.41 64.59 182.56 64.96 181.93 64.96C180.36 64.96 179.11 63.66 179.11 61.6C179.08 58.81 180.77 57.29 182.79 57.29V57.29ZM183.87 63.46V58.33C183.61 58.24 183.16 58.16 182.74 58.16C181.42 58.16 180.43 59.2 180.43 61.35C180.43 63.04 181.31 63.95 182.29 63.95C182.88 63.95 183.52 63.75 183.87 63.46V63.46ZM189.96 57.27C191.63 57.27 192.64 58.39 192.64 60.17C192.64 60.46 192.64 60.77 192.62 61.16H188.05C188.05 62.9 189.06 63.9 190.34 63.9C191.1 63.9 191.94 63.64 192.53 63.23C192.56 63.31 192.59 63.48 192.59 63.63C192.59 64.33 191.57 64.98 189.92 64.98C188.15 64.98 186.71 63.6 186.71 61.43C186.72 58.74 188.35 57.27 189.96 57.27V57.27ZM191.41 60.36C191.41 58.84 190.76 58.11 189.84 58.11C188.99 58.11 188.09 59.13 188.09 60.36H191.41ZM193.64 64.5C194.04 64.35 194.46 64.04 194.46 63.66V58.42L193.46 58V57.66C194.17 57.46 194.87 57.38 195.32 57.38H195.69V58.46H195.71L196.14 57.98C196.56 57.53 196.98 57.3 197.5 57.3C198.04 57.3 198.31 57.53 198.31 57.97C198.31 58.26 198.22 58.61 198.06 58.9C197.77 58.67 197.43 58.54 197.1 58.54C196.62 58.54 196.17 58.76 195.74 59.18V64.11L196.81 64.34V64.63C196.28 64.82 195.77 64.89 194.89 64.89C194.44 64.89 194.01 64.86 193.65 64.75V64.5H193.64ZM199.12 64.5C199.52 64.35 199.94 64.04 199.94 63.66V58.42L198.93 58V57.66C199.64 57.46 200.34 57.38 200.79 57.38H201.16V58.22C201.69 57.69 202.55 57.35 203.45 57.35C204.74 57.35 205.62 58.17 205.62 59.77V64.11L206.43 64.34V64.63C206.01 64.8 205.47 64.89 204.8 64.89C204.47 64.89 204.1 64.86 203.79 64.75V64.5C204.18 64.33 204.35 64.04 204.35 63.48V60.52C204.35 59 203.71 58.43 202.8 58.43C202.17 58.43 201.54 58.65 201.2 58.91V64.12L202.07 64.35V64.64C201.54 64.83 201.05 64.9 200.27 64.9C199.9 64.9 199.46 64.87 199.11 64.76V64.5H199.12ZM210.46 57.27C212.13 57.27 213.14 58.39 213.14 60.17C213.14 60.46 213.14 60.77 213.12 61.16H208.55C208.55 62.9 209.56 63.9 210.84 63.9C211.6 63.9 212.44 63.64 213.03 63.23C213.06 63.31 213.09 63.48 213.09 63.63C213.09 64.33 212.07 64.98 210.42 64.98C208.65 64.98 207.21 63.6 207.21 61.43C207.22 58.74 208.84 57.27 210.46 57.27V57.27ZM211.9 60.36C211.9 58.84 211.25 58.11 210.33 58.11C209.48 58.11 208.58 59.13 208.58 60.36H211.9ZM214.14 64.5C214.54 64.35 214.96 64.04 214.96 63.66V58.42L213.95 58V57.66C214.66 57.46 215.36 57.38 215.81 57.38H216.18V58.22C216.72 57.69 217.54 57.35 218.46 57.35C219.19 57.35 219.9 57.74 220.21 58.3C220.69 57.82 221.73 57.35 222.6 57.35C223.9 57.35 224.75 58.14 224.75 59.82V64.11L225.56 64.34V64.63C225.13 64.8 224.58 64.89 223.92 64.89C223.61 64.89 223.22 64.86 222.93 64.75V64.5C223.32 64.33 223.49 64.04 223.49 63.48V60.46C223.49 59.05 222.87 58.43 221.91 58.43C221.35 58.43 220.82 58.57 220.42 58.79C220.48 59.12 220.51 59.55 220.51 59.95V64.12L221.32 64.35V64.64C220.89 64.81 220.36 64.9 219.69 64.9C219.36 64.9 218.99 64.87 218.68 64.76V64.5C219.07 64.33 219.24 64.04 219.24 63.48V60.63C219.24 58.91 218.73 58.43 217.77 58.43C217.15 58.43 216.56 58.65 216.23 58.91V64.12L217.1 64.35V64.64C216.56 64.83 216.08 64.9 215.3 64.9C214.93 64.9 214.49 64.87 214.14 64.76V64.5V64.5ZM229.6 57.27C231.27 57.27 232.28 58.39 232.28 60.17C232.28 60.46 232.28 60.77 232.27 61.16H227.7C227.7 62.9 228.71 63.9 229.99 63.9C230.75 63.9 231.59 63.64 232.18 63.23C232.21 63.31 232.24 63.48 232.24 63.63C232.24 64.33 231.22 64.98 229.57 64.98C227.8 64.98 226.36 63.6 226.36 61.43C226.36 58.74 227.99 57.27 229.6 57.27V57.27ZM231.04 60.36C231.04 58.84 230.39 58.11 229.47 58.11C228.62 58.11 227.72 59.13 227.72 60.36H231.04ZM233.28 64.5C233.68 64.35 234.1 64.04 234.1 63.66V58.42L233.09 58V57.66C233.8 57.46 234.5 57.38 234.95 57.38H235.32V58.22C235.85 57.69 236.71 57.35 237.61 57.35C238.9 57.35 239.78 58.17 239.78 59.77V64.11L240.59 64.34V64.63C240.17 64.8 239.63 64.89 238.96 64.89C238.63 64.89 238.26 64.86 237.95 64.75V64.5C238.34 64.33 238.51 64.04 238.51 63.48V60.52C238.51 59 237.87 58.43 236.96 58.43C236.32 58.43 235.71 58.65 235.36 58.91V64.12L236.23 64.35V64.64C235.7 64.83 235.21 64.9 234.43 64.9C234.06 64.9 233.62 64.87 233.27 64.76V64.5H233.28ZM245.08 57.29C245.45 57.29 245.9 57.34 246.15 57.4V54.67L245.1 54.25V53.91C245.81 53.71 246.57 53.63 247.02 53.63H247.52L247.43 54.5V63.38C247.54 63.69 247.72 64.02 248.02 64.28C247.71 64.56 247.37 64.78 246.94 65.01C246.63 64.76 246.35 64.41 246.2 64.08C245.7 64.59 244.85 64.96 244.22 64.96C242.65 64.96 241.4 63.66 241.4 61.6C241.38 58.81 243.07 57.29 245.08 57.29V57.29ZM246.17 63.46V58.33C245.91 58.24 245.46 58.16 245.04 58.16C243.72 58.16 242.73 59.2 242.73 61.35C242.73 63.04 243.61 63.95 244.59 63.95C245.18 63.95 245.81 63.75 246.17 63.46V63.46ZM61.91 82.06C62.59 81.87 62.81 81.53 62.81 80.7V73.24L61.83 72.98V72.53C62.42 72.45 63.04 72.42 63.54 72.42H64.11L68.42 79.5L68.45 79.48V73.2L67.46 72.95V72.62C67.9603 72.4544 68.4831 72.3667 69.01 72.36C69.63 72.36 69.91 72.41 70.31 72.53V72.81C69.63 73.03 69.43 73.31 69.43 74.27V82.39L68.7 82.56L63.8 74.48L63.78 74.5V81.66L64.73 81.91V82.25C64.28 82.42 63.83 82.51 63.32 82.51C62.7 82.51 62.28 82.46 61.91 82.35V82.06V82.06ZM74.45 74.87C76.12 74.87 77.13 75.99 77.13 77.77C77.13 78.06 77.13 78.37 77.12 78.76H72.55C72.55 80.5 73.56 81.5 74.84 81.5C75.6 81.5 76.44 81.24 77.03 80.83C77.06 80.91 77.09 81.08 77.09 81.23C77.09 81.93 76.07 82.58 74.42 82.58C72.65 82.58 71.21 81.2 71.21 79.03C71.21 76.34 72.84 74.87 74.45 74.87V74.87ZM75.89 77.96C75.89 76.44 75.24 75.71 74.32 75.71C73.47 75.71 72.57 76.73 72.57 77.96H75.89ZM81.86 74.89C82.23 74.89 82.68 74.94 82.93 75V72.27L81.88 71.85V71.51C82.59 71.31 83.35 71.23 83.8 71.23H84.3L84.21 72.1V80.98C84.32 81.29 84.5 81.62 84.8 81.88C84.49 82.16 84.15 82.38 83.71 82.61C83.4 82.36 83.12 82.01 82.97 81.68C82.47 82.19 81.62 82.56 80.99 82.56C79.42 82.56 78.17 81.26 78.17 79.2C78.16 76.41 79.85 74.89 81.86 74.89V74.89ZM82.95 81.06V75.93C82.69 75.84 82.24 75.76 81.82 75.76C80.5 75.76 79.51 76.8 79.51 78.95C79.51 80.64 80.39 81.56 81.37 81.56C81.96 81.55 82.59 81.35 82.95 81.06ZM89.04 74.87C90.71 74.87 91.72 75.99 91.72 77.77C91.72 78.06 91.72 78.37 91.71 78.76H87.14C87.14 80.5 88.15 81.5 89.43 81.5C90.19 81.5 91.03 81.24 91.62 80.83C91.65 80.91 91.68 81.08 91.68 81.23C91.68 81.93 90.66 82.58 89.01 82.58C87.24 82.58 85.8 81.2 85.8 79.03C85.8 76.34 87.43 74.87 89.04 74.87V74.87ZM90.48 77.96C90.48 76.44 89.83 75.71 88.91 75.71C88.06 75.71 87.16 76.73 87.16 77.96H90.48ZM92.72 82.1C93.12 81.94 93.54 81.64 93.54 81.26V76.02L92.53 75.6V75.26C93.24 75.06 93.94 74.98 94.39 74.98H94.76V76.07H94.77L95.2 75.59C95.62 75.14 96.04 74.91 96.56 74.91C97.1 74.91 97.37 75.14 97.37 75.58C97.37 75.87 97.28 76.22 97.12 76.51C96.83 76.28 96.48 76.15 96.16 76.15C95.68 76.15 95.23 76.37 94.8 76.79V81.72L95.87 81.95V82.24C95.34 82.43 94.83 82.5 93.95 82.5C93.5 82.5 93.07 82.47 92.71 82.36V82.1H92.72ZM97.68 82.1C98.08 81.94 98.5 81.64 98.5 81.26V72.27L97.49 71.85V71.51C98.19 71.31 98.92 71.23 99.35 71.23H99.85L99.77 72.1V81.71L100.64 81.94V82.23C100.11 82.42 99.62 82.49 98.84 82.49C98.47 82.49 98.03 82.46 97.68 82.35V82.1V82.1ZM105.47 78.34V77.92C105.47 76.25 105.07 75.89 104.09 75.89C103.24 75.89 102.42 76.25 101.76 76.9C101.73 76.74 101.71 76.61 101.71 76.44C101.71 75.45 102.44 74.87 104.25 74.87C105.82 74.87 106.75 75.66 106.75 76.95C106.75 77.29 106.7 78.07 106.69 78.52L106.64 81.03C106.75 81.31 106.98 81.6 107.26 81.82C107.03 82.1 106.61 82.41 106.21 82.61C105.92 82.42 105.68 82.18 105.5 81.85C105.07 82.27 104.23 82.59 103.41 82.59C102.25 82.59 101.44 81.86 101.44 80.87C101.44 79.51 102.93 78.34 105.47 78.34V78.34ZM103.99 81.66C104.47 81.66 105.09 81.47 105.48 81.24V79.07C103.73 79.07 102.78 79.8 102.78 80.64C102.78 81.26 103.2 81.66 103.99 81.66V81.66ZM108.35 82.1C108.75 81.94 109.17 81.64 109.17 81.26V76.02L108.16 75.6V75.26C108.87 75.06 109.57 74.98 110.02 74.98H110.39V75.82C110.92 75.29 111.78 74.95 112.68 74.95C113.97 74.95 114.85 75.77 114.85 77.37V81.71L115.66 81.94V82.23C115.24 82.4 114.7 82.49 114.03 82.49C113.7 82.49 113.33 82.46 113.02 82.35V82.1C113.41 81.93 113.58 81.64 113.58 81.08V78.12C113.58 76.6 112.94 76.03 112.03 76.03C111.39 76.03 110.78 76.25 110.43 76.51V81.72L111.3 81.95V82.24C110.77 82.43 110.28 82.5 109.5 82.5C109.13 82.5 108.69 82.47 108.34 82.36V82.1H108.35ZM120.15 74.89C120.52 74.89 120.97 74.94 121.22 75V72.27L120.17 71.85V71.51C120.88 71.31 121.64 71.23 122.09 71.23H122.59L122.5 72.1V80.98C122.61 81.29 122.79 81.62 123.09 81.88C122.78 82.16 122.44 82.38 122 82.61C121.69 82.36 121.41 82.01 121.26 81.68C120.76 82.19 119.91 82.56 119.28 82.56C117.71 82.56 116.46 81.26 116.46 79.2C116.45 76.41 118.14 74.89 120.15 74.89V74.89ZM121.24 81.06V75.93C120.98 75.84 120.53 75.76 120.11 75.76C118.79 75.76 117.8 76.8 117.8 78.95C117.8 80.64 118.68 81.56 119.66 81.56C120.25 81.55 120.88 81.35 121.24 81.06Z" fill="black"/>
</svg>
