<?xml version="1.0" encoding="UTF-8"?><svg id="Logos" xmlns="http://www.w3.org/2000/svg" viewBox="0 0 504 144"><defs><style>.cls-1{fill:none;}.cls-1,.cls-2,.cls-3{stroke:#fff;stroke-miterlimit:10;stroke-width:5.31401px;}.cls-2{fill:#ce4d42;}.cls-4{fill:#fff;}.cls-3{fill:#5b7ebd;}</style></defs><path class="cls-3" d="M155.58348,99.68912l-18.18895,19.00341c-.39535.4128-.87382.74192-1.40542.96687-.53161.22494-1.10509.34091-1.68459.34059H48.08053c-.41143,0-.81388-.11716-1.15792-.33687-.34404-.21981-.61468-.53269-.77867-.90033-.16399-.36752-.21418-.77378-.14441-1.1688.06977-.39502.25646-.76157.53715-1.05459l18.20256-19.00342c.39436-.4117.8712-.74018,1.40105-.96501.52996-.22494,1.1016-.34145,1.67967-.34243h86.21923c.41138,0,.81382.11716,1.15811.33687.34364.21982.61418.5328.77891.90032.16364.36764.21383.77379.144,1.1688-.06982.39502-.25637.76156-.53673,1.05458h0Z"/><path class="cls-1" d="M137.39453,61.42167c-.39535-.4128-.87382-.74193-1.40542-.96687-.53161-.22484-1.10509-.3408-1.68459-.34047H48.08053c-.41143,0-.81388.11705-1.15792.33687-.34404.21982-.61468.53269-.77867.90022-.16399.36764-.21418.77389-.14441,1.16891.06977.39491.25646.76145.53715,1.05458l18.20256,19.00342c.39436.41171.8712.74007,1.40105.96502.52996.22483,1.1016.34146,1.67967.34232h86.21923c.41138,0,.81382-.11705,1.15811-.33687.34364-.21982.61418-.53269.77891-.90022.16364-.36764.21383-.77389.144-1.16891-.06982-.39491-.25637-.76145-.53673-1.05458l-18.18895-19.00342h0Z"/><path class="cls-2" d="M48.08053,47.77145h86.22399c.57949.00022,1.15298-.11564,1.68459-.34058.5316-.22495,1.01007-.55407,1.40542-.96687l18.18895-19.00343c.28036-.29304.4669-.65957.53673-1.05457.06982-.395.01964-.80124-.144-1.16882-.16472-.36758-.43527-.68049-.77891-.90028-.34429-.21979-.74673-.33689-1.15811-.3369h-86.21924c-.57807.00096-1.14971.11749-1.67967.34238-.52986.22489-1.00669.55335-1.40105.96505l-18.19787,19.00343c-.28041.29269-.46702.65891-.53695,1.05338-.06993.39458-.02014.80051.14328,1.16793.16341.36742.43334.68029.77667.90044.34334.22015.74515.33786,1.15617.33883Z"/><path class="cls-4" d="M217.4248,111.63867c-5.81152,0-10.82129-1.18848-15.03125-3.56445s-7.44824-5.74902-9.71289-10.11914c-2.26562-4.37012-3.39844-9.54688-3.39844-15.53027,0-5.83496,1.13281-10.95605,3.39844-15.36328,2.26465-4.40723,5.45898-7.8418,9.58301-10.30371s8.96875-3.69336,14.5332-3.69336c4.99805,0,9.50977,1.05859,13.53516,3.17578,4.02539,2.11816,7.2207,5.3125,9.58398,9.58398,2.36328,4.27246,3.5459,9.62109,3.5459,16.04688v4.32129h-38.63086v.03711c0,4.23438,1.15723,7.57031,3.47168,10.00781,2.31348,2.4375,5.44043,3.65625,9.38086,3.65625,2.63379,0,4.91113-.55371,6.83203-1.66113,1.91992-1.1084,3.27441-2.74512,4.0625-4.91211l14.55078.95996c-1.10742,5.26953-3.91406,9.47949-8.41992,12.63086s-10.26758,4.72754-17.28418,4.72754ZM204.83105,76.44238h23.82129c-.02539-3.37305-1.1084-6.15527-3.25-8.34668-2.14258-2.19141-4.9248-3.28711-8.34668-3.28711-3.49707,0-6.36523,1.13281-8.60547,3.39746-2.24121,2.26562-3.44727,5.01074-3.61914,8.23633Z"/><path class="cls-4" d="M264.46973,34.89355v75.63672h-15.7334V34.89355h15.7334Z"/><path class="cls-4" d="M313.36035,56.64648c-.2959-2.97852-1.57031-5.29297-3.82324-6.94336-2.25195-1.64844-5.28711-2.47363-9.10352-2.47363-3.91406,0-6.91895.7998-9.01074,2.40039-2.09375,1.60059-3.13965,3.61914-3.13965,6.05664-.0498,2.70898,1.11426,4.75879,3.49023,6.14941s5.20117,2.46875,8.47559,3.23145l6.7959,1.625c4.38184.98535,8.27832,2.41309,11.68848,4.28418s6.09375,4.27832,8.05176,7.21973c1.95703,2.94238,2.93555,6.51855,2.93555,10.72852-.02441,6.91895-2.61621,12.42773-7.77441,16.52734s-12.35352,6.14941-21.58594,6.14941c-9.18457,0-16.50879-2.09277-21.97461-6.27832s-8.29785-10.36523-8.49414-18.54004h15.47363c.27148,3.79199,1.7666,6.6416,4.4873,8.5498s6.16113,2.8623,10.32324,2.8623c4.0625,0,7.30566-.86133,9.73145-2.58594,2.4248-1.72266,3.64941-3.96387,3.6748-6.7207-.02539-2.56055-1.14551-4.53027-3.36133-5.90918s-5.37988-2.56055-9.49121-3.5459l-8.23633-2.06836c-6.37695-1.52637-11.41113-3.95117-15.10449-7.27539s-5.52832-7.76758-5.50293-13.33203c-.02539-4.58008,1.2002-8.58691,3.6748-12.02148s5.87793-6.10645,10.21094-8.01465c4.33398-1.90723,9.25781-2.8623,14.77344-2.8623,5.61328,0,10.51855.96094,14.7168,2.88086,4.19824,1.9209,7.46582,4.59277,9.80566,8.01465,2.33887,3.42285,3.5459,7.38574,3.61914,11.8916h-15.32617Z"/><path class="cls-4" d="M404.94238,72.71191c0,8.24902-1.55664,15.26562-4.67188,21.05176-3.11426,5.78613-7.34277,10.19922-12.68555,13.23926-5.34277,3.04102-11.36328,4.56152-18.05957,4.56152-6.72168,0-12.75391-1.52637-18.09668-4.58008-5.34277-3.05176-9.56543-7.47852-12.66797-13.27637-3.10156-5.79883-4.65332-12.79688-4.65332-20.99609,0-8.24805,1.55176-15.26465,4.65332-21.05078,3.10254-5.78613,7.3252-10.19922,12.66797-13.24023s11.375-4.56152,18.09668-4.56152c6.69629,0,12.7168,1.52051,18.05957,4.56152s9.57129,7.4541,12.68555,13.24023c3.11523,5.78613,4.67188,12.80273,4.67188,21.05078ZM388.72949,72.71191c0-8.02637-1.74805-14.15039-5.24414-18.37305s-8.14941-6.33398-13.95996-6.33398c-5.81152,0-10.46484,2.11133-13.95996,6.33398-3.49707,4.22266-5.24512,10.34668-5.24512,18.37305,0,8.00195,1.74805,14.12109,5.24512,18.35547,3.49512,4.23535,8.14844,6.35254,13.95996,6.35254,5.81055,0,10.46387-2.11719,13.95996-6.35254,3.49609-4.23438,5.24414-10.35352,5.24414-18.35547Z"/><path class="cls-4" d="M411.76855,110.53027V34.89355h15.99121v62.45215h32.42578v13.18457h-48.41699Z"/></svg>