<?xml version="1.0" encoding="UTF-8"?>
<svg xmlns="http://www.w3.org/2000/svg" version="1.1" viewBox="0 0 1245 237.2">
  <defs>
    <style>
      .cls-1 {
        fill: #1b1b1c;
      }

      .cls-2 {
        fill: #6dc4fe;
      }

      .cls-3 {
        fill: #f7f9fb;
        fill-rule: evenodd;
      }
    </style>
  </defs>
  <!-- Generator: Adobe Illustrator 28.6.0, SVG Export Plug-In . SVG Version: 1.2.0 Build 709)  -->
  <g>
    <g id="Layer_1">
      <path class="cls-2" d="M147.7,234.1C12.8,231.4,0,181.7,0,117.1S14.8,1.4,147.7,0c132.9-1.4,147.7,52.4,147.7,117.1s-12.8,119.8-147.7,117.1Z"/>
      <path class="cls-3" d="M106.5,193.5s0,0,0,0c-35.4,0-64.1-28.7-64.1-64.1s21.6-56.4,50.4-62.7c14.5-20.3,38.3-33.5,65.2-33.5,41.4,0,75.5,31.4,79.7,71.8,11,9.2,18.1,23,18.1,38.5,0,27.6-22.4,50.1-50.1,50.1s-.2,0-.3,0h-47.1c-.1,0-.2,0-.3,0s-.2,0-.3,0h-51ZM141.1,98.1c7.6,0,13.8-6.2,13.8-13.8s-6.2-13.8-13.8-13.8-13.8,6.2-13.8,13.8,6.2,13.8,13.8,13.8ZM196.1,98.1c7.6,0,13.8-6.2,13.8-13.8s-6.2-13.8-13.8-13.8-13.8,6.2-13.8,13.8,6.2,13.8,13.8,13.8ZM193.6,110.6c5.2-.7,9.6-1.4,12.3-1.4,6.5,0,11.8,5.3,11.8,11.8,0,27.1-22,49.1-49.1,49.1s-49.1-22-49.1-49.1,5.3-11.8,11.8-11.8,7.1.6,12.3,1.4c7.6,1.1,16.9,2.4,25.1,2.4s17.5-1.3,25.1-2.4h0ZM168.6,160.3c10.8,0,20.5-4.3,27.6-11.3h0c3.2-3.1,2.1-8.5-2-10.2-6.9-3-15.9-4.8-25.7-4.8s-18.8,1.8-25.7,4.8c-4.1,1.8-5.1,7.1-2,10.2,7.1,7,16.9,11.3,27.6,11.3h0Z"/>
      <g>
        <path class="cls-1" d="M1074.4,191.6v-123.4h26.2l1.9,14.1c3.1-4.2,6.5-7.4,10.1-9.6,3.8-2.3,7.6-4,11.5-4.9,4.1-.9,7.9-1.4,11.5-1.4,7.8,0,14.4,1.6,19.9,4.7,5.6,3.1,10,7.8,13.1,14.1,3.1-4.4,6.6-7.9,10.5-10.5,3.9-2.8,8-4.8,12.4-6.1,4.4-1.4,9-2.1,13.8-2.1,9.5,0,17.2,2,23,6.1,5.8,3.9,10,9.4,12.7,16.4,2.7,6.9,4,14.8,4,23.7v79.2h-28.6v-70c0-3.1-.2-6.4-.5-9.8-.3-3.4-1.2-6.6-2.6-9.6-1.2-3-3.1-5.4-5.6-7.3-2.5-1.9-6-2.8-10.6-2.8s-8.3,1-11.2,3c-2.8,1.9-5.2,4.5-7,7.7-1.7,3.1-3,6.6-3.7,10.5-.6,3.7-.9,7.5-.9,11.2v67h-28.6v-70.3c0-3-.2-6.1-.7-9.4-.3-3.4-1.1-6.6-2.3-9.6-1.1-3.1-3-5.6-5.6-7.5-2.5-1.9-6-2.8-10.5-2.8-6.6,0-11.6,1.8-15,5.4-3.3,3.6-5.5,8-6.8,13.1-1.1,5.2-1.6,10.1-1.6,14.8v66.3h-28.6Z"/>
        <path class="cls-1" d="M998.6,193.3c-17.8,0-31.5-4.6-41-13.8-9.4-9.2-14.1-23.3-14.1-42.2v-69.1h28.6v67.2c0,6.6.9,12.3,2.6,17.1,1.9,4.8,4.8,8.6,8.7,11.2,4.1,2.5,9.1,3.7,15.2,3.7s11.7-1.3,15.5-4c3.9-2.8,6.6-6.6,8.2-11.5,1.6-4.8,2.3-10.4,2.3-16.6v-67.2h28.6v69.1c0,19.4-4.8,33.6-14.5,42.6-9.5,8.9-22.9,13.4-40.1,13.4h0Z"/>
        <path class="cls-1" d="M900.5,193c-13.6,0-23.5-3.7-29.8-11.2-6.2-7.5-9.4-17.9-9.4-31.2v-57.2h-19v-25.3h19v-34.7h28.6v34.7h37.5v25.3h-37.5v51.8c0,4.1.5,7.7,1.4,11,.9,3.3,2.7,5.9,5.2,7.7,2.5,1.9,5.9,2.9,10.3,3,3.8,0,6.9-.6,9.6-1.9,2.7-1.2,4.8-2.7,6.6-4.2l9.6,21.8c-3,2.5-6.3,4.5-10.1,6.1-3.6,1.6-7.3,2.7-11,3.3-3.8.6-7.4.9-11,.9h0Z"/>
        <path class="cls-1" d="M778.7,193.3c-12.8,0-23.6-2.6-32.3-7.7-8.7-5.3-15.4-12.7-19.9-22.3s-6.8-20.5-6.8-33,2.3-23.5,7-33c4.7-9.7,11.6-17.3,20.6-22.7,9.1-5.5,20.1-8.2,33-8.2s18,1.6,25.3,4.9c7.5,3.3,13.5,8.1,18,14.5,4.7,6.2,7.7,14.1,8.9,23.4h-28.1c-1.9-5.9-5-10.2-9.4-12.9-4.2-2.8-9.3-4.2-15.2-4.2s-14.3,2-19,5.9c-4.5,3.7-7.8,8.5-9.8,14.3s-3,11.8-3,18,1.1,12.7,3.3,18.5c2.2,5.6,5.5,10.1,10.1,13.6,4.7,3.4,10.7,5.2,18,5.2s11.2-1.3,15.9-4c4.8-2.7,8-6.9,9.4-12.9h29c-1.1,9.5-4.3,17.5-9.6,23.9-5.2,6.2-11.7,10.9-19.7,14.1-8,3.1-16.6,4.7-25.8,4.7h0Z"/>
        <path class="cls-1" d="M587.9,191.6v-123.4h26.7l1.6,15.7c3.3-4.4,7.1-7.8,11.5-10.3,4.4-2.5,9-4.3,13.8-5.4,4.8-1.2,9.4-1.9,13.6-1.9,11.7,0,20.9,2.6,27.6,7.7,6.9,5.2,11.7,12,14.5,20.6s4.2,18.2,4.2,28.8v68.2h-28.6v-63.5c0-4.5-.3-8.9-.9-13.1-.6-4.4-1.9-8.3-3.7-11.7-1.7-3.4-4.2-6.2-7.5-8.2-3.3-2-7.7-3-13.1-3s-12.4,1.8-17.1,5.4-8.2,8.4-10.5,14.5c-2.3,5.9-3.5,12.7-3.5,20.4v59.3h-28.6Z"/>
        <path class="cls-1" d="M500.6,193.3c-5.8,0-11.2-.8-16.4-2.3-5.2-1.6-9.8-3.8-13.8-6.8-4.1-3.1-7.3-7-9.8-11.5-2.3-4.7-3.5-10.2-3.5-16.4s1.6-14.4,4.7-19.4c3.1-5.2,7.3-9.1,12.7-11.7,5.5-2.7,11.6-4.4,18.5-5.4,6.9-1.1,14.1-1.6,21.5-1.6h24.1c0-5.5-.9-10.2-2.6-14.1-1.7-4.1-4.5-7.3-8.2-9.6-3.6-2.3-8.3-3.5-14.1-3.5s-7.3.5-10.5,1.4c-3.1.8-5.9,2.1-8.2,4-2.2,1.7-3.7,4-4.7,6.8h-29.3c1.1-6.4,3.3-11.9,6.6-16.4,3.4-4.7,7.6-8.5,12.4-11.5,5-3,10.5-5.2,16.4-6.6,5.9-1.6,11.9-2.3,18-2.3,18,0,31,5.2,39.1,15.5,8.3,10.3,12.4,24.8,12.4,43.3v66.5h-25.3l-.7-15.9c-3.6,5.3-7.9,9.2-12.9,11.7-5,2.5-9.8,4.1-14.5,4.7-4.7.8-8.7,1.2-11.9,1.2h0ZM506.2,170.1c6.2,0,11.8-1.2,16.6-3.5,4.8-2.3,8.7-5.6,11.5-9.8,3-4.2,4.5-9.1,4.5-14.5v-4h-22.5c-3.7,0-7.5.2-11.2.5-3.6.2-6.9.8-9.8,1.9-3,.9-5.4,2.4-7.3,4.5-1.7,2-2.6,4.9-2.6,8.7s.9,6.8,2.8,9.1c2,2.3,4.6,4.1,7.7,5.4,3.3,1.2,6.7,1.9,10.3,1.9h0Z"/>
        <path class="cls-1" d="M391.6,193.3c-5.9,0-11.9-.6-17.8-1.9-5.8-1.2-11.2-3.3-16.4-6.1-5.2-3-9.4-7-12.9-11.9s-5.7-11.2-6.8-18.7h28.8c1.2,3.4,3.2,6.2,5.9,8.4,2.8,2,6,3.6,9.6,4.7,3.7.9,7.4,1.4,11,1.4s4.5-.2,7-.5c2.7-.3,5.1-.9,7.3-1.9,2.3-.9,4.2-2.3,5.6-4,1.4-1.9,2.1-4.3,2.1-7.3s-.8-5-2.3-6.6c-1.6-1.7-3.7-3-6.3-4-2.7-1.1-5.9-2-9.6-2.6-6.7-1.4-13.9-2.9-21.5-4.5-7.7-1.7-14.3-4.4-19.9-8-2.3-1.4-4.4-3-6.1-4.9s-3.2-3.9-4.5-6.1c-1.1-2.3-2-4.8-2.6-7.5-.5-2.7-.7-5.5-.7-8.7,0-6.6,1.3-12.1,4-16.6,2.8-4.7,6.5-8.4,11-11.2,4.7-3,10-5.2,15.9-6.6s12-2.1,18.3-2.1,16.1,1.3,23,4,12.6,6.7,17.1,12.2c4.7,5.5,7.5,12.4,8.4,20.8h-27.2c-.8-3.9-3.2-7-7.3-9.4-3.9-2.3-8.9-3.5-15-3.5s-4.5.2-6.8.7c-2.3.3-4.6.9-6.8,1.9-2,.8-3.7,2-5.2,3.7-1.2,1.7-1.9,3.8-1.9,6.3s.5,4.4,1.6,6.1c1.2,1.7,3,3.2,5.4,4.5,2.5,1.1,5.4,2,8.7,2.8,5.3,1.1,10.9,2.2,16.6,3.3s10.8,2.2,15,3.3c5,1.4,9.5,3.4,13.6,6.1,4.1,2.5,7.2,5.9,9.4,10.1,2.3,4.1,3.5,9.3,3.5,15.7s-1.6,13.7-4.7,18.7c-3,5-7,8.9-11.9,11.7s-10.5,4.8-16.6,6.1c-6.1,1.2-12.1,1.9-18,1.9h0Z"/>
      </g>
    </g>
  </g>
</svg>