<?xml version="1.0" encoding="UTF-8"?><svg id="Layer_1" xmlns="http://www.w3.org/2000/svg" viewBox="0 0 248.20001 100"><defs><style>.cls-1{fill:#fff;}.cls-2{fill:#154273;}</style></defs><g id="Layer_1-2"><path class="cls-2" d="M0,0h50v100H0V0Z"/><path class="cls-1" d="M25.9,77.4h-.9v-2.4h.9v2.4ZM29.9,66.7h-.9v-2.4h.9v2.4ZM13.8,62.6h-.5.5c.7.1,1,.5,1.5.5s.9-.3.7-.9c0-.1,0,0-.1,0,0,.3-.4.5-.8.5s-.6-.2-1.3-.2h0v.1ZM9,65c0,.1.9,1.2-.4,1.6v.1c.9.4,1.4-.3,1.4-.3.5,1.1-.2,1.7-.2,1.7.1.2.6.5,1.2.7.3-.1.6-.4.8-.8,0,0,.2.5,0,.9,1.9.2,2.6-1.3,4-1.1h0c0-.9-.6-2.7-2.4-3-1.8-.4-1.3-1.1-1.3-1.1.8,0,1.2.3,1.2.3.1-.2,0-.5,0-.5l.1-.4c-.9,0-1.1-.2-1.1-.2-.1-.5.2-1.2,1.5-.5.3-.3.3-.7.3-.7,0,0,.2-.2.2-.3,0-.2-1-.8-1.3-.8,0-.3-.5-.8-1.7-.6-.6,0-1,0-.8-.4h-.1c-.1.1-.3.5.2.8.6.3.6.8.6.9s-.1.1-.2,0c-.2-.9-1.5-1.1-2.3-.6,0,.5.6.8.9.8s.4-.2.4-.4,0-.1,0,0c.1.3-.4,1-1.1.6-.7.7-.4,1.7-.4,2,.1.6-.2,1.2-.7.9h0c0,.4.5.8,1.1.5h0l.1-.09998ZM13,61.2c-.4.4-.9.3-1.1-.3.7,0,1,0,1.1.3ZM35.1,62.7c-.4,0-.7-.2-.8-.5,0,0,0-.1-.1,0-.2.6.3.9.7.9s.8-.4,1.5-.5h.5-.5c-.7,0-.8.2-1.3.2h0v-.1ZM42.3,64.5h0c-.5.3-.8-.3-.7-.9,0-.3.4-1.2-.4-2-.7.4-1.2-.3-1.1-.6h0c0,.2.2.4.4.4.3,0,.8-.3.9-.8-.8-.5-2-.3-2.3.6,0,.1-.2.1-.2,0,0,0,0-.6.6-.9.5-.2.3-.6.2-.8,0,0-.2,0-.1,0,.2.3-.2.5-.8.4-1.2-.2-1.6.3-1.7.6-.3,0-1.3.6-1.3.8s0,.2.2.3c0,0,0,.4.3.7,1.3-.8,1.6,0,1.5.5,0,0-.2.2-1.1.2,0,0,0,.3.1.4,0,0-.2.2,0,.5,0,0,.4-.3,1.2-.3,0,0,.5.7-1.3,1.1-1.8.3-2.4,2.1-2.4,3s0,0,0,0c1.5-.3,2.1,1.2,4,1.1-.2-.4,0-.9,0-.9.1.4.5.7.8.8.7-.2,1.1-.5,1.2-.7,0,0-.7-.6-.2-1.7,0,0,.5.7,1.4.3v-.1c-1.3-.4-.4-1.5-.4-1.6.6.4,1.1,0,1.1-.5h0l.1.09998ZM38.1,60.9c-.1.6-.7.7-1,.3,0-.3.3-.4,1-.3ZM24.7,50.2c0,.2,0,.3.1.4.1.2,0,.2,0,.3h-.3c-.1,0-.2-.1-.4-.1-.3,0-.4.2-.4.3s.1.3.4.3.3,0,.4-.1c.2-.1.2,0,.3,0v1c-.5,0-.7.5-.7.7,0,.6.6.9.9,1.1.3-.2.9-.5.9-1.1s-.2-.6-.7-.7c0-.4-.1-1,0-1h.3s.2.1.4.1c.3,0,.4-.2.4-.3s-.1-.3-.4-.3-.3,0-.4.1c-.2.1-.2,0-.3,0v-.3s.1-.2.1-.4c0-.3-.2-.4-.3-.4s-.3.1-.3.4ZM25.1,54.3c-.1,0-.3,0-.4.1-.1,0-.2.2-.2.3v.4c0,.1,0,.2.2.3s.2.2.3.2h.4c.1,0,.2-.1.3-.2,0-.1.1-.2.1-.4s0-.3-.2-.5c-.1-.1-.3-.2-.5-.2h0ZM25.1,60.7c2.7,0,4.2.5,4.2.5,0-1.3,0-2.1.8-2-.4-1.1,1.4-1.6,1.4-3s-.7-1.1-.9-1.1c-.6,0-.5.4-1,.4s-.1,0-.1,0c0,.2.1.5.4.5s.3-.3.6-.3.2,0,.2.4c0,.6-.4,1.3-.9,1.9-.1-.2-.3-.2-.4-.2-.3,0-.5.3-.5.7s0,.2,0,.3c-.2,0-.3.1-.4.1-.2,0-.5,0-.5-.6,0-1.1,1.4-2,1.4-3.4s-.4-1.3-1.3-1.3-.8.9-1.6.9,0,0,0,0c0,0,.1.6.6.6s.6-.8,1-.8.4,0,.4.6-.2,1.1-.5,1.8c-.1-.1-.3-.2-.4-.2-.4,0-.6.4-.6.8s.1.5.3.7c-.2.3-.4.5-.7.5-.6,0-.8-.3-.8-.7s.7-.5.7-1.1-.3-.6-.5-.6-.4.2-.4.2c0,0-.2-.2-.5-.2s-.5.2-.5.6c0,.6.7.8.7,1.1s-.3.7-.8.7-.5-.2-.7-.5c.2-.2.3-.4.3-.7,0-.4-.3-.8-.6-.8h-.2s-.1,0-.2.1c-.3-.7-.5-1.3-.5-1.8s.2-.6.4-.6c.4,0,.5.8,1,.8s.6-.5.6-.6,0,0,0,0c-.8,0-.7-.9-1.6-.9s-1.3.6-1.3,1.3c0,1.4,1.4,2.3,1.4,3.4s-.3.6-.5.6-.2,0-.4-.1v-.3c0-.4-.2-.7-.5-.7s-.3,0-.4.2c-.5-.5-.9-1.2-.9-1.9s.2-.4.2-.4c.2,0,.2.3.6.3s.4-.3.4-.5,0,0-.1,0c-.5,0-.4-.4-1-.4s-.9.1-.9,1.1c0,1.5,1.8,1.9,1.4,3,.8-.1.8.6.8,2,0,0,1.5-.5,4.2-.5h0l-.9.1ZM20.2,62.7c-.7.2-1.2.3-1.5.4,0-.3.1-.6.4-.7h0c-.6-.4-1,.4-1,.4-.2,0-.6,0-.6.4,0,.9-2.1,1.4-2.6,1.5.9.3,1.2,1.4,1.2,1.4.6-.6,1.4-1.2,1.5-1.2s.2.2.2.3h0c.3-.5.2-.6.1-.8,0-.1,0-.5.5-.5v6.2h-.2c-.1,0-1-.7-2.1-1.4-1-.7-1.6-.3-2.8.3-1.6.8-3.1,0-3.1,0-1.3.9-1.8,3.7-1.8,3.7-.3.1-.7.2-1.1.2-1,0-1.2-.6-1.2-1,0-1.6,2-2.2,2-3.8s-.2-1.9-2.1-1.9h-1.7c-.7,0-.9-.5-1-.7,0,0-.1,0,0,0v.7c0,.6.4,1,1.1,1s.6,0,.7-.2h0c-.3.3-.3,1-.2,1.2h0c.2-.7.8-1.3,1.6-1.3s1,.9,1,1.1c0,1.3-2.2,2.2-2.2,3.9s1.9,2.1,2.9,1.9c0,1.8-2.1,2.4-2.1,1.1h0c-.2.6-.1,1.2.6,1.3h0c-.8.5-.4,2.4-.3,3,0,.8-.8.7-.8.7h0c.6.7,1.3,0,1.3,0,.5.2.2.6-.2.9h0s.9,0,1.1-.6c.4.4.9.3,1,.2.2,0,1-.4,1,.5h0c.6-.8,0-1.2-.4-1.3,0,0,.5-.4.9.1h0c0-.9-.7-1-1.2-.6,0,0-.2-.6.6-.6h0c-.6-.6-1.1,0-1.2,0-.3.3-.9.2-1,.2.2-3.3,3.1-2.1,3.5-3.7h0c.1.4,1.1.4,1.3-.3h0c-.8.8-2.7-1.8-.2-3.9,2.2-1.8,4.2-.8,4.9-.2,0,.3-.1.3-.2.4h0c.2,0,.5,0,.6-.1.5.3,0,.8-.1.9h0c.4,0,.8-.4.8-.6h0v1.9c0,2.7,3.1,3,6.4,5.3,3.4-2.3,6.4-2.6,6.4-5.3v-1.9h0c0,.2.4.7.8.6h0c-.2-.1-.6-.5-.1-.9.1.2.4.2.6.1h0s-.3-.1-.2-.4c.8-.6,2.7-1.6,4.9.2,2.6,2.1.7,4.7-.2,3.9h0c.2.8,1.2.7,1.3.3h0c.4,1.6,3.3.4,3.5,3.7,0,0-.7.1-1-.2-.1-.1-.6-.7-1.2,0h0c.8,0,.6.5.6.6-.5-.4-1.3-.3-1.2.6h0c.4-.6.9-.2.9-.1-.3,0-1,.5-.4,1.3h0c0-.9.9-.6,1-.5.1,0,.7.2,1-.2.2.7,1,.6,1.1.6h0c-.4-.2-.7-.7-.2-.9,0,0,.7.6,1.3,0h0s-.9.1-.8-.7c0-.6.5-2.5-.3-3h0c.8-.2.9-.7.6-1.3h0c0,1.3-2.1.7-2.1-1.1,1.1.3,2.9-.1,2.9-1.9s-2.2-2.7-2.2-3.9,0-1.1,1-1.1,1.5.6,1.6,1.3h0c.1-.2.1-.8-.2-1.2h0s.4.2.7.2c.7,0,1.1-.4,1.1-1s-.1-.6,0-.7h0c-.1.2-.3.7-1,.7h-1.7c-1.9,0-2.1,1.5-2.1,1.9,0,1.6,2,2.2,2,3.8s-.2,1-1.2,1-.9-.1-1.1-.2c0,0-.4-2.8-1.8-3.7,0,0-1.6.8-3.1,0-1.2-.6-1.7-1.1-2.8-.3-1,.7-1.9,1.5-2,1.5h-.2v-6.2c.5,0,.5.4.5.5s-.2.3.1.8h0c0-.1,0-.3.2-.3s.9.6,1.5,1.2c0,0,.4-1.1,1.2-1.4-.5,0-2.6-.6-2.6-1.5s-.3-.4-.6-.4c0,0-.4-.8-1-.4h0c.3,0,.4.4.4.7-.6-.2-3.2-.9-6.4-.9s-2.9.2-4,.4v2.1h-.9v-2h0l1.10001-.1ZM14.4,84.7c-.2,0-.4-.2-.4-.6v-1.3c-.4-.1-1.4-.5-3.5-.5s-2.3.4-2.3.5l-.5,2.5s.7-.6,3.2-.5c3,.2,6.1,2,6.1,0v-1.1c-2.4,0-2.7.8-2.7.9l.1.1ZM33,83.8v1.1c0,1.9,3.1.1,6.1,0,2.5-.2,3.2.5,3.2.5l-.5-2.5c0-.1-.6-.5-2.3-.5s-3.1.4-3.5.5v1.3c0,.3-.2.5-.4.6,0-.1-.4-.9-2.7-.9l.1-.1ZM25.1,82.6c4.9,0,9.8.2,10.4,1h0v-2.6c0-.8-5.1-1.2-10.5-1.2s-10.5.4-10.5,1.2v2.6h0c.7-.7,5.6-1,10.5-1h.1ZM20.7,70.5h-.5c0-.1,0,0,0,0l-.6-.2h.5c-.2-.2-.4-.4-.4-.4,0,0,.2,0,.6.2h0l-.4-.5.6.4h0l-.3-.6.5.5h0v-.7c-.1,0,.2.5.2.5h0v-.6s.2.4.2.5h0l.2-.5v.6h0v.7c.6-.2,1.6-1.4,2.2-1.4s1.1,1,2.7.5c.4.6.5,1.1.7,1.8.6.6,1.4.4,1.4-.2s-.9-.9-.9-1.8.3-.9,1-.9.9.2,1.2.2.5-.3.5-.4h.1v.4c0,.5-.8.6-.9.5h0c.1,0,0,.4,0,.6h0c0-.4-.5-.9-.9-.9s-.4,0-.4.4.9.9.9,1.9-1,1.3-2,1c0,1,1.5,1.5,1.5.9h0c.2.3.1.5-.2.6.2.1.3.6.4.9.1.5.6.2.6.2h0c-.2.5-.7.3-.7.3-.2.2,0,.3.3.4h0c-.2,0-.5.2-.7-.1-.1.3-.4.3-.5.3-.2,0-.3.2-.3.5h0c-.4-.3-.2-.6,0-.7,0,0-.3-.2-.5.2h0c-.2-.5.2-.7.5-.5,0,0-.2-.3-.6-.2h0c0-.2.3-.4.6-.2.2.1.5,0,.5,0-.6-1.3-1.9-.2-2.2-1.2h0c0,.2-.6.2-.7-.2h0s.2.2.5-.2c.1-.2.2-.5.2-.7,0-.8-.8-2.1-2-2.1s-1.6.3-2.2.8h.6c0,.7-.6,1-1.1.9v-.7s-.2.1-.3.3h0c0-.4.2-.6.3-.6q.06667,0,0,0c-.3,0-.4.2-.5.3h0s0-.3.1-.4h0l.2-.40004ZM22.4,74.9c-.2.3-.4,0-.7,0s-.3.2-.3.3,0,0,0,0c-.3-.4,0-.7.2-.7,0,0-.3-.2-.5,0h0c0-.5.4-.6.7-.3,0-.2,0-.3-.3-.3h0s.2-.1.3-.1c.3,0,.3.4.5.4.3,0,.7-.4.7-.4,0,0-.3-.8-.2-1.2h0c-.1,0-.5,0-.5-.4s0,0,0,0c.2.2.4,0,.5-.2.1-.1.9-1.2,1.8-1.2s.5.1.7.3c-.3.4,0,.8.2.7h0c-1.3.5-1.8.7-1.8,1.7s.2.9.5.8h0c-.1.1-.2.2-.4.2-.3,0-.3-.1-.4-.1s-.6.3-.6.5,0,.2.2.3h0c-.1,0-.5,0-.6-.3h0ZM25.8,64.7c-.4,0-.6,0-.6.2.2.2.4.2.6-.2ZM24.3,65.7h.6c-.6,0-.6.3-1,.3s-.5-.2-.4-.6h0c0,.2.3.3.7.2h0l.1.1ZM16.8,78.5c.4.5.8,0,1.3,0s.6,0,.6.6h0c.6-.8,0-1.2-.4-1.2,0,0,.6-.4,1,0h0c0-1-.7-1-1.2-.6-.1-.4.2-.6.5-.6s0,0,0,0c-.6-.7-1.1.2-1.2.3-.2.3-1.2-.3-1.5-.7,0,0,.8-.8.8-1.6s0-.1,0-.1h.3c.2,0,.5,0,.5-.7s0,0,0,0c-.1.1-.2.2-.3.2-.6,0-2-2.2-3.6-2.2s-1.2.3-1.6.7c.2.1.2.3.2.5,0,.3-.2.4-.5.5h0c.8.3,2.3.9,2.6,1.2.4.3.3,1,0,1.9-.2.8-.7.7-.9.7h0c.2.3.5.3.7.3.4,0,.6-.3.8-.3.4,0,1.1.5,1.1.9s-.2.4-.4.6h0c.2,0,.9,0,1-.6h0l.2.19999ZM34.4,79.1h0c-.2-.2-.4-.4-.4-.6,0-.4.8-.9,1.1-.9s.4.3.8.3.5,0,.7-.3h0c-.2,0-.6.1-.9-.7-.2-.9-.3-1.5,0-1.9.3-.3,1.8-.8,2.6-1.2h0c-.2,0-.4-.2-.5-.5,0-.2,0-.4.2-.5-.4-.4-1.2-.7-1.6-.7-1.6,0-2.9,2.2-3.6,2.2s-.2,0-.3-.2h0c0,.6.3.7.5.7h.3v.1c0,.8.8,1.6.8,1.6-.4.4-1.3,1-1.5.7-.1-.1-.6-1-1.2-.3h0c.4,0,.6.2.5.6-.5-.4-1.2-.3-1.2.6s0,0,0,0c.3-.5.9-.2,1,0-.4,0-1,.5-.4,1.2h0c0-.5.4-.6.6-.6.5,0,.9.5,1.3,0,.2.6.9.6,1,.6h0l.2-.19999ZM21.5,66.6h-.3s.2.4.4.4.3,0,.3-.1c0,0,.9.3,1.4.4-.2.2-.3.5-.3.8-.4-.2-1.9-1-1.9-1l-.5.6s-.4-.2-.4-.3l.3-.5c-.1-.1-.4,0-.5,0h0s.2-.4.7-.3c0-.3-.4-.2-.5-.1h0c.1-.1.4-.4.8-.2l.2-.2-.3-.3.2-.3.2.3,1.7-2.4s.4-.2.5-.2v.5l-1.7,2.4h.4c0,.1-.2.4-.2.4l-.4-.2-.2.3h.1ZM27.6,66.2c0,.2.1.5.4.4h0c0,.2-.5.5-.7.2-.2.4-.1.7.2.9h0c-.2.2-.6.1-.7-.2-.3.2-.3.7,0,.9,0,0-.9.5-1.6.2-.5-.2-.9-.6-1.6-.5,0-.9.6-1.2,1.4-1.3.7-.1.8-.4.7-.7-.2,0-.7.1-.7.1v-.5c.5,0,.6-.1.6-.1,0-.5-.4-.6-.8-.3-.2-.2-.2-.4-.2-.4h0c0-.1.6-.4.7-.5,0-.2.2-.4.9-.3,0-.2,0-.7-.1-.9h0c.2.1.4.6.6.6,0,0,.7-.4.7-.3l.1.8c0,.1.6,0,.9.1h0c-.2,0-.7.3-.8.4.3.5.2,1.2.2,1.3h0l-.2.10001Z"/><path class="cls-1" d="M61.9,64.5c.6-.2.9-.5.9-1.2v-7.6l-1-.3v-.3c1-.2,1.9-.2,3.1-.2,2.3,0,3.5.9,3.5,2.6s-.8,2.5-2.2,3l2.2,2.9c.4.5.9.9,1.4,1v.3c-.3.2-.7.3-1.2.3s-1.1-.3-1.7-1.1l-2.1-3.1h-.7v3.3l1,.2v.3c-.5.2-1.1.3-1.8.3s-1,0-1.5-.2v-.3h0l.09999.09998ZM64.8,60c1.2,0,2.2-.8,2.2-2.4s-.8-2-2.1-2-.5,0-.7,0v4.3h.6v.1ZM70.6,64.5c.4-.2.8-.5.8-.8v-5.2l-1-.4v-.3c.7-.2,1.4-.3,1.8-.3h.5v6.7l.9.2v.3c-.5.2-1,.3-1.8.3s-.8,0-1.2-.1v-.2h0v-.2ZM71.2,55.1c0-.5.3-.9.9-.9s.8.3.8.8-.4,1-.9,1-.8-.4-.8-.9h0ZM75.1,58.4l-1-.4v-.3c.7-.2,1.4-.3,1.9-.3h.5v7.9c0,2.5-.8,3.3-1.8,3.3s-.7-.1-.9-.4v-.2c.7,0,1.3-.8,1.3-2.4v-7.1h0v-.10001ZM74.9,55.1c0-.5.3-.9.9-.9s.8.3.8.8-.4,1-.9,1-.8-.4-.8-.9h0ZM77.9,64.5c.4-.2.8-.5.8-.8v-9l-1-.4v-.3c.7-.2,1.4-.3,1.9-.3h.5v7.1l.8-.7c.8-.7,1.6-1.8,1.6-2.5.3,0,.5-.1.8-.1s.4,0,.6.1c0,.7-.7,1.7-2.1,2.7l-.5.4,2.4,2.9c.4.5.8.7,1.2.7v.3c-.3.2-.7.3-1.2.3s-.8-.2-1.1-.6l-2.5-3.3v3.1l.8.2v.3c-.6.2-1,.2-1.8.2s-.8,0-1.2-.1v-.3h0l-.00002.09999ZM85.4,63.1c.7.6,1.4,1,2.2,1s1.3-.4,1.3-1-.3-.9-1.3-1.3l-.8-.3c-.9-.4-1.4-1-1.4-1.9s1.1-2.3,2.7-2.3,1.7.4,1.7,1v.7c-.5-.3-1.2-.6-1.8-.6-1,0-1.5.4-1.5,1s.3.9,1.2,1.2l.8.3c1.1.4,1.5,1,1.5,1.9s-1.2,2.3-2.9,2.3-2-.4-2-1.3c0-.2,0-.5.1-.6h0l.20002-.10001ZM94.8,57.3c.4,0,.8,0,1.1.1v-2.7l-1-.4v-.3c.7-.2,1.5-.3,1.9-.3h.5v9.8c.1.3.3.6.6.9-.3.3-.7.5-1.1.7-.3-.2-.6-.6-.7-.9-.5.5-1.3.9-2,.9-1.6,0-2.8-1.3-2.8-3.4,0-2.8,1.7-4.3,3.7-4.3h0l-.2-.1ZM95.8,63.5v-5.1c-.3,0-.7-.2-1.1-.2-1.3,0-2.3,1-2.3,3.2s.9,2.6,1.9,2.6,1.2-.2,1.6-.5h-.1ZM98.8,64.5c.4-.2.8-.5.8-.8v-5.2l-1-.4v-.3c.7-.2,1.4-.3,1.8-.3h.5v6.7l.9.2v.3c-.5.2-1,.3-1.8.3s-.8,0-1.2-.1v-.2h0v-.2ZM99.5,55.1c0-.5.3-.9.9-.9s.8.3.8.8-.4,1-.9,1-.8-.4-.8-.9h0ZM105.8,57.3c1.7,0,2.7,1.1,2.7,2.9s0,.6,0,1h-4.6c0,1.7,1,2.7,2.3,2.7s1.6-.3,2.2-.7v.4c0,.7-1,1.4-2.7,1.4s-3.2-1.4-3.2-3.6c0-2.7,1.6-4.2,3.2-4.2h0l.1.1ZM107.3,60.4c0-1.5-.7-2.2-1.6-2.2s-1.8,1-1.8,2.2h3.4ZM109.5,64.5c.4-.2.8-.5.8-.8v-5.2l-1-.4v-.3c.7-.2,1.4-.3,1.9-.3h.4v.8c.5-.5,1.4-.9,2.3-.9,1.3,0,2.2.8,2.2,2.4v4.3l.8.2v.3c-.4.2-1,.3-1.6.3s-.7,0-1-.1v-.2c.4-.2.6-.5.6-1v-3c0-1.5-.6-2.1-1.5-2.1s-1.2.2-1.6.5v5.2l.9.2v.3c-.5.2-1,.3-1.8.3s-.8,0-1.2-.1v-.3h0l-.20001-.10001ZM117.9,63.1c.7.6,1.4,1,2.2,1s1.3-.4,1.3-1-.3-.9-1.3-1.3l-.8-.3c-.9-.4-1.4-1-1.4-1.9s1.1-2.3,2.7-2.3,1.7.4,1.7,1v.7c-.5-.3-1.2-.6-1.8-.6-1,0-1.5.4-1.5,1s.3.9,1.2,1.2l.8.3c1.1.4,1.5,1,1.5,1.9s-1.1,2.3-2.9,2.3-2-.4-2-1.3c0-.2,0-.5.1-.6h0l.20002-.10001ZM124.2,60.5v-2.1h-.8v-.5l1.7-1.7h.5v1.3h2.1v.8h-2.1v3.8c0,1.3.4,1.7.9,1.7s.8-.2,1.2-.4h.2c0,1-.6,1.4-1.7,1.4s-1.8-.7-1.8-2.2v-2.3h0l-.19999.2ZM130.60001,58.2l-.60001-.5v-.4h3v.4l-.89999.4,1.7,4.9h0l1.7-4.9-.89999-.4v-.4h2.39999v.4l-.39999.4-2.8,6.8h-.5l-2.60001-6.7h-.09999ZM140.7,57.3c1.89999,0,3.39999,1.4,3.39999,3.6s-1.8,4.2-3.60001,4.2-3.39999-1.3-3.39999-3.6c0-2.5,1.8-4.2,3.7-4.2h-.09999ZM140.5,64.1c1,0,2.10001-1,2.10001-3.1s-1-2.8-2.10001-2.8-2.10001,1.1-2.10001,3.1,1,2.8,2.10001,2.8ZM148.8,57.3c1.89999,0,3.39999,1.4,3.39999,3.6s-1.8,4.2-3.60001,4.2-3.39999-1.3-3.39999-3.6c0-2.5,1.8-4.2,3.60001-4.2h0ZM148.60001,64.1c1,0,2.10001-1,2.10001-3.1s-1-2.8-2.10001-2.8-2.10001,1.1-2.10001,3.1,1,2.8,2.10001,2.8ZM153.10001,64.5c.39999-.2.8-.5.8-.8v-5.2l-1-.4v-.3c.7-.2,1.39999-.3,1.89999-.3h.39999v1.1h0l.39999-.5c.39999-.5.8-.7,1.39999-.7s.8.2.8.7,0,.6-.2.9c-.3-.2-.60001-.4-1-.4-.5,0-.89999.2-1.39999.6v4.9l1.10001.2v.3c-.5.2-1,.3-1.89999.3s-.89999,0-1.2-.1v-.2h0l-.10001-.10001ZM165.7,54.7c2.3,0,4.10001,1.8,4.10001,4.7s-2.2,5.6-4.7,5.6-4.10001-1.9-4.10001-4.9,2.3-5.4,4.7-5.4h0ZM168.2,59.7c0-2.7-1.3-4-2.8-4s-3,1.5-3,4.2,1.3,4.1,2.7,4.1,3-1.4,3-4.4l.10001.1ZM171,64.5c.39999-.2.8-.5.8-.8v-5.2l-1-.4v-.3c.7-.2,1.39999-.3,1.89999-.3h.39999v.8c.5-.5,1.39999-.9,2.3-.9,1.3,0,2.2.8,2.2,2.4v4.3l.8.2v.3c-.39999.2-1,.3-1.60001.3s-.7,0-1-.1v-.2c.39999-.2.60001-.5.60001-1v-3c0-1.5-.60001-2.1-1.60001-2.1s-1.3.2-1.60001.5v5.2l.89999.2v.3c-.5.2-1,.3-1.8.3s-.8,0-1.2-.1v-.3h0l-.09998-.10001ZM182.8,57.3c.39999,0,.8,0,1.10001.1v-2.7l-1.10001-.4v-.3c.7-.2,1.5-.3,1.89999-.3h.5v9.8c.10001.3.3.6.60001.9-.3.3-.60001.5-1.10001.7-.3-.2-.60001-.6-.7-.9-.5.5-1.39999.9-2,.9-1.60001,0-2.8-1.3-2.8-3.4,0-2.8,1.7-4.3,3.7-4.3h0l-.09999-.1ZM183.89999,63.5v-5.1c-.3,0-.7-.2-1.10001-.2-1.3,0-2.3,1-2.3,3.2s.89999,2.6,1.89999,2.6,1.2-.2,1.60001-.5h-.09999ZM190,57.3c1.7,0,2.7,1.1,2.7,2.9s0,.6,0,1h-4.60001c0,1.7,1,2.7,2.3,2.7s1.60001-.3,2.2-.7v.4c0,.7-1,1.4-2.7,1.4s-3.2-1.4-3.2-3.6c0-2.7,1.60001-4.2,3.2-4.2h0l.10001.1ZM191.39999,60.4c0-1.5-.7-2.2-1.60001-2.2s-1.8,1-1.8,2.2h3.40001ZM193.60001,64.5c.39999-.2.8-.5.8-.8v-5.2l-1-.4v-.3c.7-.2,1.39999-.3,1.89999-.3h.39999v1.1h0l.39999-.5c.39999-.5.8-.7,1.39999-.7s.8.2.8.7,0,.6-.2.9c-.3-.2-.60001-.4-1-.4-.5,0-.89999.2-1.39999.6v4.9l1.10001.2v.3c-.5.2-1,.3-1.89999.3s-.89999,0-1.2-.1v-.2h0l-.10001-.10001ZM199.10001,64.5c.39999-.2.8-.5.8-.8v-5.2l-1-.4v-.3c.7-.2,1.39999-.3,1.89999-.3h.39999v.8c.5-.5,1.39999-.9,2.3-.9,1.3,0,2.2.8,2.2,2.4v4.3l.8.2v.3c-.39999.2-1,.3-1.60001.3s-.7,0-1-.1v-.2c.39999-.2.60001-.5.60001-1v-3c0-1.5-.60001-2.1-1.60001-2.1s-1.3.2-1.60001.5v5.2l.89999.2v.3c-.5.2-1,.3-1.8.3s-.8,0-1.2-.1v-.3h0l-.09998-.10001ZM210.5,57.3c1.7,0,2.7,1.1,2.7,2.9s0,.6,0,1h-4.60001c0,1.7,1,2.7,2.3,2.7s1.60001-.3,2.2-.7v.4c0,.7-1,1.4-2.7,1.4s-3.2-1.4-3.2-3.6c0-2.7,1.60001-4.2,3.2-4.2h0l.10001.1ZM211.89999,60.4c0-1.5-.60001-2.2-1.60001-2.2s-1.8,1-1.8,2.2h3.40001ZM214.10001,64.5c.39999-.2.8-.5.8-.8v-5.2l-1-.4v-.3c.7-.2,1.39999-.3,1.89999-.3h.39999v.8c.5-.5,1.39999-.9,2.3-.9s1.39999.4,1.8,1c.5-.5,1.5-1,2.39999-1,1.3,0,2.10001.8,2.10001,2.5v4.3l.8.2v.3c-.39999.2-1,.3-1.60001.3s-.7,0-1-.1v-.2c.39999-.2.60001-.5.60001-1v-3c0-1.4-.60001-2-1.60001-2s-1.10001.1-1.5.4v5.4l.8.2v.3c-.39999.2-1,.3-1.60001.3s-.7,0-1-.1v-.3c.39999-.2.60001-.5.60001-1v-2.8c0-1.7-.5-2.2-1.5-2.2s-1.2.2-1.5.5v5.2l.89999.2v.3c-.5.2-1,.3-1.8.3s-.8,0-1.2-.1v-.3h0l-.09999-.50001ZM229.60001,57.3c1.7,0,2.7,1.1,2.7,2.9s0,.6,0,1h-4.60001c0,1.7,1,2.7,2.3,2.7s1.60001-.3,2.2-.7v.4c0,.7-1,1.4-2.7,1.4s-3.2-1.4-3.2-3.6,1.60001-4.2,3.2-4.2h0l.10001.1ZM231,60.4c0-1.5-.60001-2.2-1.60001-2.2s-1.8,1-1.8,2.2h3.40001ZM233.3,64.5c.39999-.2.8-.5.8-.8v-5.2l-1-.4v-.3c.7-.2,1.39999-.3,1.89999-.3h.39999v.8c.5-.5,1.39999-.9,2.3-.9,1.3,0,2.2.8,2.2,2.4v4.3l.8.2v.3c-.39999.2-1,.3-1.60001.3s-.7,0-1-.1v-.2c.39999-.2.60001-.5.60001-1v-3c0-1.5-.60001-2.1-1.5-2.1s-1.2.2-1.60001.5v5.2l.89999.2v.3c-.5.2-1,.3-1.8.3s-.8,0-1.2-.1v-.3h0l-.19998-.10001ZM245.10001,57.3c.39999,0,.8,0,1.10001.1v-2.7l-1-.4v-.3c.7-.2,1.5-.3,1.89999-.3h.5v9.8c.10001.3.3.6.60001.9-.3.3-.7.5-1.10001.7-.3-.2-.60001-.6-.7-.9-.5.5-1.3.9-2,.9-1.60001,0-2.8-1.3-2.8-3.4,0-2.8,1.7-4.3,3.7-4.3h0l-.2-.1ZM246.2,63.5v-5.1c-.3,0-.7-.2-1.10001-.2-1.3,0-2.3,1-2.3,3.2s.89999,2.6,1.89999,2.6,1.2-.2,1.60001-.5h-.09999ZM61.9,82.1c.7-.2.9-.5.9-1.4v-7.5l-1-.3v-.5c.6,0,1.2-.1,1.7-.1h.6l4.3,7.1h0v-6.3l-1-.2v-.3c.5-.2,1-.3,1.6-.3s.9,0,1.3.2v.3c-.7.2-.9.5-.9,1.5v8.1l-.7.2-4.9-8.1h0v7.2l1,.2v.3c-.5.2-.9.3-1.4.3s-1,0-1.4-.2v-.3h0l-.10001.10001ZM74.4,74.9c1.7,0,2.7,1.1,2.7,2.9s0,.6,0,1h-4.6c0,1.7,1,2.7,2.3,2.7s1.6-.3,2.2-.7v.4c0,.7-1,1.3-2.7,1.3s-3.2-1.4-3.2-3.6,1.6-4.2,3.2-4.2h0l.1.19999ZM75.9,78c0-1.5-.7-2.2-1.6-2.2s-1.8,1-1.8,2.2h3.4ZM81.9,74.9c.4,0,.8,0,1.1.1v-2.7l-1.1-.4v-.3c.7-.2,1.5-.3,1.9-.3h.5v9.8c.1.3.3.6.6.9-.3.3-.7.5-1.1.7-.3-.2-.6-.6-.7-.9-.5.5-1.3.9-2,.9-1.6,0-2.8-1.3-2.8-3.4,0-2.8,1.7-4.3,3.7-4.3h0l-.1-.09999ZM82.9,81.1v-5.1c-.3,0-.7-.2-1.1-.2-1.3,0-2.3,1-2.3,3.2s.9,2.6,1.9,2.6c.6,0,1.2-.2,1.6-.5h-.1ZM89,74.9c1.7,0,2.7,1.1,2.7,2.9s0,.6,0,1h-4.6c0,1.7,1,2.7,2.3,2.7s1.6-.3,2.2-.7v.4c0,.7-1,1.3-2.7,1.3s-3.2-1.4-3.2-3.6,1.6-4.2,3.2-4.2h0l.1.19999ZM90.5,78c0-1.5-.7-2.2-1.6-2.2s-1.8,1-1.8,2.2h3.4ZM92.7,82.1c.4-.2.8-.5.8-.8v-5.2l-1-.4v-.3c.7-.2,1.4-.3,1.9-.3h.4v1.1h0l.4-.5c.4-.4.8-.7,1.4-.7s.8.2.8.7,0,.6-.2.9c-.3-.2-.6-.4-1-.4-.5,0-.9.2-1.4.6v4.9l1.1.2v.3c-.5.2-1,.3-1.9.3s-.9,0-1.2-.1v-.3h-.10001ZM97.7,82.1c.4-.2.8-.5.8-.8v-9l-1-.4v-.3c.7-.2,1.4-.3,1.9-.3h.5v10.5l.9.2v.3c-.5.2-1,.3-1.8.3s-.8,0-1.2-.1v-.2h0l-.10001-.2ZM105.5,78.3v-.4c0-1.7-.4-2-1.4-2s-1.7.4-2.3,1v-.5c0-1,.7-1.6,2.5-1.6s2.5.8,2.5,2.1v4.1c0,.3.3.6.6.8-.2.3-.7.6-1.1.8-.3-.2-.5-.4-.7-.8-.4.4-1.3.7-2.1.7-1.2,0-2-.7-2-1.7s1.5-2.5,4-2.5h0ZM104,81.7c.5,0,1.1-.2,1.5-.4v-2.2c-1.8,0-2.7.7-2.7,1.6s.4,1,1.2,1h0ZM108.3,82.1c.4-.2.8-.5.8-.8v-5.2l-1-.4v-.3c.7-.2,1.4-.3,1.9-.3h.4v.8c.5-.5,1.4-.9,2.3-.9,1.3,0,2.2.8,2.2,2.4v4.3l.8.2v.3c-.4.2-1,.3-1.6.3s-.7,0-1-.1v-.2c.4-.2.6-.5.6-1v-3c0-1.5-.6-2.1-1.6-2.1s-1.2.2-1.6.5v5.2l.9.2v.3c-.5.2-1,.3-1.8.3s-.8,0-1.2-.1v-.3h0l-.10001-.10001ZM120.2,74.9c.4,0,.8,0,1.1.1v-2.7l-1.1-.4v-.3c.7-.2,1.5-.3,1.9-.3h.5v9.8c.1.3.3.6.6.9-.3.3-.6.5-1.1.7-.3-.2-.6-.6-.7-.9-.5.5-1.3.9-2,.9-1.6,0-2.8-1.3-2.8-3.4,0-2.8,1.7-4.3,3.7-4.3h0l-.1-.09999ZM121.2,81.1v-5.1c-.3,0-.7-.2-1.1-.2-1.3,0-2.3,1-2.3,3.2s.9,2.6,1.9,2.6c.6,0,1.2-.2,1.6-.5h-.1Z"/></g></svg>