<?xml version="1.0" encoding="UTF-8"?><svg id="Layer_1" xmlns="http://www.w3.org/2000/svg" viewBox="0 0 337.80899 133.3072"><defs><style>.cls-1{fill:#3a7861;}</style></defs><path class="cls-1" d="M87.8331,71.1178c0,17.6154-6.0218,32.3924-18.0651,44.2974-12.0433,11.939-26.7166,17.892-44.0202,17.892H0v-25.54h25.7478c10.2437,0,18.8608-3.496,25.8515-10.521,6.9906-6.991,10.486-15.71159,10.486-26.0938l-.2076-71.1524h25.9554v71.1178Z"/><path class="cls-1" d="M106.347,1.2117h25.748l-.41501,25.1249h-25.53999l.207-25.1249ZM106.347,36.5111h25.748v96.7621h-25.955l.207-96.7621Z"/><path class="cls-1" d="M177.02,27.5786h44.228v25.7478h-44.64301v35.64581c0,5.294,1.66101,9.724,5.01801,13.323,3.35699,3.6,7.54401,5.434,12.562,5.434h26.821v25.54001h-26.578c-12.18199,0-22.45999-4.326-30.83499-13.01201-8.375-8.687-12.563-19.242-12.563-31.735V.3428h25.54001l.41599,27.2012.03401.0346Z"/><path class="cls-1" d="M322.44299,118.1132c-10.24298,10.14-22.771,15.192-37.58301,15.192s-27.513-5.08701-37.68698-15.29601c-10.175-10.209-15.26201-22.702-15.26201-37.5489s5.12201-27.3743,15.36501-37.6527c10.24399-10.2783,22.772-15.4002,37.58398-15.4002s27.34003,5.1219,37.58301,15.4002c10.24402,10.2784,15.366,22.8062,15.366,37.6527s-5.12198,27.5469-15.366,37.6529ZM303.85901,60.7688c-5.052-5.0873-11.38501-7.6136-18.99902-7.6136s-14.05099,2.63-19.31097,7.9249c-5.26001,5.29491-7.89001,11.732-7.89001,19.3802s2.63,14.1199,7.89001,19.3799c5.25998,5.295,11.69699,7.925,19.31097,7.925s14.22403-2.595,19.41501-7.821c5.19101-5.22601,7.78601-11.697,7.78601-19.4839,0-7.3713-3.14902-14.6043-8.202-19.6915Z"/></svg>