<svg width="4988" height="1628" viewBox="0 0 4988 1628" fill="none" xmlns="http://www.w3.org/2000/svg">
<g clip-path="url(#clip0_4_2)">
<path d="M723.5 318L226 817H443.5L580 680.5V1166L723.5 1309.5V318Z" fill="white"/>
<path d="M883 318L1380.5 817H1163L1026.5 680.5V1166L883 1309.5V318Z" fill="white"/>
<path d="M2068.2 669V565.8H1613V669H1785V1113H1897V669H2068.2ZM2551.71 1113V1008.2H2282.91V883.4H2502.11V781.8H2282.91V669H2551.71V565.8H2170.11V1113H2551.71ZM3093.63 1113V565.8H2980.83V905H2976.03L2777.63 565.8H2669.63V1113H2781.63V782.6H2786.43L2984.03 1113H3093.63ZM3313.14 943.4L3200.34 972.2V986.6C3200.34 1075.4 3253.94 1113 3345.94 1113H3451.54C3543.54 1113 3602.74 1073 3602.74 983.4V913C3602.74 824.2 3554.74 784.2 3462.74 784.2H3361.94C3325.94 784.2 3313.14 770.6 3313.14 741V712.2C3313.14 682.6 3325.94 669 3361.94 669H3441.94C3477.94 669 3490.74 682.6 3490.74 712.2V732.2L3602.74 703.4V692.2C3602.74 603.4 3549.14 565.8 3457.14 565.8H3352.34C3260.34 565.8 3200.34 606.6 3200.34 695.4V755.4C3200.34 845 3248.34 885.8 3340.34 885.8H3441.94C3477.94 885.8 3490.74 899.4 3490.74 929V965C3490.74 994.6 3477.94 1008.2 3441.94 1008.2H3361.94C3325.94 1008.2 3313.14 994.6 3313.14 965V943.4ZM3989.45 1113C4081.45 1113 4135.05 1075.4 4135.05 986.6V692.2C4135.05 603.4 4081.45 565.8 3989.45 565.8H3854.25C3762.25 565.8 3708.65 603.4 3708.65 692.2V986.6C3708.65 1075.4 3762.25 1113 3854.25 1113H3989.45ZM3870.25 1008.2C3834.25 1008.2 3821.45 994.6 3821.45 965V712.2C3821.45 682.6 3834.25 669 3870.25 669H3974.25C4010.25 669 4023.05 682.6 4023.05 712.2V965C4023.05 994.6 4010.25 1008.2 3974.25 1008.2H3870.25ZM4647.36 1113V984.2L4568.16 879.4C4616.96 866.6 4647.36 826.6 4647.36 772.2V692.2C4647.36 603.4 4592.96 565.8 4500.96 565.8H4246.56V1113H4359.36V907.4H4457.76L4535.36 1011.4V1113H4647.36ZM4359.36 805.8V669H4486.56C4522.56 669 4535.36 682.6 4535.36 712.2V762.6C4535.36 792.2 4522.56 805.8 4486.56 805.8H4359.36Z" fill="white"/>
</g>
<defs>
<clipPath id="clip0_4_2">
<rect width="4988" height="1628" fill="white"/>
</clipPath>
</defs>
</svg>
