<?xml version="1.0" encoding="UTF-8"?><svg id="Layer_1" xmlns="http://www.w3.org/2000/svg" xmlns:xlink="http://www.w3.org/1999/xlink" viewBox="0 0 324.20001 83"><defs><style>.cls-1{fill:#1f1a31;}.cls-2{fill:url(#linear-gradient-2);}.cls-3{fill:url(#linear-gradient);}</style><linearGradient id="linear-gradient" x1="232.82693" y1="-562.99405" x2="291.24914" y2="-504.5718" gradientTransform="translate(-206 -477.38971) scale(1 -1)" gradientUnits="userSpaceOnUse"><stop offset="0" stop-color="#b090f5"/><stop offset="1" stop-color="#5fbfff"/></linearGradient><linearGradient id="linear-gradient-2" x1="203.70713" y1="-533.1992" x2="262.13754" y2="-474.77238" gradientTransform="translate(-206 -477.38971) scale(1 -1)" gradientUnits="userSpaceOnUse"><stop offset="0" stop-color="#68d7fa"/><stop offset="1" stop-color="#4ee498"/></linearGradient></defs><path class="cls-3" d="M77.5,20.9l-1.8-3.1c-.5-.9-1.6-1.2-2.5-.7-.1.1-.3.2-.4.3l-4.1,4.1c-.6.6-.7,1.6-.2,2.3,1.5,2.3,2.7,4.8,3.6,7.4h0c5.7,16.9-3.4,35.2-20.3,40.9-3.3,1.1-6.8,1.7-10.3,1.7-5.3,0-10.5-1.3-15.1-3.8l7-7c11.9,4.5,25.2-1.5,29.7-13.4,2.2-5.9,1.9-12.5-.8-18.2-.4-.9-1.5-1.3-2.5-.9-.2.1-.4.2-.5.4l-4.2,4.10001c-.5.5-.6,1.1-.5,1.7l.4,1.5c1.7,7.4-2.9,14.9-10.3,16.6-3.4.8-7,.3-10-1.5l-1.8-1.1c-.7-.4-1.6-.3-2.2.3l-17,17c-.7.7-.7,1.9,0,2.6q.1.1.2.2l2.5,1.9c7.1,5.8,16,8.8,25.1,8.8,22.9,0,41.5-18.6,41.5-41.6,0-7.2-1.9-14.2-5.5-20.5Z"/><path class="cls-2" d="M66.7,8.6C59.5,3,50.6,0,41.5,0,18.6,0,0,18.6,0,41.6c0,7.2,1.9,14.3,5.4,20.5l1.8,3.1c.5.9,1.6,1.2,2.5.7.1-.1.3-.2.4-.3l4.1-4.1c.6-.6.7-1.6.2-2.3-1.5-2.3-2.7-4.8-3.6-7.4h0c-5.7-16.9,3.4-35.2,20.3-40.9,3.3-1.1,6.8-1.7,10.3-1.7,5.3,0,10.5,1.3,15.1,3.8l-7,7c-11.9-4.5-25.2,1.5-29.7,13.4-1,2.6-1.5,5.4-1.5,8.2,0,.4.1,2.1.1,2.4.3,2.6,1,5.2,2.2,7.6.4.9,1.5,1.3,2.5.9.2-.1.4-.2.5-.4l4.2-4.2c.5-.5.6-1.1.5-1.7l-.3-1.49999c-1.7-7.4,2.9-14.9,10.3-16.6,3.4-.8,7-.3,10,1.5l1.8,1.1c.7.4,1.6.3,2.2-.3l17-17c.7-.7.7-1.9,0-2.6q-.1-.1-.2-.2l-2.40001-2Z"/><path class="cls-1" d="M136.60001,53c-.60001-.5-1.60001-.5-2.2.1-2.7,2.1-5.8,4-10.3,4-8.3,0-15-7-15-15.5s6.7-15.6,15-15.6c3.6,0,7.39999,1.5,10.3,4,.3.4.8.6,1.3.6.39999,0,.8-.3,1.10001-.6l2.7-2.8c.3-.3.5-.8.5-1.3s-.2-.9-.60001-1.3c-4.7-4.1-9.39999-5.9-15.3-5.9-12.6,0-22.9,10.3-22.9,23,0,12.6,10.2,22.9,22.9,22.9,5.8.1,11.3-2.2,15.39999-6.2.39999-.4.60001-.9.5-1.4,0-.4-.2-.8-.5-1.1l-2.89999-2.9Z"/><path class="cls-1" d="M156.2,19.2h-4.10001c-.89999,0-1.7.8-1.7,1.7v41.2c0,.9.8,1.7,1.7,1.7h4.10001c.89999,0,1.7-.8,1.7-1.7V20.9c0-.9-.7-1.7-1.7-1.7Z"/><path class="cls-1" d="M204.5,33.1c0-7.6-6.3-13.9-14-13.9h-16.8c-1,0-1.7.8-1.7,1.7v41.2c0,1,.8,1.7,1.7,1.7h4c.89999,0,1.7-.8,1.7-1.7v-15.3h8.39999l8.10001,16.2c.3.5.89999.9,1.5.9h4.8c.60001,0,1.2-.3,1.5-.8.3-.6.3-1.2,0-1.8l-8.2-15.3c5.60001-2.5,9-7.4,9-12.9ZM196.89999,33.2c0,3.9-3.2,7.2-7,7.2h-10.5v-14h10.60001c3.7-.1,6.89999,3.1,6.89999,6.8h0Z"/><path class="cls-1" d="M248.39999,53c-.60001-.5-1.60001-.5-2.2.1-2.7,2.1-5.8,4-10.3,4-8.3,0-15-7-15-15.5s6.70001-15.6,14.90001-15.6c3.60001,0,7.39999,1.5,10.3,4,.3.4.8.6,1.3.6.39999,0,.8-.3,1.10001-.6l2.7-2.8c.3-.3.5-.8.5-1.3s-.2-.9-.60001-1.3c-4.7-4.1-9.39999-5.9-15.3-5.9-12.60001,0-22.89999,10.3-22.89999,23,0,12.6,10.2,22.9,22.89999,22.9,5.8.1,11.3-2.2,15.39999-6.2.39999-.4.60001-.9.5-1.4,0-.4-.2-.8-.5-1.1l-2.8-2.90001Z"/><path class="cls-1" d="M285.89999,56.9h-16.20001V20.9c0-.9-.79999-1.7-1.70001-1.7h-4.10001c-1,0-1.70001.8-1.70001,1.7v41.2c0,1,.79999,1.7,1.70001,1.7h22c1,0,1.70001-.8,1.70001-1.7h0v-3.4c.00003-1-.69998-1.8-1.69998-1.8h0Z"/><path class="cls-1" d="M322.5,26.2c1,0,1.70001-.8,1.70001-1.7v-3.5c0-1-.79999-1.7-1.70001-1.7h-24.70001c-1,0-1.70001.8-1.70001,1.7v41.2c0,1,.79999,1.7,1.70001,1.7h24.70001c1,0,1.70001-.8,1.70001-1.7v-3.4c0-1-.79999-1.7-1.70001-1.7h-19v-12.4h15.89999c1,0,1.70001-.8,1.70001-1.7v-3.5c0-.9-.79999-1.7-1.70001-1.7h-15.89999v-11.6h19Z"/></svg>